<?xml version="1.0" encoding="utf-8" standalone="no"?>
<!DOCTYPE svg PUBLIC "-//W3C//DTD SVG 1.1//EN"
  "http://www.w3.org/Graphics/SVG/1.1/DTD/svg11.dtd">
<svg height="262.728437pt" version="1.1" viewBox="0 0 387.602216 262.728437" width="387.602216pt" xmlns="http://www.w3.org/2000/svg" xmlns:xlink="http://www.w3.org/1999/xlink">
 <metadata>
  <rdf:RDF xmlns:cc="http://creativecommons.org/ns#" xmlns:dc="http://purl.org/dc/elements/1.1/" xmlns:rdf="http://www.w3.org/1999/02/22-rdf-syntax-ns#">
   <cc:Work>
    <dc:type rdf:resource="http://purl.org/dc/dcmitype/StillImage"/>
    <dc:date>2022-10-26T18:07:38.528949</dc:date>
    <dc:format>image/svg+xml</dc:format>
    <dc:creator>
     <cc:Agent>
      <dc:title>Matplotlib v3.4.2, https://matplotlib.org/</dc:title>
     </cc:Agent>
    </dc:creator>
   </cc:Work>
  </rdf:RDF>
 </metadata>
 <defs>
  <style type="text/css">*{stroke-linecap:butt;stroke-linejoin:round;}</style>
 </defs>
 <g id="figure_1">
  <g id="patch_1">
   <path d="M 0 262.728437 
L 387.602216 262.728437 
L 387.602216 0 
L 0 0 
z
" style="fill:#ffffff;"/>
  </g>
  <g id="axes_1">
   <g id="patch_2">
    <path d="M 25.321875 120.779489 
L 177.503693 120.779489 
L 177.503693 21.943125 
L 25.321875 21.943125 
z
" style="fill:#eaeaf2;"/>
   </g>
   <g id="matplotlib.axis_1">
    <g id="xtick_1">
     <g id="line2d_1">
      <path clip-path="url(#p87f98bd099)" d="M 32.23923 120.779489 
L 32.23923 21.943125 
" style="fill:none;stroke:#ffffff;stroke-linecap:round;stroke-width:0.8;"/>
     </g>
    </g>
    <g id="xtick_2">
     <g id="line2d_2">
      <path clip-path="url(#p87f98bd099)" d="M 66.826007 120.779489 
L 66.826007 21.943125 
" style="fill:none;stroke:#ffffff;stroke-linecap:round;stroke-width:0.8;"/>
     </g>
    </g>
    <g id="xtick_3">
     <g id="line2d_3">
      <path clip-path="url(#p87f98bd099)" d="M 101.412784 120.779489 
L 101.412784 21.943125 
" style="fill:none;stroke:#ffffff;stroke-linecap:round;stroke-width:0.8;"/>
     </g>
    </g>
    <g id="xtick_4">
     <g id="line2d_4">
      <path clip-path="url(#p87f98bd099)" d="M 135.999561 120.779489 
L 135.999561 21.943125 
" style="fill:none;stroke:#ffffff;stroke-linecap:round;stroke-width:0.8;"/>
     </g>
    </g>
    <g id="xtick_5">
     <g id="line2d_5">
      <path clip-path="url(#p87f98bd099)" d="M 170.586338 120.779489 
L 170.586338 21.943125 
" style="fill:none;stroke:#ffffff;stroke-linecap:round;stroke-width:0.8;"/>
     </g>
    </g>
   </g>
   <g id="matplotlib.axis_2">
    <g id="ytick_1">
     <g id="line2d_6">
      <path clip-path="url(#p87f98bd099)" d="M 25.321875 120.779489 
L 177.503693 120.779489 
" style="fill:none;stroke:#ffffff;stroke-linecap:round;stroke-width:0.8;"/>
     </g>
     <g id="text_1">
      <!-- 0 -->
      <g style="fill:#262626;" transform="translate(12.760938 124.358395)scale(0.1 -0.1)">
       <defs>
        <path d="M 266 2259 
Q 266 3072 433 3567 
Q 600 4063 929 4331 
Q 1259 4600 1759 4600 
Q 2128 4600 2406 4451 
Q 2684 4303 2865 4023 
Q 3047 3744 3150 3342 
Q 3253 2941 3253 2259 
Q 3253 1453 3087 958 
Q 2922 463 2592 192 
Q 2263 -78 1759 -78 
Q 1097 -78 719 397 
Q 266 969 266 2259 
z
M 844 2259 
Q 844 1131 1108 757 
Q 1372 384 1759 384 
Q 2147 384 2411 759 
Q 2675 1134 2675 2259 
Q 2675 3391 2411 3762 
Q 2147 4134 1753 4134 
Q 1366 4134 1134 3806 
Q 844 3388 844 2259 
z
" id="ArialMT-30" transform="scale(0.015625)"/>
       </defs>
       <use xlink:href="#ArialMT-30"/>
      </g>
     </g>
    </g>
    <g id="ytick_2">
     <g id="line2d_7">
      <path clip-path="url(#p87f98bd099)" d="M 25.321875 94.919634 
L 177.503693 94.919634 
" style="fill:none;stroke:#ffffff;stroke-linecap:round;stroke-width:0.8;"/>
     </g>
     <g id="text_2">
      <!-- 25 -->
      <g style="fill:#262626;" transform="translate(7.2 98.49854)scale(0.1 -0.1)">
       <defs>
        <path d="M 3222 541 
L 3222 0 
L 194 0 
Q 188 203 259 391 
Q 375 700 629 1000 
Q 884 1300 1366 1694 
Q 2113 2306 2375 2664 
Q 2638 3022 2638 3341 
Q 2638 3675 2398 3904 
Q 2159 4134 1775 4134 
Q 1369 4134 1125 3890 
Q 881 3647 878 3216 
L 300 3275 
Q 359 3922 746 4261 
Q 1134 4600 1788 4600 
Q 2447 4600 2831 4234 
Q 3216 3869 3216 3328 
Q 3216 3053 3103 2787 
Q 2991 2522 2730 2228 
Q 2469 1934 1863 1422 
Q 1356 997 1212 845 
Q 1069 694 975 541 
L 3222 541 
z
" id="ArialMT-32" transform="scale(0.015625)"/>
        <path d="M 266 1200 
L 856 1250 
Q 922 819 1161 601 
Q 1400 384 1738 384 
Q 2144 384 2425 690 
Q 2706 997 2706 1503 
Q 2706 1984 2436 2262 
Q 2166 2541 1728 2541 
Q 1456 2541 1237 2417 
Q 1019 2294 894 2097 
L 366 2166 
L 809 4519 
L 3088 4519 
L 3088 3981 
L 1259 3981 
L 1013 2750 
Q 1425 3038 1878 3038 
Q 2478 3038 2890 2622 
Q 3303 2206 3303 1553 
Q 3303 931 2941 478 
Q 2500 -78 1738 -78 
Q 1113 -78 717 272 
Q 322 622 266 1200 
z
" id="ArialMT-35" transform="scale(0.015625)"/>
       </defs>
       <use xlink:href="#ArialMT-32"/>
       <use x="55.615234" xlink:href="#ArialMT-35"/>
      </g>
     </g>
    </g>
    <g id="ytick_3">
     <g id="line2d_8">
      <path clip-path="url(#p87f98bd099)" d="M 25.321875 69.05978 
L 177.503693 69.05978 
" style="fill:none;stroke:#ffffff;stroke-linecap:round;stroke-width:0.8;"/>
     </g>
     <g id="text_3">
      <!-- 50 -->
      <g style="fill:#262626;" transform="translate(7.2 72.638686)scale(0.1 -0.1)">
       <use xlink:href="#ArialMT-35"/>
       <use x="55.615234" xlink:href="#ArialMT-30"/>
      </g>
     </g>
    </g>
    <g id="ytick_4">
     <g id="line2d_9">
      <path clip-path="url(#p87f98bd099)" d="M 25.321875 43.199925 
L 177.503693 43.199925 
" style="fill:none;stroke:#ffffff;stroke-linecap:round;stroke-width:0.8;"/>
     </g>
     <g id="text_4">
      <!-- 75 -->
      <g style="fill:#262626;" transform="translate(7.2 46.778832)scale(0.1 -0.1)">
       <defs>
        <path d="M 303 3981 
L 303 4522 
L 3269 4522 
L 3269 4084 
Q 2831 3619 2401 2847 
Q 1972 2075 1738 1259 
Q 1569 684 1522 0 
L 944 0 
Q 953 541 1156 1306 
Q 1359 2072 1739 2783 
Q 2119 3494 2547 3981 
L 303 3981 
z
" id="ArialMT-37" transform="scale(0.015625)"/>
       </defs>
       <use xlink:href="#ArialMT-37"/>
       <use x="55.615234" xlink:href="#ArialMT-35"/>
      </g>
     </g>
    </g>
   </g>
   <g id="patch_3">
    <path clip-path="url(#p87f98bd099)" d="M 32.23923 120.779489 
L 39.520657 120.779489 
L 39.520657 118.7107 
L 32.23923 118.7107 
z
" style="fill:#1f77b4;opacity:0.5;stroke:#ffffff;stroke-linejoin:miter;"/>
   </g>
   <g id="patch_4">
    <path clip-path="url(#p87f98bd099)" d="M 39.520657 120.779489 
L 46.802084 120.779489 
L 46.802084 87.678875 
L 39.520657 87.678875 
z
" style="fill:#1f77b4;opacity:0.5;stroke:#ffffff;stroke-linejoin:miter;"/>
   </g>
   <g id="patch_5">
    <path clip-path="url(#p87f98bd099)" d="M 46.802084 120.779489 
L 54.08351 120.779489 
L 54.08351 42.165531 
L 46.802084 42.165531 
z
" style="fill:#1f77b4;opacity:0.5;stroke:#ffffff;stroke-linejoin:miter;"/>
   </g>
   <g id="patch_6">
    <path clip-path="url(#p87f98bd099)" d="M 54.08351 120.779489 
L 61.364937 120.779489 
L 61.364937 33.890378 
L 54.08351 33.890378 
z
" style="fill:#1f77b4;opacity:0.5;stroke:#ffffff;stroke-linejoin:miter;"/>
   </g>
   <g id="patch_7">
    <path clip-path="url(#p87f98bd099)" d="M 61.364937 120.779489 
L 68.646364 120.779489 
L 68.646364 64.922203 
L 61.364937 64.922203 
z
" style="fill:#1f77b4;opacity:0.5;stroke:#ffffff;stroke-linejoin:miter;"/>
   </g>
   <g id="patch_8">
    <path clip-path="url(#p87f98bd099)" d="M 68.646364 120.779489 
L 75.927791 120.779489 
L 75.927791 91.816452 
L 68.646364 91.816452 
z
" style="fill:#1f77b4;opacity:0.5;stroke:#ffffff;stroke-linejoin:miter;"/>
   </g>
   <g id="patch_9">
    <path clip-path="url(#p87f98bd099)" d="M 75.927791 120.779489 
L 83.209217 120.779489 
L 83.209217 111.469941 
L 75.927791 111.469941 
z
" style="fill:#1f77b4;opacity:0.5;stroke:#ffffff;stroke-linejoin:miter;"/>
   </g>
   <g id="patch_10">
    <path clip-path="url(#p87f98bd099)" d="M 83.209217 120.779489 
L 90.490644 120.779489 
L 90.490644 114.573124 
L 83.209217 114.573124 
z
" style="fill:#1f77b4;opacity:0.5;stroke:#ffffff;stroke-linejoin:miter;"/>
   </g>
   <g id="patch_11">
    <path clip-path="url(#p87f98bd099)" d="M 90.490644 120.779489 
L 97.772071 120.779489 
L 97.772071 117.676306 
L 90.490644 117.676306 
z
" style="fill:#1f77b4;opacity:0.5;stroke:#ffffff;stroke-linejoin:miter;"/>
   </g>
   <g id="patch_12">
    <path clip-path="url(#p87f98bd099)" d="M 97.772071 120.779489 
L 105.053497 120.779489 
L 105.053497 117.676306 
L 97.772071 117.676306 
z
" style="fill:#1f77b4;opacity:0.5;stroke:#ffffff;stroke-linejoin:miter;"/>
   </g>
   <g id="patch_13">
    <path clip-path="url(#p87f98bd099)" d="M 105.053497 120.779489 
L 112.334924 120.779489 
L 112.334924 118.7107 
L 105.053497 118.7107 
z
" style="fill:#1f77b4;opacity:0.5;stroke:#ffffff;stroke-linejoin:miter;"/>
   </g>
   <g id="patch_14">
    <path clip-path="url(#p87f98bd099)" d="M 112.334924 120.779489 
L 119.616351 120.779489 
L 119.616351 120.779489 
L 112.334924 120.779489 
z
" style="fill:#1f77b4;opacity:0.5;stroke:#ffffff;stroke-linejoin:miter;"/>
   </g>
   <g id="patch_15">
    <path clip-path="url(#p87f98bd099)" d="M 119.616351 120.779489 
L 126.897778 120.779489 
L 126.897778 120.779489 
L 119.616351 120.779489 
z
" style="fill:#1f77b4;opacity:0.5;stroke:#ffffff;stroke-linejoin:miter;"/>
   </g>
   <g id="patch_16">
    <path clip-path="url(#p87f98bd099)" d="M 126.897778 120.779489 
L 134.179204 120.779489 
L 134.179204 120.779489 
L 126.897778 120.779489 
z
" style="fill:#1f77b4;opacity:0.5;stroke:#ffffff;stroke-linejoin:miter;"/>
   </g>
   <g id="patch_17">
    <path clip-path="url(#p87f98bd099)" d="M 134.179204 120.779489 
L 141.460631 120.779489 
L 141.460631 120.779489 
L 134.179204 120.779489 
z
" style="fill:#1f77b4;opacity:0.5;stroke:#ffffff;stroke-linejoin:miter;"/>
   </g>
   <g id="patch_18">
    <path clip-path="url(#p87f98bd099)" d="M 141.460631 120.779489 
L 148.742058 120.779489 
L 148.742058 120.779489 
L 141.460631 120.779489 
z
" style="fill:#1f77b4;opacity:0.5;stroke:#ffffff;stroke-linejoin:miter;"/>
   </g>
   <g id="patch_19">
    <path clip-path="url(#p87f98bd099)" d="M 148.742058 120.779489 
L 156.023484 120.779489 
L 156.023484 120.779489 
L 148.742058 120.779489 
z
" style="fill:#1f77b4;opacity:0.5;stroke:#ffffff;stroke-linejoin:miter;"/>
   </g>
   <g id="patch_20">
    <path clip-path="url(#p87f98bd099)" d="M 156.023484 120.779489 
L 163.304911 120.779489 
L 163.304911 120.779489 
L 156.023484 120.779489 
z
" style="fill:#1f77b4;opacity:0.5;stroke:#ffffff;stroke-linejoin:miter;"/>
   </g>
   <g id="patch_21">
    <path clip-path="url(#p87f98bd099)" d="M 163.304911 120.779489 
L 170.586338 120.779489 
L 170.586338 120.779489 
L 163.304911 120.779489 
z
" style="fill:#1f77b4;opacity:0.5;stroke:#ffffff;stroke-linejoin:miter;"/>
   </g>
   <g id="patch_22">
    <path clip-path="url(#p87f98bd099)" d="M 32.23923 120.779489 
L 39.520657 120.779489 
L 39.520657 113.538729 
L 32.23923 113.538729 
z
" style="fill:#ff7f0e;opacity:0.5;stroke:#ffffff;stroke-linejoin:miter;"/>
   </g>
   <g id="patch_23">
    <path clip-path="url(#p87f98bd099)" d="M 39.520657 120.779489 
L 46.802084 120.779489 
L 46.802084 79.403722 
L 39.520657 79.403722 
z
" style="fill:#ff7f0e;opacity:0.5;stroke:#ffffff;stroke-linejoin:miter;"/>
   </g>
   <g id="patch_24">
    <path clip-path="url(#p87f98bd099)" d="M 46.802084 120.779489 
L 54.08351 120.779489 
L 54.08351 26.649619 
L 46.802084 26.649619 
z
" style="fill:#ff7f0e;opacity:0.5;stroke:#ffffff;stroke-linejoin:miter;"/>
   </g>
   <g id="patch_25">
    <path clip-path="url(#p87f98bd099)" d="M 54.08351 120.779489 
L 61.364937 120.779489 
L 61.364937 50.440685 
L 54.08351 50.440685 
z
" style="fill:#ff7f0e;opacity:0.5;stroke:#ffffff;stroke-linejoin:miter;"/>
   </g>
   <g id="patch_26">
    <path clip-path="url(#p87f98bd099)" d="M 61.364937 120.779489 
L 68.646364 120.779489 
L 68.646364 71.128568 
L 61.364937 71.128568 
z
" style="fill:#ff7f0e;opacity:0.5;stroke:#ffffff;stroke-linejoin:miter;"/>
   </g>
   <g id="patch_27">
    <path clip-path="url(#p87f98bd099)" d="M 68.646364 120.779489 
L 75.927791 120.779489 
L 75.927791 92.850846 
L 68.646364 92.850846 
z
" style="fill:#ff7f0e;opacity:0.5;stroke:#ffffff;stroke-linejoin:miter;"/>
   </g>
   <g id="patch_28">
    <path clip-path="url(#p87f98bd099)" d="M 75.927791 120.779489 
L 83.209217 120.779489 
L 83.209217 113.538729 
L 75.927791 113.538729 
z
" style="fill:#ff7f0e;opacity:0.5;stroke:#ffffff;stroke-linejoin:miter;"/>
   </g>
   <g id="patch_29">
    <path clip-path="url(#p87f98bd099)" d="M 83.209217 120.779489 
L 90.490644 120.779489 
L 90.490644 114.573124 
L 83.209217 114.573124 
z
" style="fill:#ff7f0e;opacity:0.5;stroke:#ffffff;stroke-linejoin:miter;"/>
   </g>
   <g id="patch_30">
    <path clip-path="url(#p87f98bd099)" d="M 90.490644 120.779489 
L 97.772071 120.779489 
L 97.772071 115.607518 
L 90.490644 115.607518 
z
" style="fill:#ff7f0e;opacity:0.5;stroke:#ffffff;stroke-linejoin:miter;"/>
   </g>
   <g id="patch_31">
    <path clip-path="url(#p87f98bd099)" d="M 97.772071 120.779489 
L 105.053497 120.779489 
L 105.053497 120.779489 
L 97.772071 120.779489 
z
" style="fill:#ff7f0e;opacity:0.5;stroke:#ffffff;stroke-linejoin:miter;"/>
   </g>
   <g id="patch_32">
    <path clip-path="url(#p87f98bd099)" d="M 105.053497 120.779489 
L 112.334924 120.779489 
L 112.334924 120.779489 
L 105.053497 120.779489 
z
" style="fill:#ff7f0e;opacity:0.5;stroke:#ffffff;stroke-linejoin:miter;"/>
   </g>
   <g id="patch_33">
    <path clip-path="url(#p87f98bd099)" d="M 112.334924 120.779489 
L 119.616351 120.779489 
L 119.616351 120.779489 
L 112.334924 120.779489 
z
" style="fill:#ff7f0e;opacity:0.5;stroke:#ffffff;stroke-linejoin:miter;"/>
   </g>
   <g id="patch_34">
    <path clip-path="url(#p87f98bd099)" d="M 119.616351 120.779489 
L 126.897778 120.779489 
L 126.897778 120.779489 
L 119.616351 120.779489 
z
" style="fill:#ff7f0e;opacity:0.5;stroke:#ffffff;stroke-linejoin:miter;"/>
   </g>
   <g id="patch_35">
    <path clip-path="url(#p87f98bd099)" d="M 126.897778 120.779489 
L 134.179204 120.779489 
L 134.179204 120.779489 
L 126.897778 120.779489 
z
" style="fill:#ff7f0e;opacity:0.5;stroke:#ffffff;stroke-linejoin:miter;"/>
   </g>
   <g id="patch_36">
    <path clip-path="url(#p87f98bd099)" d="M 134.179204 120.779489 
L 141.460631 120.779489 
L 141.460631 120.779489 
L 134.179204 120.779489 
z
" style="fill:#ff7f0e;opacity:0.5;stroke:#ffffff;stroke-linejoin:miter;"/>
   </g>
   <g id="patch_37">
    <path clip-path="url(#p87f98bd099)" d="M 141.460631 120.779489 
L 148.742058 120.779489 
L 148.742058 119.745094 
L 141.460631 119.745094 
z
" style="fill:#ff7f0e;opacity:0.5;stroke:#ffffff;stroke-linejoin:miter;"/>
   </g>
   <g id="patch_38">
    <path clip-path="url(#p87f98bd099)" d="M 148.742058 120.779489 
L 156.023484 120.779489 
L 156.023484 120.779489 
L 148.742058 120.779489 
z
" style="fill:#ff7f0e;opacity:0.5;stroke:#ffffff;stroke-linejoin:miter;"/>
   </g>
   <g id="patch_39">
    <path clip-path="url(#p87f98bd099)" d="M 156.023484 120.779489 
L 163.304911 120.779489 
L 163.304911 120.779489 
L 156.023484 120.779489 
z
" style="fill:#ff7f0e;opacity:0.5;stroke:#ffffff;stroke-linejoin:miter;"/>
   </g>
   <g id="patch_40">
    <path clip-path="url(#p87f98bd099)" d="M 163.304911 120.779489 
L 170.586338 120.779489 
L 170.586338 120.779489 
L 163.304911 120.779489 
z
" style="fill:#ff7f0e;opacity:0.5;stroke:#ffffff;stroke-linejoin:miter;"/>
   </g>
   <g id="patch_41">
    <path d="M 25.321875 120.779489 
L 25.321875 21.943125 
" style="fill:none;stroke:#ffffff;stroke-linecap:square;stroke-linejoin:miter;stroke-width:0.8;"/>
   </g>
   <g id="patch_42">
    <path d="M 177.503693 120.779489 
L 177.503693 21.943125 
" style="fill:none;stroke:#ffffff;stroke-linecap:square;stroke-linejoin:miter;stroke-width:0.8;"/>
   </g>
   <g id="patch_43">
    <path d="M 25.321875 120.779489 
L 177.503693 120.779489 
" style="fill:none;stroke:#ffffff;stroke-linecap:square;stroke-linejoin:miter;stroke-width:0.8;"/>
   </g>
   <g id="patch_44">
    <path d="M 25.321875 21.943125 
L 177.503693 21.943125 
" style="fill:none;stroke:#ffffff;stroke-linecap:square;stroke-linejoin:miter;stroke-width:0.8;"/>
   </g>
   <g id="text_5">
    <!-- Regulatory Burden -->
    <g style="fill:#262626;" transform="translate(51.385909 15.943125)scale(0.12 -0.12)">
     <defs>
      <path d="M 503 0 
L 503 4581 
L 2534 4581 
Q 3147 4581 3465 4457 
Q 3784 4334 3975 4021 
Q 4166 3709 4166 3331 
Q 4166 2844 3850 2509 
Q 3534 2175 2875 2084 
Q 3116 1969 3241 1856 
Q 3506 1613 3744 1247 
L 4541 0 
L 3778 0 
L 3172 953 
Q 2906 1366 2734 1584 
Q 2563 1803 2427 1890 
Q 2291 1978 2150 2013 
Q 2047 2034 1813 2034 
L 1109 2034 
L 1109 0 
L 503 0 
z
M 1109 2559 
L 2413 2559 
Q 2828 2559 3062 2645 
Q 3297 2731 3419 2920 
Q 3541 3109 3541 3331 
Q 3541 3656 3305 3865 
Q 3069 4075 2559 4075 
L 1109 4075 
L 1109 2559 
z
" id="ArialMT-52" transform="scale(0.015625)"/>
      <path d="M 2694 1069 
L 3275 997 
Q 3138 488 2766 206 
Q 2394 -75 1816 -75 
Q 1088 -75 661 373 
Q 234 822 234 1631 
Q 234 2469 665 2931 
Q 1097 3394 1784 3394 
Q 2450 3394 2872 2941 
Q 3294 2488 3294 1666 
Q 3294 1616 3291 1516 
L 816 1516 
Q 847 969 1125 678 
Q 1403 388 1819 388 
Q 2128 388 2347 550 
Q 2566 713 2694 1069 
z
M 847 1978 
L 2700 1978 
Q 2663 2397 2488 2606 
Q 2219 2931 1791 2931 
Q 1403 2931 1139 2672 
Q 875 2413 847 1978 
z
" id="ArialMT-65" transform="scale(0.015625)"/>
      <path d="M 319 -275 
L 866 -356 
Q 900 -609 1056 -725 
Q 1266 -881 1628 -881 
Q 2019 -881 2231 -725 
Q 2444 -569 2519 -288 
Q 2563 -116 2559 434 
Q 2191 0 1641 0 
Q 956 0 581 494 
Q 206 988 206 1678 
Q 206 2153 378 2554 
Q 550 2956 876 3175 
Q 1203 3394 1644 3394 
Q 2231 3394 2613 2919 
L 2613 3319 
L 3131 3319 
L 3131 450 
Q 3131 -325 2973 -648 
Q 2816 -972 2473 -1159 
Q 2131 -1347 1631 -1347 
Q 1038 -1347 672 -1080 
Q 306 -813 319 -275 
z
M 784 1719 
Q 784 1066 1043 766 
Q 1303 466 1694 466 
Q 2081 466 2343 764 
Q 2606 1063 2606 1700 
Q 2606 2309 2336 2618 
Q 2066 2928 1684 2928 
Q 1309 2928 1046 2623 
Q 784 2319 784 1719 
z
" id="ArialMT-67" transform="scale(0.015625)"/>
      <path d="M 2597 0 
L 2597 488 
Q 2209 -75 1544 -75 
Q 1250 -75 995 37 
Q 741 150 617 320 
Q 494 491 444 738 
Q 409 903 409 1263 
L 409 3319 
L 972 3319 
L 972 1478 
Q 972 1038 1006 884 
Q 1059 663 1231 536 
Q 1403 409 1656 409 
Q 1909 409 2131 539 
Q 2353 669 2445 892 
Q 2538 1116 2538 1541 
L 2538 3319 
L 3100 3319 
L 3100 0 
L 2597 0 
z
" id="ArialMT-75" transform="scale(0.015625)"/>
      <path d="M 409 0 
L 409 4581 
L 972 4581 
L 972 0 
L 409 0 
z
" id="ArialMT-6c" transform="scale(0.015625)"/>
      <path d="M 2588 409 
Q 2275 144 1986 34 
Q 1697 -75 1366 -75 
Q 819 -75 525 192 
Q 231 459 231 875 
Q 231 1119 342 1320 
Q 453 1522 633 1644 
Q 813 1766 1038 1828 
Q 1203 1872 1538 1913 
Q 2219 1994 2541 2106 
Q 2544 2222 2544 2253 
Q 2544 2597 2384 2738 
Q 2169 2928 1744 2928 
Q 1347 2928 1158 2789 
Q 969 2650 878 2297 
L 328 2372 
Q 403 2725 575 2942 
Q 747 3159 1072 3276 
Q 1397 3394 1825 3394 
Q 2250 3394 2515 3294 
Q 2781 3194 2906 3042 
Q 3031 2891 3081 2659 
Q 3109 2516 3109 2141 
L 3109 1391 
Q 3109 606 3145 398 
Q 3181 191 3288 0 
L 2700 0 
Q 2613 175 2588 409 
z
M 2541 1666 
Q 2234 1541 1622 1453 
Q 1275 1403 1131 1340 
Q 988 1278 909 1158 
Q 831 1038 831 891 
Q 831 666 1001 516 
Q 1172 366 1500 366 
Q 1825 366 2078 508 
Q 2331 650 2450 897 
Q 2541 1088 2541 1459 
L 2541 1666 
z
" id="ArialMT-61" transform="scale(0.015625)"/>
      <path d="M 1650 503 
L 1731 6 
Q 1494 -44 1306 -44 
Q 1000 -44 831 53 
Q 663 150 594 308 
Q 525 466 525 972 
L 525 2881 
L 113 2881 
L 113 3319 
L 525 3319 
L 525 4141 
L 1084 4478 
L 1084 3319 
L 1650 3319 
L 1650 2881 
L 1084 2881 
L 1084 941 
Q 1084 700 1114 631 
Q 1144 563 1211 522 
Q 1278 481 1403 481 
Q 1497 481 1650 503 
z
" id="ArialMT-74" transform="scale(0.015625)"/>
      <path d="M 213 1659 
Q 213 2581 725 3025 
Q 1153 3394 1769 3394 
Q 2453 3394 2887 2945 
Q 3322 2497 3322 1706 
Q 3322 1066 3130 698 
Q 2938 331 2570 128 
Q 2203 -75 1769 -75 
Q 1072 -75 642 372 
Q 213 819 213 1659 
z
M 791 1659 
Q 791 1022 1069 705 
Q 1347 388 1769 388 
Q 2188 388 2466 706 
Q 2744 1025 2744 1678 
Q 2744 2294 2464 2611 
Q 2184 2928 1769 2928 
Q 1347 2928 1069 2612 
Q 791 2297 791 1659 
z
" id="ArialMT-6f" transform="scale(0.015625)"/>
      <path d="M 416 0 
L 416 3319 
L 922 3319 
L 922 2816 
Q 1116 3169 1280 3281 
Q 1444 3394 1641 3394 
Q 1925 3394 2219 3213 
L 2025 2691 
Q 1819 2813 1613 2813 
Q 1428 2813 1281 2702 
Q 1134 2591 1072 2394 
Q 978 2094 978 1738 
L 978 0 
L 416 0 
z
" id="ArialMT-72" transform="scale(0.015625)"/>
      <path d="M 397 -1278 
L 334 -750 
Q 519 -800 656 -800 
Q 844 -800 956 -737 
Q 1069 -675 1141 -563 
Q 1194 -478 1313 -144 
Q 1328 -97 1363 -6 
L 103 3319 
L 709 3319 
L 1400 1397 
Q 1534 1031 1641 628 
Q 1738 1016 1872 1384 
L 2581 3319 
L 3144 3319 
L 1881 -56 
Q 1678 -603 1566 -809 
Q 1416 -1088 1222 -1217 
Q 1028 -1347 759 -1347 
Q 597 -1347 397 -1278 
z
" id="ArialMT-79" transform="scale(0.015625)"/>
      <path id="ArialMT-20" transform="scale(0.015625)"/>
      <path d="M 469 0 
L 469 4581 
L 2188 4581 
Q 2713 4581 3030 4442 
Q 3347 4303 3526 4014 
Q 3706 3725 3706 3409 
Q 3706 3116 3547 2856 
Q 3388 2597 3066 2438 
Q 3481 2316 3704 2022 
Q 3928 1728 3928 1328 
Q 3928 1006 3792 729 
Q 3656 453 3456 303 
Q 3256 153 2954 76 
Q 2653 0 2216 0 
L 469 0 
z
M 1075 2656 
L 2066 2656 
Q 2469 2656 2644 2709 
Q 2875 2778 2992 2937 
Q 3109 3097 3109 3338 
Q 3109 3566 3000 3739 
Q 2891 3913 2687 3977 
Q 2484 4041 1991 4041 
L 1075 4041 
L 1075 2656 
z
M 1075 541 
L 2216 541 
Q 2509 541 2628 563 
Q 2838 600 2978 687 
Q 3119 775 3209 942 
Q 3300 1109 3300 1328 
Q 3300 1584 3169 1773 
Q 3038 1963 2805 2039 
Q 2572 2116 2134 2116 
L 1075 2116 
L 1075 541 
z
" id="ArialMT-42" transform="scale(0.015625)"/>
      <path d="M 2575 0 
L 2575 419 
Q 2259 -75 1647 -75 
Q 1250 -75 917 144 
Q 584 363 401 755 
Q 219 1147 219 1656 
Q 219 2153 384 2558 
Q 550 2963 881 3178 
Q 1213 3394 1622 3394 
Q 1922 3394 2156 3267 
Q 2391 3141 2538 2938 
L 2538 4581 
L 3097 4581 
L 3097 0 
L 2575 0 
z
M 797 1656 
Q 797 1019 1065 703 
Q 1334 388 1700 388 
Q 2069 388 2326 689 
Q 2584 991 2584 1609 
Q 2584 2291 2321 2609 
Q 2059 2928 1675 2928 
Q 1300 2928 1048 2622 
Q 797 2316 797 1656 
z
" id="ArialMT-64" transform="scale(0.015625)"/>
      <path d="M 422 0 
L 422 3319 
L 928 3319 
L 928 2847 
Q 1294 3394 1984 3394 
Q 2284 3394 2536 3286 
Q 2788 3178 2913 3003 
Q 3038 2828 3088 2588 
Q 3119 2431 3119 2041 
L 3119 0 
L 2556 0 
L 2556 2019 
Q 2556 2363 2490 2533 
Q 2425 2703 2258 2804 
Q 2091 2906 1866 2906 
Q 1506 2906 1245 2678 
Q 984 2450 984 1813 
L 984 0 
L 422 0 
z
" id="ArialMT-6e" transform="scale(0.015625)"/>
     </defs>
     <use xlink:href="#ArialMT-52"/>
     <use x="72.216797" xlink:href="#ArialMT-65"/>
     <use x="127.832031" xlink:href="#ArialMT-67"/>
     <use x="183.447266" xlink:href="#ArialMT-75"/>
     <use x="239.0625" xlink:href="#ArialMT-6c"/>
     <use x="261.279297" xlink:href="#ArialMT-61"/>
     <use x="316.894531" xlink:href="#ArialMT-74"/>
     <use x="344.677734" xlink:href="#ArialMT-6f"/>
     <use x="400.292969" xlink:href="#ArialMT-72"/>
     <use x="433.59375" xlink:href="#ArialMT-79"/>
     <use x="483.59375" xlink:href="#ArialMT-20"/>
     <use x="511.376953" xlink:href="#ArialMT-42"/>
     <use x="578.076172" xlink:href="#ArialMT-75"/>
     <use x="633.691406" xlink:href="#ArialMT-72"/>
     <use x="666.992188" xlink:href="#ArialMT-64"/>
     <use x="722.607422" xlink:href="#ArialMT-65"/>
     <use x="778.222656" xlink:href="#ArialMT-6e"/>
    </g>
   </g>
  </g>
  <g id="axes_2">
   <g id="patch_45">
    <path d="M 207.940057 120.779489 
L 360.121875 120.779489 
L 360.121875 21.943125 
L 207.940057 21.943125 
z
" style="fill:#eaeaf2;"/>
   </g>
   <g id="matplotlib.axis_3">
    <g id="xtick_6">
     <g id="line2d_10">
      <path clip-path="url(#p9262ed4bf4)" d="M 214.857412 120.779489 
L 214.857412 21.943125 
" style="fill:none;stroke:#ffffff;stroke-linecap:round;stroke-width:0.8;"/>
     </g>
    </g>
    <g id="xtick_7">
     <g id="line2d_11">
      <path clip-path="url(#p9262ed4bf4)" d="M 249.444189 120.779489 
L 249.444189 21.943125 
" style="fill:none;stroke:#ffffff;stroke-linecap:round;stroke-width:0.8;"/>
     </g>
    </g>
    <g id="xtick_8">
     <g id="line2d_12">
      <path clip-path="url(#p9262ed4bf4)" d="M 284.030966 120.779489 
L 284.030966 21.943125 
" style="fill:none;stroke:#ffffff;stroke-linecap:round;stroke-width:0.8;"/>
     </g>
    </g>
    <g id="xtick_9">
     <g id="line2d_13">
      <path clip-path="url(#p9262ed4bf4)" d="M 318.617743 120.779489 
L 318.617743 21.943125 
" style="fill:none;stroke:#ffffff;stroke-linecap:round;stroke-width:0.8;"/>
     </g>
    </g>
    <g id="xtick_10">
     <g id="line2d_14">
      <path clip-path="url(#p9262ed4bf4)" d="M 353.20452 120.779489 
L 353.20452 21.943125 
" style="fill:none;stroke:#ffffff;stroke-linecap:round;stroke-width:0.8;"/>
     </g>
    </g>
   </g>
   <g id="matplotlib.axis_4">
    <g id="ytick_5">
     <g id="line2d_15">
      <path clip-path="url(#p9262ed4bf4)" d="M 207.940057 120.779489 
L 360.121875 120.779489 
" style="fill:none;stroke:#ffffff;stroke-linecap:round;stroke-width:0.8;"/>
     </g>
    </g>
    <g id="ytick_6">
     <g id="line2d_16">
      <path clip-path="url(#p9262ed4bf4)" d="M 207.940057 94.919634 
L 360.121875 94.919634 
" style="fill:none;stroke:#ffffff;stroke-linecap:round;stroke-width:0.8;"/>
     </g>
    </g>
    <g id="ytick_7">
     <g id="line2d_17">
      <path clip-path="url(#p9262ed4bf4)" d="M 207.940057 69.05978 
L 360.121875 69.05978 
" style="fill:none;stroke:#ffffff;stroke-linecap:round;stroke-width:0.8;"/>
     </g>
    </g>
    <g id="ytick_8">
     <g id="line2d_18">
      <path clip-path="url(#p9262ed4bf4)" d="M 207.940057 43.199925 
L 360.121875 43.199925 
" style="fill:none;stroke:#ffffff;stroke-linecap:round;stroke-width:0.8;"/>
     </g>
    </g>
   </g>
   <g id="patch_46">
    <path clip-path="url(#p9262ed4bf4)" d="M 214.857412 120.779489 
L 222.138839 120.779489 
L 222.138839 118.7107 
L 214.857412 118.7107 
z
" style="fill:#1f77b4;opacity:0.5;stroke:#ffffff;stroke-linejoin:miter;"/>
   </g>
   <g id="patch_47">
    <path clip-path="url(#p9262ed4bf4)" d="M 222.138839 120.779489 
L 229.420266 120.779489 
L 229.420266 87.678875 
L 222.138839 87.678875 
z
" style="fill:#1f77b4;opacity:0.5;stroke:#ffffff;stroke-linejoin:miter;"/>
   </g>
   <g id="patch_48">
    <path clip-path="url(#p9262ed4bf4)" d="M 229.420266 120.779489 
L 236.701692 120.779489 
L 236.701692 42.165531 
L 229.420266 42.165531 
z
" style="fill:#1f77b4;opacity:0.5;stroke:#ffffff;stroke-linejoin:miter;"/>
   </g>
   <g id="patch_49">
    <path clip-path="url(#p9262ed4bf4)" d="M 236.701692 120.779489 
L 243.983119 120.779489 
L 243.983119 33.890378 
L 236.701692 33.890378 
z
" style="fill:#1f77b4;opacity:0.5;stroke:#ffffff;stroke-linejoin:miter;"/>
   </g>
   <g id="patch_50">
    <path clip-path="url(#p9262ed4bf4)" d="M 243.983119 120.779489 
L 251.264546 120.779489 
L 251.264546 64.922203 
L 243.983119 64.922203 
z
" style="fill:#1f77b4;opacity:0.5;stroke:#ffffff;stroke-linejoin:miter;"/>
   </g>
   <g id="patch_51">
    <path clip-path="url(#p9262ed4bf4)" d="M 251.264546 120.779489 
L 258.545972 120.779489 
L 258.545972 91.816452 
L 251.264546 91.816452 
z
" style="fill:#1f77b4;opacity:0.5;stroke:#ffffff;stroke-linejoin:miter;"/>
   </g>
   <g id="patch_52">
    <path clip-path="url(#p9262ed4bf4)" d="M 258.545972 120.779489 
L 265.827399 120.779489 
L 265.827399 111.469941 
L 258.545972 111.469941 
z
" style="fill:#1f77b4;opacity:0.5;stroke:#ffffff;stroke-linejoin:miter;"/>
   </g>
   <g id="patch_53">
    <path clip-path="url(#p9262ed4bf4)" d="M 265.827399 120.779489 
L 273.108826 120.779489 
L 273.108826 114.573124 
L 265.827399 114.573124 
z
" style="fill:#1f77b4;opacity:0.5;stroke:#ffffff;stroke-linejoin:miter;"/>
   </g>
   <g id="patch_54">
    <path clip-path="url(#p9262ed4bf4)" d="M 273.108826 120.779489 
L 280.390253 120.779489 
L 280.390253 117.676306 
L 273.108826 117.676306 
z
" style="fill:#1f77b4;opacity:0.5;stroke:#ffffff;stroke-linejoin:miter;"/>
   </g>
   <g id="patch_55">
    <path clip-path="url(#p9262ed4bf4)" d="M 280.390253 120.779489 
L 287.671679 120.779489 
L 287.671679 117.676306 
L 280.390253 117.676306 
z
" style="fill:#1f77b4;opacity:0.5;stroke:#ffffff;stroke-linejoin:miter;"/>
   </g>
   <g id="patch_56">
    <path clip-path="url(#p9262ed4bf4)" d="M 287.671679 120.779489 
L 294.953106 120.779489 
L 294.953106 118.7107 
L 287.671679 118.7107 
z
" style="fill:#1f77b4;opacity:0.5;stroke:#ffffff;stroke-linejoin:miter;"/>
   </g>
   <g id="patch_57">
    <path clip-path="url(#p9262ed4bf4)" d="M 294.953106 120.779489 
L 302.234533 120.779489 
L 302.234533 120.779489 
L 294.953106 120.779489 
z
" style="fill:#1f77b4;opacity:0.5;stroke:#ffffff;stroke-linejoin:miter;"/>
   </g>
   <g id="patch_58">
    <path clip-path="url(#p9262ed4bf4)" d="M 302.234533 120.779489 
L 309.515959 120.779489 
L 309.515959 120.779489 
L 302.234533 120.779489 
z
" style="fill:#1f77b4;opacity:0.5;stroke:#ffffff;stroke-linejoin:miter;"/>
   </g>
   <g id="patch_59">
    <path clip-path="url(#p9262ed4bf4)" d="M 309.515959 120.779489 
L 316.797386 120.779489 
L 316.797386 120.779489 
L 309.515959 120.779489 
z
" style="fill:#1f77b4;opacity:0.5;stroke:#ffffff;stroke-linejoin:miter;"/>
   </g>
   <g id="patch_60">
    <path clip-path="url(#p9262ed4bf4)" d="M 316.797386 120.779489 
L 324.078813 120.779489 
L 324.078813 120.779489 
L 316.797386 120.779489 
z
" style="fill:#1f77b4;opacity:0.5;stroke:#ffffff;stroke-linejoin:miter;"/>
   </g>
   <g id="patch_61">
    <path clip-path="url(#p9262ed4bf4)" d="M 324.078813 120.779489 
L 331.36024 120.779489 
L 331.36024 120.779489 
L 324.078813 120.779489 
z
" style="fill:#1f77b4;opacity:0.5;stroke:#ffffff;stroke-linejoin:miter;"/>
   </g>
   <g id="patch_62">
    <path clip-path="url(#p9262ed4bf4)" d="M 331.36024 120.779489 
L 338.641666 120.779489 
L 338.641666 120.779489 
L 331.36024 120.779489 
z
" style="fill:#1f77b4;opacity:0.5;stroke:#ffffff;stroke-linejoin:miter;"/>
   </g>
   <g id="patch_63">
    <path clip-path="url(#p9262ed4bf4)" d="M 338.641666 120.779489 
L 345.923093 120.779489 
L 345.923093 120.779489 
L 338.641666 120.779489 
z
" style="fill:#1f77b4;opacity:0.5;stroke:#ffffff;stroke-linejoin:miter;"/>
   </g>
   <g id="patch_64">
    <path clip-path="url(#p9262ed4bf4)" d="M 345.923093 120.779489 
L 353.20452 120.779489 
L 353.20452 120.779489 
L 345.923093 120.779489 
z
" style="fill:#1f77b4;opacity:0.5;stroke:#ffffff;stroke-linejoin:miter;"/>
   </g>
   <g id="patch_65">
    <path clip-path="url(#p9262ed4bf4)" d="M 214.857412 120.779489 
L 222.138839 120.779489 
L 222.138839 111.469941 
L 214.857412 111.469941 
z
" style="fill:#ff7f0e;opacity:0.5;stroke:#ffffff;stroke-linejoin:miter;"/>
   </g>
   <g id="patch_66">
    <path clip-path="url(#p9262ed4bf4)" d="M 222.138839 120.779489 
L 229.420266 120.779489 
L 229.420266 73.197356 
L 222.138839 73.197356 
z
" style="fill:#ff7f0e;opacity:0.5;stroke:#ffffff;stroke-linejoin:miter;"/>
   </g>
   <g id="patch_67">
    <path clip-path="url(#p9262ed4bf4)" d="M 229.420266 120.779489 
L 236.701692 120.779489 
L 236.701692 40.096743 
L 229.420266 40.096743 
z
" style="fill:#ff7f0e;opacity:0.5;stroke:#ffffff;stroke-linejoin:miter;"/>
   </g>
   <g id="patch_68">
    <path clip-path="url(#p9262ed4bf4)" d="M 236.701692 120.779489 
L 243.983119 120.779489 
L 243.983119 48.371896 
L 236.701692 48.371896 
z
" style="fill:#ff7f0e;opacity:0.5;stroke:#ffffff;stroke-linejoin:miter;"/>
   </g>
   <g id="patch_69">
    <path clip-path="url(#p9262ed4bf4)" d="M 243.983119 120.779489 
L 251.264546 120.779489 
L 251.264546 63.887809 
L 243.983119 63.887809 
z
" style="fill:#ff7f0e;opacity:0.5;stroke:#ffffff;stroke-linejoin:miter;"/>
   </g>
   <g id="patch_70">
    <path clip-path="url(#p9262ed4bf4)" d="M 251.264546 120.779489 
L 258.545972 120.779489 
L 258.545972 98.022817 
L 251.264546 98.022817 
z
" style="fill:#ff7f0e;opacity:0.5;stroke:#ffffff;stroke-linejoin:miter;"/>
   </g>
   <g id="patch_71">
    <path clip-path="url(#p9262ed4bf4)" d="M 258.545972 120.779489 
L 265.827399 120.779489 
L 265.827399 108.366759 
L 258.545972 108.366759 
z
" style="fill:#ff7f0e;opacity:0.5;stroke:#ffffff;stroke-linejoin:miter;"/>
   </g>
   <g id="patch_72">
    <path clip-path="url(#p9262ed4bf4)" d="M 265.827399 120.779489 
L 273.108826 120.779489 
L 273.108826 117.676306 
L 265.827399 117.676306 
z
" style="fill:#ff7f0e;opacity:0.5;stroke:#ffffff;stroke-linejoin:miter;"/>
   </g>
   <g id="patch_73">
    <path clip-path="url(#p9262ed4bf4)" d="M 273.108826 120.779489 
L 280.390253 120.779489 
L 280.390253 118.7107 
L 273.108826 118.7107 
z
" style="fill:#ff7f0e;opacity:0.5;stroke:#ffffff;stroke-linejoin:miter;"/>
   </g>
   <g id="patch_74">
    <path clip-path="url(#p9262ed4bf4)" d="M 280.390253 120.779489 
L 287.671679 120.779489 
L 287.671679 120.779489 
L 280.390253 120.779489 
z
" style="fill:#ff7f0e;opacity:0.5;stroke:#ffffff;stroke-linejoin:miter;"/>
   </g>
   <g id="patch_75">
    <path clip-path="url(#p9262ed4bf4)" d="M 287.671679 120.779489 
L 294.953106 120.779489 
L 294.953106 119.745094 
L 287.671679 119.745094 
z
" style="fill:#ff7f0e;opacity:0.5;stroke:#ffffff;stroke-linejoin:miter;"/>
   </g>
   <g id="patch_76">
    <path clip-path="url(#p9262ed4bf4)" d="M 294.953106 120.779489 
L 302.234533 120.779489 
L 302.234533 119.745094 
L 294.953106 119.745094 
z
" style="fill:#ff7f0e;opacity:0.5;stroke:#ffffff;stroke-linejoin:miter;"/>
   </g>
   <g id="patch_77">
    <path clip-path="url(#p9262ed4bf4)" d="M 302.234533 120.779489 
L 309.515959 120.779489 
L 309.515959 119.745094 
L 302.234533 119.745094 
z
" style="fill:#ff7f0e;opacity:0.5;stroke:#ffffff;stroke-linejoin:miter;"/>
   </g>
   <g id="patch_78">
    <path clip-path="url(#p9262ed4bf4)" d="M 309.515959 120.779489 
L 316.797386 120.779489 
L 316.797386 120.779489 
L 309.515959 120.779489 
z
" style="fill:#ff7f0e;opacity:0.5;stroke:#ffffff;stroke-linejoin:miter;"/>
   </g>
   <g id="patch_79">
    <path clip-path="url(#p9262ed4bf4)" d="M 316.797386 120.779489 
L 324.078813 120.779489 
L 324.078813 120.779489 
L 316.797386 120.779489 
z
" style="fill:#ff7f0e;opacity:0.5;stroke:#ffffff;stroke-linejoin:miter;"/>
   </g>
   <g id="patch_80">
    <path clip-path="url(#p9262ed4bf4)" d="M 324.078813 120.779489 
L 331.36024 120.779489 
L 331.36024 120.779489 
L 324.078813 120.779489 
z
" style="fill:#ff7f0e;opacity:0.5;stroke:#ffffff;stroke-linejoin:miter;"/>
   </g>
   <g id="patch_81">
    <path clip-path="url(#p9262ed4bf4)" d="M 331.36024 120.779489 
L 338.641666 120.779489 
L 338.641666 120.779489 
L 331.36024 120.779489 
z
" style="fill:#ff7f0e;opacity:0.5;stroke:#ffffff;stroke-linejoin:miter;"/>
   </g>
   <g id="patch_82">
    <path clip-path="url(#p9262ed4bf4)" d="M 338.641666 120.779489 
L 345.923093 120.779489 
L 345.923093 120.779489 
L 338.641666 120.779489 
z
" style="fill:#ff7f0e;opacity:0.5;stroke:#ffffff;stroke-linejoin:miter;"/>
   </g>
   <g id="patch_83">
    <path clip-path="url(#p9262ed4bf4)" d="M 345.923093 120.779489 
L 353.20452 120.779489 
L 353.20452 120.779489 
L 345.923093 120.779489 
z
" style="fill:#ff7f0e;opacity:0.5;stroke:#ffffff;stroke-linejoin:miter;"/>
   </g>
   <g id="patch_84">
    <path d="M 207.940057 120.779489 
L 207.940057 21.943125 
" style="fill:none;stroke:#ffffff;stroke-linecap:square;stroke-linejoin:miter;stroke-width:0.8;"/>
   </g>
   <g id="patch_85">
    <path d="M 360.121875 120.779489 
L 360.121875 21.943125 
" style="fill:none;stroke:#ffffff;stroke-linecap:square;stroke-linejoin:miter;stroke-width:0.8;"/>
   </g>
   <g id="patch_86">
    <path d="M 207.940057 120.779489 
L 360.121875 120.779489 
" style="fill:none;stroke:#ffffff;stroke-linecap:square;stroke-linejoin:miter;stroke-width:0.8;"/>
   </g>
   <g id="patch_87">
    <path d="M 207.940057 21.943125 
L 360.121875 21.943125 
" style="fill:none;stroke:#ffffff;stroke-linecap:square;stroke-linejoin:miter;stroke-width:0.8;"/>
   </g>
   <g id="text_6">
    <!-- Physical Availability/Quality of Water -->
    <g style="fill:#262626;" transform="translate(187.659716 15.943125)scale(0.12 -0.12)">
     <defs>
      <path d="M 494 0 
L 494 4581 
L 2222 4581 
Q 2678 4581 2919 4538 
Q 3256 4481 3484 4323 
Q 3713 4166 3852 3881 
Q 3991 3597 3991 3256 
Q 3991 2672 3619 2267 
Q 3247 1863 2275 1863 
L 1100 1863 
L 1100 0 
L 494 0 
z
M 1100 2403 
L 2284 2403 
Q 2872 2403 3119 2622 
Q 3366 2841 3366 3238 
Q 3366 3525 3220 3729 
Q 3075 3934 2838 4000 
Q 2684 4041 2272 4041 
L 1100 4041 
L 1100 2403 
z
" id="ArialMT-50" transform="scale(0.015625)"/>
      <path d="M 422 0 
L 422 4581 
L 984 4581 
L 984 2938 
Q 1378 3394 1978 3394 
Q 2347 3394 2619 3248 
Q 2891 3103 3008 2847 
Q 3125 2591 3125 2103 
L 3125 0 
L 2563 0 
L 2563 2103 
Q 2563 2525 2380 2717 
Q 2197 2909 1863 2909 
Q 1613 2909 1392 2779 
Q 1172 2650 1078 2428 
Q 984 2206 984 1816 
L 984 0 
L 422 0 
z
" id="ArialMT-68" transform="scale(0.015625)"/>
      <path d="M 197 991 
L 753 1078 
Q 800 744 1014 566 
Q 1228 388 1613 388 
Q 2000 388 2187 545 
Q 2375 703 2375 916 
Q 2375 1106 2209 1216 
Q 2094 1291 1634 1406 
Q 1016 1563 777 1677 
Q 538 1791 414 1992 
Q 291 2194 291 2438 
Q 291 2659 392 2848 
Q 494 3038 669 3163 
Q 800 3259 1026 3326 
Q 1253 3394 1513 3394 
Q 1903 3394 2198 3281 
Q 2494 3169 2634 2976 
Q 2775 2784 2828 2463 
L 2278 2388 
Q 2241 2644 2061 2787 
Q 1881 2931 1553 2931 
Q 1166 2931 1000 2803 
Q 834 2675 834 2503 
Q 834 2394 903 2306 
Q 972 2216 1119 2156 
Q 1203 2125 1616 2013 
Q 2213 1853 2448 1751 
Q 2684 1650 2818 1456 
Q 2953 1263 2953 975 
Q 2953 694 2789 445 
Q 2625 197 2315 61 
Q 2006 -75 1616 -75 
Q 969 -75 630 194 
Q 291 463 197 991 
z
" id="ArialMT-73" transform="scale(0.015625)"/>
      <path d="M 425 3934 
L 425 4581 
L 988 4581 
L 988 3934 
L 425 3934 
z
M 425 0 
L 425 3319 
L 988 3319 
L 988 0 
L 425 0 
z
" id="ArialMT-69" transform="scale(0.015625)"/>
      <path d="M 2588 1216 
L 3141 1144 
Q 3050 572 2676 248 
Q 2303 -75 1759 -75 
Q 1078 -75 664 370 
Q 250 816 250 1647 
Q 250 2184 428 2587 
Q 606 2991 970 3192 
Q 1334 3394 1763 3394 
Q 2303 3394 2647 3120 
Q 2991 2847 3088 2344 
L 2541 2259 
Q 2463 2594 2264 2762 
Q 2066 2931 1784 2931 
Q 1359 2931 1093 2626 
Q 828 2322 828 1663 
Q 828 994 1084 691 
Q 1341 388 1753 388 
Q 2084 388 2306 591 
Q 2528 794 2588 1216 
z
" id="ArialMT-63" transform="scale(0.015625)"/>
      <path d="M -9 0 
L 1750 4581 
L 2403 4581 
L 4278 0 
L 3588 0 
L 3053 1388 
L 1138 1388 
L 634 0 
L -9 0 
z
M 1313 1881 
L 2866 1881 
L 2388 3150 
Q 2169 3728 2063 4100 
Q 1975 3659 1816 3225 
L 1313 1881 
z
" id="ArialMT-41" transform="scale(0.015625)"/>
      <path d="M 1344 0 
L 81 3319 
L 675 3319 
L 1388 1331 
Q 1503 1009 1600 663 
Q 1675 925 1809 1294 
L 2547 3319 
L 3125 3319 
L 1869 0 
L 1344 0 
z
" id="ArialMT-76" transform="scale(0.015625)"/>
      <path d="M 941 0 
L 419 0 
L 419 4581 
L 981 4581 
L 981 2947 
Q 1338 3394 1891 3394 
Q 2197 3394 2470 3270 
Q 2744 3147 2920 2923 
Q 3097 2700 3197 2384 
Q 3297 2069 3297 1709 
Q 3297 856 2875 390 
Q 2453 -75 1863 -75 
Q 1275 -75 941 416 
L 941 0 
z
M 934 1684 
Q 934 1088 1097 822 
Q 1363 388 1816 388 
Q 2184 388 2453 708 
Q 2722 1028 2722 1663 
Q 2722 2313 2464 2622 
Q 2206 2931 1841 2931 
Q 1472 2931 1203 2611 
Q 934 2291 934 1684 
z
" id="ArialMT-62" transform="scale(0.015625)"/>
      <path d="M 0 -78 
L 1328 4659 
L 1778 4659 
L 453 -78 
L 0 -78 
z
" id="ArialMT-2f" transform="scale(0.015625)"/>
      <path d="M 3966 491 
Q 4388 200 4744 66 
L 4566 -356 
Q 4072 -178 3581 206 
Q 3072 -78 2456 -78 
Q 1834 -78 1328 222 
Q 822 522 548 1065 
Q 275 1609 275 2291 
Q 275 2969 550 3525 
Q 825 4081 1333 4372 
Q 1841 4663 2469 4663 
Q 3103 4663 3612 4361 
Q 4122 4059 4389 3517 
Q 4656 2975 4656 2294 
Q 4656 1728 4484 1276 
Q 4313 825 3966 491 
z
M 2631 1266 
Q 3156 1119 3497 828 
Q 4031 1316 4031 2294 
Q 4031 2850 3842 3265 
Q 3653 3681 3289 3911 
Q 2925 4141 2472 4141 
Q 1794 4141 1347 3677 
Q 900 3213 900 2291 
Q 900 1397 1342 919 
Q 1784 441 2472 441 
Q 2797 441 3084 563 
Q 2800 747 2484 825 
L 2631 1266 
z
" id="ArialMT-51" transform="scale(0.015625)"/>
      <path d="M 556 0 
L 556 2881 
L 59 2881 
L 59 3319 
L 556 3319 
L 556 3672 
Q 556 4006 616 4169 
Q 697 4388 901 4523 
Q 1106 4659 1475 4659 
Q 1713 4659 2000 4603 
L 1916 4113 
Q 1741 4144 1584 4144 
Q 1328 4144 1222 4034 
Q 1116 3925 1116 3625 
L 1116 3319 
L 1763 3319 
L 1763 2881 
L 1116 2881 
L 1116 0 
L 556 0 
z
" id="ArialMT-66" transform="scale(0.015625)"/>
      <path d="M 1294 0 
L 78 4581 
L 700 4581 
L 1397 1578 
Q 1509 1106 1591 641 
Q 1766 1375 1797 1488 
L 2669 4581 
L 3400 4581 
L 4056 2263 
Q 4303 1400 4413 641 
Q 4500 1075 4641 1638 
L 5359 4581 
L 5969 4581 
L 4713 0 
L 4128 0 
L 3163 3491 
Q 3041 3928 3019 4028 
Q 2947 3713 2884 3491 
L 1913 0 
L 1294 0 
z
" id="ArialMT-57" transform="scale(0.015625)"/>
     </defs>
     <use xlink:href="#ArialMT-50"/>
     <use x="66.699219" xlink:href="#ArialMT-68"/>
     <use x="122.314453" xlink:href="#ArialMT-79"/>
     <use x="172.314453" xlink:href="#ArialMT-73"/>
     <use x="222.314453" xlink:href="#ArialMT-69"/>
     <use x="244.53125" xlink:href="#ArialMT-63"/>
     <use x="294.53125" xlink:href="#ArialMT-61"/>
     <use x="350.146484" xlink:href="#ArialMT-6c"/>
     <use x="372.363281" xlink:href="#ArialMT-20"/>
     <use x="394.646484" xlink:href="#ArialMT-41"/>
     <use x="459.595703" xlink:href="#ArialMT-76"/>
     <use x="509.595703" xlink:href="#ArialMT-61"/>
     <use x="565.210938" xlink:href="#ArialMT-69"/>
     <use x="587.427734" xlink:href="#ArialMT-6c"/>
     <use x="609.644531" xlink:href="#ArialMT-61"/>
     <use x="665.259766" xlink:href="#ArialMT-62"/>
     <use x="720.875" xlink:href="#ArialMT-69"/>
     <use x="743.091797" xlink:href="#ArialMT-6c"/>
     <use x="765.308594" xlink:href="#ArialMT-69"/>
     <use x="787.525391" xlink:href="#ArialMT-74"/>
     <use x="815.308594" xlink:href="#ArialMT-79"/>
     <use x="865.308594" xlink:href="#ArialMT-2f"/>
     <use x="893.091797" xlink:href="#ArialMT-51"/>
     <use x="970.875" xlink:href="#ArialMT-75"/>
     <use x="1026.490234" xlink:href="#ArialMT-61"/>
     <use x="1082.105469" xlink:href="#ArialMT-6c"/>
     <use x="1104.322266" xlink:href="#ArialMT-69"/>
     <use x="1126.539062" xlink:href="#ArialMT-74"/>
     <use x="1154.322266" xlink:href="#ArialMT-79"/>
     <use x="1204.322266" xlink:href="#ArialMT-20"/>
     <use x="1232.105469" xlink:href="#ArialMT-6f"/>
     <use x="1287.720703" xlink:href="#ArialMT-66"/>
     <use x="1315.503906" xlink:href="#ArialMT-20"/>
     <use x="1343.287109" xlink:href="#ArialMT-57"/>
     <use x="1433.921875" xlink:href="#ArialMT-61"/>
     <use x="1489.537109" xlink:href="#ArialMT-74"/>
     <use x="1517.320312" xlink:href="#ArialMT-65"/>
     <use x="1572.935547" xlink:href="#ArialMT-72"/>
    </g>
   </g>
  </g>
  <g id="axes_3">
   <g id="patch_88">
    <path d="M 25.321875 239.383125 
L 177.503693 239.383125 
L 177.503693 140.546761 
L 25.321875 140.546761 
z
" style="fill:#eaeaf2;"/>
   </g>
   <g id="matplotlib.axis_5">
    <g id="xtick_11">
     <g id="line2d_19">
      <path clip-path="url(#p56360e0c3c)" d="M 32.23923 239.383125 
L 32.23923 140.546761 
" style="fill:none;stroke:#ffffff;stroke-linecap:round;stroke-width:0.8;"/>
     </g>
     <g id="text_7">
      <!-- 0.0 -->
      <g style="fill:#262626;" transform="translate(25.28923 253.540937)scale(0.1 -0.1)">
       <defs>
        <path d="M 581 0 
L 581 641 
L 1222 641 
L 1222 0 
L 581 0 
z
" id="ArialMT-2e" transform="scale(0.015625)"/>
       </defs>
       <use xlink:href="#ArialMT-30"/>
       <use x="55.615234" xlink:href="#ArialMT-2e"/>
       <use x="83.398438" xlink:href="#ArialMT-30"/>
      </g>
     </g>
    </g>
    <g id="xtick_12">
     <g id="line2d_20">
      <path clip-path="url(#p56360e0c3c)" d="M 66.826007 239.383125 
L 66.826007 140.546761 
" style="fill:none;stroke:#ffffff;stroke-linecap:round;stroke-width:0.8;"/>
     </g>
     <g id="text_8">
      <!-- 2.5 -->
      <g style="fill:#262626;" transform="translate(59.876007 253.540937)scale(0.1 -0.1)">
       <use xlink:href="#ArialMT-32"/>
       <use x="55.615234" xlink:href="#ArialMT-2e"/>
       <use x="83.398438" xlink:href="#ArialMT-35"/>
      </g>
     </g>
    </g>
    <g id="xtick_13">
     <g id="line2d_21">
      <path clip-path="url(#p56360e0c3c)" d="M 101.412784 239.383125 
L 101.412784 140.546761 
" style="fill:none;stroke:#ffffff;stroke-linecap:round;stroke-width:0.8;"/>
     </g>
     <g id="text_9">
      <!-- 5.0 -->
      <g style="fill:#262626;" transform="translate(94.462784 253.540937)scale(0.1 -0.1)">
       <use xlink:href="#ArialMT-35"/>
       <use x="55.615234" xlink:href="#ArialMT-2e"/>
       <use x="83.398438" xlink:href="#ArialMT-30"/>
      </g>
     </g>
    </g>
    <g id="xtick_14">
     <g id="line2d_22">
      <path clip-path="url(#p56360e0c3c)" d="M 135.999561 239.383125 
L 135.999561 140.546761 
" style="fill:none;stroke:#ffffff;stroke-linecap:round;stroke-width:0.8;"/>
     </g>
     <g id="text_10">
      <!-- 7.5 -->
      <g style="fill:#262626;" transform="translate(129.049561 253.540937)scale(0.1 -0.1)">
       <use xlink:href="#ArialMT-37"/>
       <use x="55.615234" xlink:href="#ArialMT-2e"/>
       <use x="83.398438" xlink:href="#ArialMT-35"/>
      </g>
     </g>
    </g>
    <g id="xtick_15">
     <g id="line2d_23">
      <path clip-path="url(#p56360e0c3c)" d="M 170.586338 239.383125 
L 170.586338 140.546761 
" style="fill:none;stroke:#ffffff;stroke-linecap:round;stroke-width:0.8;"/>
     </g>
     <g id="text_11">
      <!-- 10.0 -->
      <g style="fill:#262626;" transform="translate(160.855869 253.540937)scale(0.1 -0.1)">
       <defs>
        <path d="M 2384 0 
L 1822 0 
L 1822 3584 
Q 1619 3391 1289 3197 
Q 959 3003 697 2906 
L 697 3450 
Q 1169 3672 1522 3987 
Q 1875 4303 2022 4600 
L 2384 4600 
L 2384 0 
z
" id="ArialMT-31" transform="scale(0.015625)"/>
       </defs>
       <use xlink:href="#ArialMT-31"/>
       <use x="55.615234" xlink:href="#ArialMT-30"/>
       <use x="111.230469" xlink:href="#ArialMT-2e"/>
       <use x="139.013672" xlink:href="#ArialMT-30"/>
      </g>
     </g>
    </g>
   </g>
   <g id="matplotlib.axis_6">
    <g id="ytick_9">
     <g id="line2d_24">
      <path clip-path="url(#p56360e0c3c)" d="M 25.321875 239.383125 
L 177.503693 239.383125 
" style="fill:none;stroke:#ffffff;stroke-linecap:round;stroke-width:0.8;"/>
     </g>
     <g id="text_12">
      <!-- 0 -->
      <g style="fill:#262626;" transform="translate(12.760938 242.962031)scale(0.1 -0.1)">
       <use xlink:href="#ArialMT-30"/>
      </g>
     </g>
    </g>
    <g id="ytick_10">
     <g id="line2d_25">
      <path clip-path="url(#p56360e0c3c)" d="M 25.321875 213.523271 
L 177.503693 213.523271 
" style="fill:none;stroke:#ffffff;stroke-linecap:round;stroke-width:0.8;"/>
     </g>
     <g id="text_13">
      <!-- 25 -->
      <g style="fill:#262626;" transform="translate(7.2 217.102177)scale(0.1 -0.1)">
       <use xlink:href="#ArialMT-32"/>
       <use x="55.615234" xlink:href="#ArialMT-35"/>
      </g>
     </g>
    </g>
    <g id="ytick_11">
     <g id="line2d_26">
      <path clip-path="url(#p56360e0c3c)" d="M 25.321875 187.663416 
L 177.503693 187.663416 
" style="fill:none;stroke:#ffffff;stroke-linecap:round;stroke-width:0.8;"/>
     </g>
     <g id="text_14">
      <!-- 50 -->
      <g style="fill:#262626;" transform="translate(7.2 191.242322)scale(0.1 -0.1)">
       <use xlink:href="#ArialMT-35"/>
       <use x="55.615234" xlink:href="#ArialMT-30"/>
      </g>
     </g>
    </g>
    <g id="ytick_12">
     <g id="line2d_27">
      <path clip-path="url(#p56360e0c3c)" d="M 25.321875 161.803562 
L 177.503693 161.803562 
" style="fill:none;stroke:#ffffff;stroke-linecap:round;stroke-width:0.8;"/>
     </g>
     <g id="text_15">
      <!-- 75 -->
      <g style="fill:#262626;" transform="translate(7.2 165.382468)scale(0.1 -0.1)">
       <use xlink:href="#ArialMT-37"/>
       <use x="55.615234" xlink:href="#ArialMT-35"/>
      </g>
     </g>
    </g>
   </g>
   <g id="patch_89">
    <path clip-path="url(#p56360e0c3c)" d="M 32.23923 239.383125 
L 39.520657 239.383125 
L 39.520657 237.314337 
L 32.23923 237.314337 
z
" style="fill:#1f77b4;opacity:0.5;stroke:#ffffff;stroke-linejoin:miter;"/>
   </g>
   <g id="patch_90">
    <path clip-path="url(#p56360e0c3c)" d="M 39.520657 239.383125 
L 46.802084 239.383125 
L 46.802084 206.282511 
L 39.520657 206.282511 
z
" style="fill:#1f77b4;opacity:0.5;stroke:#ffffff;stroke-linejoin:miter;"/>
   </g>
   <g id="patch_91">
    <path clip-path="url(#p56360e0c3c)" d="M 46.802084 239.383125 
L 54.08351 239.383125 
L 54.08351 160.769168 
L 46.802084 160.769168 
z
" style="fill:#1f77b4;opacity:0.5;stroke:#ffffff;stroke-linejoin:miter;"/>
   </g>
   <g id="patch_92">
    <path clip-path="url(#p56360e0c3c)" d="M 54.08351 239.383125 
L 61.364937 239.383125 
L 61.364937 152.494014 
L 54.08351 152.494014 
z
" style="fill:#1f77b4;opacity:0.5;stroke:#ffffff;stroke-linejoin:miter;"/>
   </g>
   <g id="patch_93">
    <path clip-path="url(#p56360e0c3c)" d="M 61.364937 239.383125 
L 68.646364 239.383125 
L 68.646364 183.525839 
L 61.364937 183.525839 
z
" style="fill:#1f77b4;opacity:0.5;stroke:#ffffff;stroke-linejoin:miter;"/>
   </g>
   <g id="patch_94">
    <path clip-path="url(#p56360e0c3c)" d="M 68.646364 239.383125 
L 75.927791 239.383125 
L 75.927791 210.420088 
L 68.646364 210.420088 
z
" style="fill:#1f77b4;opacity:0.5;stroke:#ffffff;stroke-linejoin:miter;"/>
   </g>
   <g id="patch_95">
    <path clip-path="url(#p56360e0c3c)" d="M 75.927791 239.383125 
L 83.209217 239.383125 
L 83.209217 230.073577 
L 75.927791 230.073577 
z
" style="fill:#1f77b4;opacity:0.5;stroke:#ffffff;stroke-linejoin:miter;"/>
   </g>
   <g id="patch_96">
    <path clip-path="url(#p56360e0c3c)" d="M 83.209217 239.383125 
L 90.490644 239.383125 
L 90.490644 233.17676 
L 83.209217 233.17676 
z
" style="fill:#1f77b4;opacity:0.5;stroke:#ffffff;stroke-linejoin:miter;"/>
   </g>
   <g id="patch_97">
    <path clip-path="url(#p56360e0c3c)" d="M 90.490644 239.383125 
L 97.772071 239.383125 
L 97.772071 236.279942 
L 90.490644 236.279942 
z
" style="fill:#1f77b4;opacity:0.5;stroke:#ffffff;stroke-linejoin:miter;"/>
   </g>
   <g id="patch_98">
    <path clip-path="url(#p56360e0c3c)" d="M 97.772071 239.383125 
L 105.053497 239.383125 
L 105.053497 236.279942 
L 97.772071 236.279942 
z
" style="fill:#1f77b4;opacity:0.5;stroke:#ffffff;stroke-linejoin:miter;"/>
   </g>
   <g id="patch_99">
    <path clip-path="url(#p56360e0c3c)" d="M 105.053497 239.383125 
L 112.334924 239.383125 
L 112.334924 237.314337 
L 105.053497 237.314337 
z
" style="fill:#1f77b4;opacity:0.5;stroke:#ffffff;stroke-linejoin:miter;"/>
   </g>
   <g id="patch_100">
    <path clip-path="url(#p56360e0c3c)" d="M 112.334924 239.383125 
L 119.616351 239.383125 
L 119.616351 239.383125 
L 112.334924 239.383125 
z
" style="fill:#1f77b4;opacity:0.5;stroke:#ffffff;stroke-linejoin:miter;"/>
   </g>
   <g id="patch_101">
    <path clip-path="url(#p56360e0c3c)" d="M 119.616351 239.383125 
L 126.897778 239.383125 
L 126.897778 239.383125 
L 119.616351 239.383125 
z
" style="fill:#1f77b4;opacity:0.5;stroke:#ffffff;stroke-linejoin:miter;"/>
   </g>
   <g id="patch_102">
    <path clip-path="url(#p56360e0c3c)" d="M 126.897778 239.383125 
L 134.179204 239.383125 
L 134.179204 239.383125 
L 126.897778 239.383125 
z
" style="fill:#1f77b4;opacity:0.5;stroke:#ffffff;stroke-linejoin:miter;"/>
   </g>
   <g id="patch_103">
    <path clip-path="url(#p56360e0c3c)" d="M 134.179204 239.383125 
L 141.460631 239.383125 
L 141.460631 239.383125 
L 134.179204 239.383125 
z
" style="fill:#1f77b4;opacity:0.5;stroke:#ffffff;stroke-linejoin:miter;"/>
   </g>
   <g id="patch_104">
    <path clip-path="url(#p56360e0c3c)" d="M 141.460631 239.383125 
L 148.742058 239.383125 
L 148.742058 239.383125 
L 141.460631 239.383125 
z
" style="fill:#1f77b4;opacity:0.5;stroke:#ffffff;stroke-linejoin:miter;"/>
   </g>
   <g id="patch_105">
    <path clip-path="url(#p56360e0c3c)" d="M 148.742058 239.383125 
L 156.023484 239.383125 
L 156.023484 239.383125 
L 148.742058 239.383125 
z
" style="fill:#1f77b4;opacity:0.5;stroke:#ffffff;stroke-linejoin:miter;"/>
   </g>
   <g id="patch_106">
    <path clip-path="url(#p56360e0c3c)" d="M 156.023484 239.383125 
L 163.304911 239.383125 
L 163.304911 239.383125 
L 156.023484 239.383125 
z
" style="fill:#1f77b4;opacity:0.5;stroke:#ffffff;stroke-linejoin:miter;"/>
   </g>
   <g id="patch_107">
    <path clip-path="url(#p56360e0c3c)" d="M 163.304911 239.383125 
L 170.586338 239.383125 
L 170.586338 239.383125 
L 163.304911 239.383125 
z
" style="fill:#1f77b4;opacity:0.5;stroke:#ffffff;stroke-linejoin:miter;"/>
   </g>
   <g id="patch_108">
    <path clip-path="url(#p56360e0c3c)" d="M 32.23923 239.383125 
L 39.520657 239.383125 
L 39.520657 235.245548 
L 32.23923 235.245548 
z
" style="fill:#ff7f0e;opacity:0.5;stroke:#ffffff;stroke-linejoin:miter;"/>
   </g>
   <g id="patch_109">
    <path clip-path="url(#p56360e0c3c)" d="M 39.520657 239.383125 
L 46.802084 239.383125 
L 46.802084 218.695241 
L 39.520657 218.695241 
z
" style="fill:#ff7f0e;opacity:0.5;stroke:#ffffff;stroke-linejoin:miter;"/>
   </g>
   <g id="patch_110">
    <path clip-path="url(#p56360e0c3c)" d="M 46.802084 239.383125 
L 54.08351 239.383125 
L 54.08351 158.700379 
L 46.802084 158.700379 
z
" style="fill:#ff7f0e;opacity:0.5;stroke:#ffffff;stroke-linejoin:miter;"/>
   </g>
   <g id="patch_111">
    <path clip-path="url(#p56360e0c3c)" d="M 54.08351 239.383125 
L 61.364937 239.383125 
L 61.364937 146.287649 
L 54.08351 146.287649 
z
" style="fill:#ff7f0e;opacity:0.5;stroke:#ffffff;stroke-linejoin:miter;"/>
   </g>
   <g id="patch_112">
    <path clip-path="url(#p56360e0c3c)" d="M 61.364937 239.383125 
L 68.646364 239.383125 
L 68.646364 179.388263 
L 61.364937 179.388263 
z
" style="fill:#ff7f0e;opacity:0.5;stroke:#ffffff;stroke-linejoin:miter;"/>
   </g>
   <g id="patch_113">
    <path clip-path="url(#p56360e0c3c)" d="M 68.646364 239.383125 
L 75.927791 239.383125 
L 75.927791 217.660847 
L 68.646364 217.660847 
z
" style="fill:#ff7f0e;opacity:0.5;stroke:#ffffff;stroke-linejoin:miter;"/>
   </g>
   <g id="patch_114">
    <path clip-path="url(#p56360e0c3c)" d="M 75.927791 239.383125 
L 83.209217 239.383125 
L 83.209217 221.798424 
L 75.927791 221.798424 
z
" style="fill:#ff7f0e;opacity:0.5;stroke:#ffffff;stroke-linejoin:miter;"/>
   </g>
   <g id="patch_115">
    <path clip-path="url(#p56360e0c3c)" d="M 83.209217 239.383125 
L 90.490644 239.383125 
L 90.490644 234.211154 
L 83.209217 234.211154 
z
" style="fill:#ff7f0e;opacity:0.5;stroke:#ffffff;stroke-linejoin:miter;"/>
   </g>
   <g id="patch_116">
    <path clip-path="url(#p56360e0c3c)" d="M 90.490644 239.383125 
L 97.772071 239.383125 
L 97.772071 236.279942 
L 90.490644 236.279942 
z
" style="fill:#ff7f0e;opacity:0.5;stroke:#ffffff;stroke-linejoin:miter;"/>
   </g>
   <g id="patch_117">
    <path clip-path="url(#p56360e0c3c)" d="M 97.772071 239.383125 
L 105.053497 239.383125 
L 105.053497 237.314337 
L 97.772071 237.314337 
z
" style="fill:#ff7f0e;opacity:0.5;stroke:#ffffff;stroke-linejoin:miter;"/>
   </g>
   <g id="patch_118">
    <path clip-path="url(#p56360e0c3c)" d="M 105.053497 239.383125 
L 112.334924 239.383125 
L 112.334924 238.348731 
L 105.053497 238.348731 
z
" style="fill:#ff7f0e;opacity:0.5;stroke:#ffffff;stroke-linejoin:miter;"/>
   </g>
   <g id="patch_119">
    <path clip-path="url(#p56360e0c3c)" d="M 112.334924 239.383125 
L 119.616351 239.383125 
L 119.616351 239.383125 
L 112.334924 239.383125 
z
" style="fill:#ff7f0e;opacity:0.5;stroke:#ffffff;stroke-linejoin:miter;"/>
   </g>
   <g id="patch_120">
    <path clip-path="url(#p56360e0c3c)" d="M 119.616351 239.383125 
L 126.897778 239.383125 
L 126.897778 239.383125 
L 119.616351 239.383125 
z
" style="fill:#ff7f0e;opacity:0.5;stroke:#ffffff;stroke-linejoin:miter;"/>
   </g>
   <g id="patch_121">
    <path clip-path="url(#p56360e0c3c)" d="M 126.897778 239.383125 
L 134.179204 239.383125 
L 134.179204 239.383125 
L 126.897778 239.383125 
z
" style="fill:#ff7f0e;opacity:0.5;stroke:#ffffff;stroke-linejoin:miter;"/>
   </g>
   <g id="patch_122">
    <path clip-path="url(#p56360e0c3c)" d="M 134.179204 239.383125 
L 141.460631 239.383125 
L 141.460631 239.383125 
L 134.179204 239.383125 
z
" style="fill:#ff7f0e;opacity:0.5;stroke:#ffffff;stroke-linejoin:miter;"/>
   </g>
   <g id="patch_123">
    <path clip-path="url(#p56360e0c3c)" d="M 141.460631 239.383125 
L 148.742058 239.383125 
L 148.742058 239.383125 
L 141.460631 239.383125 
z
" style="fill:#ff7f0e;opacity:0.5;stroke:#ffffff;stroke-linejoin:miter;"/>
   </g>
   <g id="patch_124">
    <path clip-path="url(#p56360e0c3c)" d="M 148.742058 239.383125 
L 156.023484 239.383125 
L 156.023484 239.383125 
L 148.742058 239.383125 
z
" style="fill:#ff7f0e;opacity:0.5;stroke:#ffffff;stroke-linejoin:miter;"/>
   </g>
   <g id="patch_125">
    <path clip-path="url(#p56360e0c3c)" d="M 156.023484 239.383125 
L 163.304911 239.383125 
L 163.304911 239.383125 
L 156.023484 239.383125 
z
" style="fill:#ff7f0e;opacity:0.5;stroke:#ffffff;stroke-linejoin:miter;"/>
   </g>
   <g id="patch_126">
    <path clip-path="url(#p56360e0c3c)" d="M 163.304911 239.383125 
L 170.586338 239.383125 
L 170.586338 239.383125 
L 163.304911 239.383125 
z
" style="fill:#ff7f0e;opacity:0.5;stroke:#ffffff;stroke-linejoin:miter;"/>
   </g>
   <g id="patch_127">
    <path d="M 25.321875 239.383125 
L 25.321875 140.546761 
" style="fill:none;stroke:#ffffff;stroke-linecap:square;stroke-linejoin:miter;stroke-width:0.8;"/>
   </g>
   <g id="patch_128">
    <path d="M 177.503693 239.383125 
L 177.503693 140.546761 
" style="fill:none;stroke:#ffffff;stroke-linecap:square;stroke-linejoin:miter;stroke-width:0.8;"/>
   </g>
   <g id="patch_129">
    <path d="M 25.321875 239.383125 
L 177.503693 239.383125 
" style="fill:none;stroke:#ffffff;stroke-linecap:square;stroke-linejoin:miter;stroke-width:0.8;"/>
   </g>
   <g id="patch_130">
    <path d="M 25.321875 140.546761 
L 177.503693 140.546761 
" style="fill:none;stroke:#ffffff;stroke-linecap:square;stroke-linejoin:miter;stroke-width:0.8;"/>
   </g>
   <g id="text_16">
    <!-- Lack of State Oversight/Regulation -->
    <g style="fill:#262626;" transform="translate(8.699659 134.546761)scale(0.12 -0.12)">
     <defs>
      <path d="M 469 0 
L 469 4581 
L 1075 4581 
L 1075 541 
L 3331 541 
L 3331 0 
L 469 0 
z
" id="ArialMT-4c" transform="scale(0.015625)"/>
      <path d="M 425 0 
L 425 4581 
L 988 4581 
L 988 1969 
L 2319 3319 
L 3047 3319 
L 1778 2088 
L 3175 0 
L 2481 0 
L 1384 1697 
L 988 1316 
L 988 0 
L 425 0 
z
" id="ArialMT-6b" transform="scale(0.015625)"/>
      <path d="M 288 1472 
L 859 1522 
Q 900 1178 1048 958 
Q 1197 738 1509 602 
Q 1822 466 2213 466 
Q 2559 466 2825 569 
Q 3091 672 3220 851 
Q 3350 1031 3350 1244 
Q 3350 1459 3225 1620 
Q 3100 1781 2813 1891 
Q 2628 1963 1997 2114 
Q 1366 2266 1113 2400 
Q 784 2572 623 2826 
Q 463 3081 463 3397 
Q 463 3744 659 4045 
Q 856 4347 1234 4503 
Q 1613 4659 2075 4659 
Q 2584 4659 2973 4495 
Q 3363 4331 3572 4012 
Q 3781 3694 3797 3291 
L 3216 3247 
Q 3169 3681 2898 3903 
Q 2628 4125 2100 4125 
Q 1550 4125 1298 3923 
Q 1047 3722 1047 3438 
Q 1047 3191 1225 3031 
Q 1400 2872 2139 2705 
Q 2878 2538 3153 2413 
Q 3553 2228 3743 1945 
Q 3934 1663 3934 1294 
Q 3934 928 3725 604 
Q 3516 281 3123 101 
Q 2731 -78 2241 -78 
Q 1619 -78 1198 103 
Q 778 284 539 648 
Q 300 1013 288 1472 
z
" id="ArialMT-53" transform="scale(0.015625)"/>
      <path d="M 309 2231 
Q 309 3372 921 4017 
Q 1534 4663 2503 4663 
Q 3138 4663 3647 4359 
Q 4156 4056 4423 3514 
Q 4691 2972 4691 2284 
Q 4691 1588 4409 1038 
Q 4128 488 3612 205 
Q 3097 -78 2500 -78 
Q 1853 -78 1343 234 
Q 834 547 571 1087 
Q 309 1628 309 2231 
z
M 934 2222 
Q 934 1394 1379 917 
Q 1825 441 2497 441 
Q 3181 441 3623 922 
Q 4066 1403 4066 2288 
Q 4066 2847 3877 3264 
Q 3688 3681 3323 3911 
Q 2959 4141 2506 4141 
Q 1863 4141 1398 3698 
Q 934 3256 934 2222 
z
" id="ArialMT-4f" transform="scale(0.015625)"/>
     </defs>
     <use xlink:href="#ArialMT-4c"/>
     <use x="55.615234" xlink:href="#ArialMT-61"/>
     <use x="111.230469" xlink:href="#ArialMT-63"/>
     <use x="161.230469" xlink:href="#ArialMT-6b"/>
     <use x="211.230469" xlink:href="#ArialMT-20"/>
     <use x="239.013672" xlink:href="#ArialMT-6f"/>
     <use x="294.628906" xlink:href="#ArialMT-66"/>
     <use x="322.412109" xlink:href="#ArialMT-20"/>
     <use x="350.195312" xlink:href="#ArialMT-53"/>
     <use x="416.894531" xlink:href="#ArialMT-74"/>
     <use x="444.677734" xlink:href="#ArialMT-61"/>
     <use x="500.292969" xlink:href="#ArialMT-74"/>
     <use x="528.076172" xlink:href="#ArialMT-65"/>
     <use x="583.691406" xlink:href="#ArialMT-20"/>
     <use x="611.474609" xlink:href="#ArialMT-4f"/>
     <use x="689.257812" xlink:href="#ArialMT-76"/>
     <use x="739.257812" xlink:href="#ArialMT-65"/>
     <use x="794.873047" xlink:href="#ArialMT-72"/>
     <use x="828.173828" xlink:href="#ArialMT-73"/>
     <use x="878.173828" xlink:href="#ArialMT-69"/>
     <use x="900.390625" xlink:href="#ArialMT-67"/>
     <use x="956.005859" xlink:href="#ArialMT-68"/>
     <use x="1011.621094" xlink:href="#ArialMT-74"/>
     <use x="1039.404297" xlink:href="#ArialMT-2f"/>
     <use x="1067.1875" xlink:href="#ArialMT-52"/>
     <use x="1139.404297" xlink:href="#ArialMT-65"/>
     <use x="1195.019531" xlink:href="#ArialMT-67"/>
     <use x="1250.634766" xlink:href="#ArialMT-75"/>
     <use x="1306.25" xlink:href="#ArialMT-6c"/>
     <use x="1328.466797" xlink:href="#ArialMT-61"/>
     <use x="1384.082031" xlink:href="#ArialMT-74"/>
     <use x="1411.865234" xlink:href="#ArialMT-69"/>
     <use x="1434.082031" xlink:href="#ArialMT-6f"/>
     <use x="1489.697266" xlink:href="#ArialMT-6e"/>
    </g>
   </g>
  </g>
  <g id="axes_4">
   <g id="patch_131">
    <path d="M 207.940057 239.383125 
L 360.121875 239.383125 
L 360.121875 140.546761 
L 207.940057 140.546761 
z
" style="fill:#eaeaf2;"/>
   </g>
   <g id="matplotlib.axis_7">
    <g id="xtick_16">
     <g id="line2d_28">
      <path clip-path="url(#p5cc2d76167)" d="M 214.857412 239.383125 
L 214.857412 140.546761 
" style="fill:none;stroke:#ffffff;stroke-linecap:round;stroke-width:0.8;"/>
     </g>
     <g id="text_17">
      <!-- 0.0 -->
      <g style="fill:#262626;" transform="translate(207.907412 253.540937)scale(0.1 -0.1)">
       <use xlink:href="#ArialMT-30"/>
       <use x="55.615234" xlink:href="#ArialMT-2e"/>
       <use x="83.398438" xlink:href="#ArialMT-30"/>
      </g>
     </g>
    </g>
    <g id="xtick_17">
     <g id="line2d_29">
      <path clip-path="url(#p5cc2d76167)" d="M 249.444189 239.383125 
L 249.444189 140.546761 
" style="fill:none;stroke:#ffffff;stroke-linecap:round;stroke-width:0.8;"/>
     </g>
     <g id="text_18">
      <!-- 2.5 -->
      <g style="fill:#262626;" transform="translate(242.494189 253.540937)scale(0.1 -0.1)">
       <use xlink:href="#ArialMT-32"/>
       <use x="55.615234" xlink:href="#ArialMT-2e"/>
       <use x="83.398438" xlink:href="#ArialMT-35"/>
      </g>
     </g>
    </g>
    <g id="xtick_18">
     <g id="line2d_30">
      <path clip-path="url(#p5cc2d76167)" d="M 284.030966 239.383125 
L 284.030966 140.546761 
" style="fill:none;stroke:#ffffff;stroke-linecap:round;stroke-width:0.8;"/>
     </g>
     <g id="text_19">
      <!-- 5.0 -->
      <g style="fill:#262626;" transform="translate(277.080966 253.540937)scale(0.1 -0.1)">
       <use xlink:href="#ArialMT-35"/>
       <use x="55.615234" xlink:href="#ArialMT-2e"/>
       <use x="83.398438" xlink:href="#ArialMT-30"/>
      </g>
     </g>
    </g>
    <g id="xtick_19">
     <g id="line2d_31">
      <path clip-path="url(#p5cc2d76167)" d="M 318.617743 239.383125 
L 318.617743 140.546761 
" style="fill:none;stroke:#ffffff;stroke-linecap:round;stroke-width:0.8;"/>
     </g>
     <g id="text_20">
      <!-- 7.5 -->
      <g style="fill:#262626;" transform="translate(311.667743 253.540937)scale(0.1 -0.1)">
       <use xlink:href="#ArialMT-37"/>
       <use x="55.615234" xlink:href="#ArialMT-2e"/>
       <use x="83.398438" xlink:href="#ArialMT-35"/>
      </g>
     </g>
    </g>
    <g id="xtick_20">
     <g id="line2d_32">
      <path clip-path="url(#p5cc2d76167)" d="M 353.20452 239.383125 
L 353.20452 140.546761 
" style="fill:none;stroke:#ffffff;stroke-linecap:round;stroke-width:0.8;"/>
     </g>
     <g id="text_21">
      <!-- 10.0 -->
      <g style="fill:#262626;" transform="translate(343.474051 253.540937)scale(0.1 -0.1)">
       <use xlink:href="#ArialMT-31"/>
       <use x="55.615234" xlink:href="#ArialMT-30"/>
       <use x="111.230469" xlink:href="#ArialMT-2e"/>
       <use x="139.013672" xlink:href="#ArialMT-30"/>
      </g>
     </g>
    </g>
   </g>
   <g id="matplotlib.axis_8">
    <g id="ytick_13">
     <g id="line2d_33">
      <path clip-path="url(#p5cc2d76167)" d="M 207.940057 239.383125 
L 360.121875 239.383125 
" style="fill:none;stroke:#ffffff;stroke-linecap:round;stroke-width:0.8;"/>
     </g>
    </g>
    <g id="ytick_14">
     <g id="line2d_34">
      <path clip-path="url(#p5cc2d76167)" d="M 207.940057 213.523271 
L 360.121875 213.523271 
" style="fill:none;stroke:#ffffff;stroke-linecap:round;stroke-width:0.8;"/>
     </g>
    </g>
    <g id="ytick_15">
     <g id="line2d_35">
      <path clip-path="url(#p5cc2d76167)" d="M 207.940057 187.663416 
L 360.121875 187.663416 
" style="fill:none;stroke:#ffffff;stroke-linecap:round;stroke-width:0.8;"/>
     </g>
    </g>
    <g id="ytick_16">
     <g id="line2d_36">
      <path clip-path="url(#p5cc2d76167)" d="M 207.940057 161.803562 
L 360.121875 161.803562 
" style="fill:none;stroke:#ffffff;stroke-linecap:round;stroke-width:0.8;"/>
     </g>
    </g>
   </g>
   <g id="patch_132">
    <path clip-path="url(#p5cc2d76167)" d="M 214.857412 239.383125 
L 222.138839 239.383125 
L 222.138839 237.314337 
L 214.857412 237.314337 
z
" style="fill:#1f77b4;opacity:0.5;stroke:#ffffff;stroke-linejoin:miter;"/>
   </g>
   <g id="patch_133">
    <path clip-path="url(#p5cc2d76167)" d="M 222.138839 239.383125 
L 229.420266 239.383125 
L 229.420266 206.282511 
L 222.138839 206.282511 
z
" style="fill:#1f77b4;opacity:0.5;stroke:#ffffff;stroke-linejoin:miter;"/>
   </g>
   <g id="patch_134">
    <path clip-path="url(#p5cc2d76167)" d="M 229.420266 239.383125 
L 236.701692 239.383125 
L 236.701692 160.769168 
L 229.420266 160.769168 
z
" style="fill:#1f77b4;opacity:0.5;stroke:#ffffff;stroke-linejoin:miter;"/>
   </g>
   <g id="patch_135">
    <path clip-path="url(#p5cc2d76167)" d="M 236.701692 239.383125 
L 243.983119 239.383125 
L 243.983119 152.494014 
L 236.701692 152.494014 
z
" style="fill:#1f77b4;opacity:0.5;stroke:#ffffff;stroke-linejoin:miter;"/>
   </g>
   <g id="patch_136">
    <path clip-path="url(#p5cc2d76167)" d="M 243.983119 239.383125 
L 251.264546 239.383125 
L 251.264546 183.525839 
L 243.983119 183.525839 
z
" style="fill:#1f77b4;opacity:0.5;stroke:#ffffff;stroke-linejoin:miter;"/>
   </g>
   <g id="patch_137">
    <path clip-path="url(#p5cc2d76167)" d="M 251.264546 239.383125 
L 258.545972 239.383125 
L 258.545972 210.420088 
L 251.264546 210.420088 
z
" style="fill:#1f77b4;opacity:0.5;stroke:#ffffff;stroke-linejoin:miter;"/>
   </g>
   <g id="patch_138">
    <path clip-path="url(#p5cc2d76167)" d="M 258.545972 239.383125 
L 265.827399 239.383125 
L 265.827399 230.073577 
L 258.545972 230.073577 
z
" style="fill:#1f77b4;opacity:0.5;stroke:#ffffff;stroke-linejoin:miter;"/>
   </g>
   <g id="patch_139">
    <path clip-path="url(#p5cc2d76167)" d="M 265.827399 239.383125 
L 273.108826 239.383125 
L 273.108826 233.17676 
L 265.827399 233.17676 
z
" style="fill:#1f77b4;opacity:0.5;stroke:#ffffff;stroke-linejoin:miter;"/>
   </g>
   <g id="patch_140">
    <path clip-path="url(#p5cc2d76167)" d="M 273.108826 239.383125 
L 280.390253 239.383125 
L 280.390253 236.279942 
L 273.108826 236.279942 
z
" style="fill:#1f77b4;opacity:0.5;stroke:#ffffff;stroke-linejoin:miter;"/>
   </g>
   <g id="patch_141">
    <path clip-path="url(#p5cc2d76167)" d="M 280.390253 239.383125 
L 287.671679 239.383125 
L 287.671679 236.279942 
L 280.390253 236.279942 
z
" style="fill:#1f77b4;opacity:0.5;stroke:#ffffff;stroke-linejoin:miter;"/>
   </g>
   <g id="patch_142">
    <path clip-path="url(#p5cc2d76167)" d="M 287.671679 239.383125 
L 294.953106 239.383125 
L 294.953106 237.314337 
L 287.671679 237.314337 
z
" style="fill:#1f77b4;opacity:0.5;stroke:#ffffff;stroke-linejoin:miter;"/>
   </g>
   <g id="patch_143">
    <path clip-path="url(#p5cc2d76167)" d="M 294.953106 239.383125 
L 302.234533 239.383125 
L 302.234533 239.383125 
L 294.953106 239.383125 
z
" style="fill:#1f77b4;opacity:0.5;stroke:#ffffff;stroke-linejoin:miter;"/>
   </g>
   <g id="patch_144">
    <path clip-path="url(#p5cc2d76167)" d="M 302.234533 239.383125 
L 309.515959 239.383125 
L 309.515959 239.383125 
L 302.234533 239.383125 
z
" style="fill:#1f77b4;opacity:0.5;stroke:#ffffff;stroke-linejoin:miter;"/>
   </g>
   <g id="patch_145">
    <path clip-path="url(#p5cc2d76167)" d="M 309.515959 239.383125 
L 316.797386 239.383125 
L 316.797386 239.383125 
L 309.515959 239.383125 
z
" style="fill:#1f77b4;opacity:0.5;stroke:#ffffff;stroke-linejoin:miter;"/>
   </g>
   <g id="patch_146">
    <path clip-path="url(#p5cc2d76167)" d="M 316.797386 239.383125 
L 324.078813 239.383125 
L 324.078813 239.383125 
L 316.797386 239.383125 
z
" style="fill:#1f77b4;opacity:0.5;stroke:#ffffff;stroke-linejoin:miter;"/>
   </g>
   <g id="patch_147">
    <path clip-path="url(#p5cc2d76167)" d="M 324.078813 239.383125 
L 331.36024 239.383125 
L 331.36024 239.383125 
L 324.078813 239.383125 
z
" style="fill:#1f77b4;opacity:0.5;stroke:#ffffff;stroke-linejoin:miter;"/>
   </g>
   <g id="patch_148">
    <path clip-path="url(#p5cc2d76167)" d="M 331.36024 239.383125 
L 338.641666 239.383125 
L 338.641666 239.383125 
L 331.36024 239.383125 
z
" style="fill:#1f77b4;opacity:0.5;stroke:#ffffff;stroke-linejoin:miter;"/>
   </g>
   <g id="patch_149">
    <path clip-path="url(#p5cc2d76167)" d="M 338.641666 239.383125 
L 345.923093 239.383125 
L 345.923093 239.383125 
L 338.641666 239.383125 
z
" style="fill:#1f77b4;opacity:0.5;stroke:#ffffff;stroke-linejoin:miter;"/>
   </g>
   <g id="patch_150">
    <path clip-path="url(#p5cc2d76167)" d="M 345.923093 239.383125 
L 353.20452 239.383125 
L 353.20452 239.383125 
L 345.923093 239.383125 
z
" style="fill:#1f77b4;opacity:0.5;stroke:#ffffff;stroke-linejoin:miter;"/>
   </g>
   <g id="patch_151">
    <path clip-path="url(#p5cc2d76167)" d="M 214.857412 239.383125 
L 222.138839 239.383125 
L 222.138839 238.348731 
L 214.857412 238.348731 
z
" style="fill:#ff7f0e;opacity:0.5;stroke:#ffffff;stroke-linejoin:miter;"/>
   </g>
   <g id="patch_152">
    <path clip-path="url(#p5cc2d76167)" d="M 222.138839 239.383125 
L 229.420266 239.383125 
L 229.420266 214.557665 
L 222.138839 214.557665 
z
" style="fill:#ff7f0e;opacity:0.5;stroke:#ffffff;stroke-linejoin:miter;"/>
   </g>
   <g id="patch_153">
    <path clip-path="url(#p5cc2d76167)" d="M 229.420266 239.383125 
L 236.701692 239.383125 
L 236.701692 159.734773 
L 229.420266 159.734773 
z
" style="fill:#ff7f0e;opacity:0.5;stroke:#ffffff;stroke-linejoin:miter;"/>
   </g>
   <g id="patch_154">
    <path clip-path="url(#p5cc2d76167)" d="M 236.701692 239.383125 
L 243.983119 239.383125 
L 243.983119 145.253255 
L 236.701692 145.253255 
z
" style="fill:#ff7f0e;opacity:0.5;stroke:#ffffff;stroke-linejoin:miter;"/>
   </g>
   <g id="patch_155">
    <path clip-path="url(#p5cc2d76167)" d="M 243.983119 239.383125 
L 251.264546 239.383125 
L 251.264546 180.422657 
L 243.983119 180.422657 
z
" style="fill:#ff7f0e;opacity:0.5;stroke:#ffffff;stroke-linejoin:miter;"/>
   </g>
   <g id="patch_156">
    <path clip-path="url(#p5cc2d76167)" d="M 251.264546 239.383125 
L 258.545972 239.383125 
L 258.545972 214.557665 
L 251.264546 214.557665 
z
" style="fill:#ff7f0e;opacity:0.5;stroke:#ffffff;stroke-linejoin:miter;"/>
   </g>
   <g id="patch_157">
    <path clip-path="url(#p5cc2d76167)" d="M 258.545972 239.383125 
L 265.827399 239.383125 
L 265.827399 221.798424 
L 258.545972 221.798424 
z
" style="fill:#ff7f0e;opacity:0.5;stroke:#ffffff;stroke-linejoin:miter;"/>
   </g>
   <g id="patch_158">
    <path clip-path="url(#p5cc2d76167)" d="M 265.827399 239.383125 
L 273.108826 239.383125 
L 273.108826 235.245548 
L 265.827399 235.245548 
z
" style="fill:#ff7f0e;opacity:0.5;stroke:#ffffff;stroke-linejoin:miter;"/>
   </g>
   <g id="patch_159">
    <path clip-path="url(#p5cc2d76167)" d="M 273.108826 239.383125 
L 280.390253 239.383125 
L 280.390253 237.314337 
L 273.108826 237.314337 
z
" style="fill:#ff7f0e;opacity:0.5;stroke:#ffffff;stroke-linejoin:miter;"/>
   </g>
   <g id="patch_160">
    <path clip-path="url(#p5cc2d76167)" d="M 280.390253 239.383125 
L 287.671679 239.383125 
L 287.671679 238.348731 
L 280.390253 238.348731 
z
" style="fill:#ff7f0e;opacity:0.5;stroke:#ffffff;stroke-linejoin:miter;"/>
   </g>
   <g id="patch_161">
    <path clip-path="url(#p5cc2d76167)" d="M 287.671679 239.383125 
L 294.953106 239.383125 
L 294.953106 237.314337 
L 287.671679 237.314337 
z
" style="fill:#ff7f0e;opacity:0.5;stroke:#ffffff;stroke-linejoin:miter;"/>
   </g>
   <g id="patch_162">
    <path clip-path="url(#p5cc2d76167)" d="M 294.953106 239.383125 
L 302.234533 239.383125 
L 302.234533 239.383125 
L 294.953106 239.383125 
z
" style="fill:#ff7f0e;opacity:0.5;stroke:#ffffff;stroke-linejoin:miter;"/>
   </g>
   <g id="patch_163">
    <path clip-path="url(#p5cc2d76167)" d="M 302.234533 239.383125 
L 309.515959 239.383125 
L 309.515959 239.383125 
L 302.234533 239.383125 
z
" style="fill:#ff7f0e;opacity:0.5;stroke:#ffffff;stroke-linejoin:miter;"/>
   </g>
   <g id="patch_164">
    <path clip-path="url(#p5cc2d76167)" d="M 309.515959 239.383125 
L 316.797386 239.383125 
L 316.797386 239.383125 
L 309.515959 239.383125 
z
" style="fill:#ff7f0e;opacity:0.5;stroke:#ffffff;stroke-linejoin:miter;"/>
   </g>
   <g id="patch_165">
    <path clip-path="url(#p5cc2d76167)" d="M 316.797386 239.383125 
L 324.078813 239.383125 
L 324.078813 239.383125 
L 316.797386 239.383125 
z
" style="fill:#ff7f0e;opacity:0.5;stroke:#ffffff;stroke-linejoin:miter;"/>
   </g>
   <g id="patch_166">
    <path clip-path="url(#p5cc2d76167)" d="M 324.078813 239.383125 
L 331.36024 239.383125 
L 331.36024 239.383125 
L 324.078813 239.383125 
z
" style="fill:#ff7f0e;opacity:0.5;stroke:#ffffff;stroke-linejoin:miter;"/>
   </g>
   <g id="patch_167">
    <path clip-path="url(#p5cc2d76167)" d="M 331.36024 239.383125 
L 338.641666 239.383125 
L 338.641666 239.383125 
L 331.36024 239.383125 
z
" style="fill:#ff7f0e;opacity:0.5;stroke:#ffffff;stroke-linejoin:miter;"/>
   </g>
   <g id="patch_168">
    <path clip-path="url(#p5cc2d76167)" d="M 338.641666 239.383125 
L 345.923093 239.383125 
L 345.923093 239.383125 
L 338.641666 239.383125 
z
" style="fill:#ff7f0e;opacity:0.5;stroke:#ffffff;stroke-linejoin:miter;"/>
   </g>
   <g id="patch_169">
    <path clip-path="url(#p5cc2d76167)" d="M 345.923093 239.383125 
L 353.20452 239.383125 
L 353.20452 239.383125 
L 345.923093 239.383125 
z
" style="fill:#ff7f0e;opacity:0.5;stroke:#ffffff;stroke-linejoin:miter;"/>
   </g>
   <g id="patch_170">
    <path d="M 207.940057 239.383125 
L 207.940057 140.546761 
" style="fill:none;stroke:#ffffff;stroke-linecap:square;stroke-linejoin:miter;stroke-width:0.8;"/>
   </g>
   <g id="patch_171">
    <path d="M 360.121875 239.383125 
L 360.121875 140.546761 
" style="fill:none;stroke:#ffffff;stroke-linecap:square;stroke-linejoin:miter;stroke-width:0.8;"/>
   </g>
   <g id="patch_172">
    <path d="M 207.940057 239.383125 
L 360.121875 239.383125 
" style="fill:none;stroke:#ffffff;stroke-linecap:square;stroke-linejoin:miter;stroke-width:0.8;"/>
   </g>
   <g id="patch_173">
    <path d="M 207.940057 140.546761 
L 360.121875 140.546761 
" style="fill:none;stroke:#ffffff;stroke-linecap:square;stroke-linejoin:miter;stroke-width:0.8;"/>
   </g>
   <g id="text_22">
    <!-- Exploitative Nature of Agriculture -->
    <g style="fill:#262626;" transform="translate(196.990653 134.546761)scale(0.12 -0.12)">
     <defs>
      <path d="M 506 0 
L 506 4581 
L 3819 4581 
L 3819 4041 
L 1113 4041 
L 1113 2638 
L 3647 2638 
L 3647 2100 
L 1113 2100 
L 1113 541 
L 3925 541 
L 3925 0 
L 506 0 
z
" id="ArialMT-45" transform="scale(0.015625)"/>
      <path d="M 47 0 
L 1259 1725 
L 138 3319 
L 841 3319 
L 1350 2541 
Q 1494 2319 1581 2169 
Q 1719 2375 1834 2534 
L 2394 3319 
L 3066 3319 
L 1919 1756 
L 3153 0 
L 2463 0 
L 1781 1031 
L 1600 1309 
L 728 0 
L 47 0 
z
" id="ArialMT-78" transform="scale(0.015625)"/>
      <path d="M 422 -1272 
L 422 3319 
L 934 3319 
L 934 2888 
Q 1116 3141 1344 3267 
Q 1572 3394 1897 3394 
Q 2322 3394 2647 3175 
Q 2972 2956 3137 2557 
Q 3303 2159 3303 1684 
Q 3303 1175 3120 767 
Q 2938 359 2589 142 
Q 2241 -75 1856 -75 
Q 1575 -75 1351 44 
Q 1128 163 984 344 
L 984 -1272 
L 422 -1272 
z
M 931 1641 
Q 931 1000 1190 694 
Q 1450 388 1819 388 
Q 2194 388 2461 705 
Q 2728 1022 2728 1688 
Q 2728 2322 2467 2637 
Q 2206 2953 1844 2953 
Q 1484 2953 1207 2617 
Q 931 2281 931 1641 
z
" id="ArialMT-70" transform="scale(0.015625)"/>
      <path d="M 488 0 
L 488 4581 
L 1109 4581 
L 3516 984 
L 3516 4581 
L 4097 4581 
L 4097 0 
L 3475 0 
L 1069 3600 
L 1069 0 
L 488 0 
z
" id="ArialMT-4e" transform="scale(0.015625)"/>
     </defs>
     <use xlink:href="#ArialMT-45"/>
     <use x="66.699219" xlink:href="#ArialMT-78"/>
     <use x="116.699219" xlink:href="#ArialMT-70"/>
     <use x="172.314453" xlink:href="#ArialMT-6c"/>
     <use x="194.53125" xlink:href="#ArialMT-6f"/>
     <use x="250.146484" xlink:href="#ArialMT-69"/>
     <use x="272.363281" xlink:href="#ArialMT-74"/>
     <use x="300.146484" xlink:href="#ArialMT-61"/>
     <use x="355.761719" xlink:href="#ArialMT-74"/>
     <use x="383.544922" xlink:href="#ArialMT-69"/>
     <use x="405.761719" xlink:href="#ArialMT-76"/>
     <use x="455.761719" xlink:href="#ArialMT-65"/>
     <use x="511.376953" xlink:href="#ArialMT-20"/>
     <use x="539.160156" xlink:href="#ArialMT-4e"/>
     <use x="611.376953" xlink:href="#ArialMT-61"/>
     <use x="666.992188" xlink:href="#ArialMT-74"/>
     <use x="694.775391" xlink:href="#ArialMT-75"/>
     <use x="750.390625" xlink:href="#ArialMT-72"/>
     <use x="783.691406" xlink:href="#ArialMT-65"/>
     <use x="839.306641" xlink:href="#ArialMT-20"/>
     <use x="867.089844" xlink:href="#ArialMT-6f"/>
     <use x="922.705078" xlink:href="#ArialMT-66"/>
     <use x="950.488281" xlink:href="#ArialMT-20"/>
     <use x="972.771484" xlink:href="#ArialMT-41"/>
     <use x="1039.470703" xlink:href="#ArialMT-67"/>
     <use x="1095.085938" xlink:href="#ArialMT-72"/>
     <use x="1128.386719" xlink:href="#ArialMT-69"/>
     <use x="1150.603516" xlink:href="#ArialMT-63"/>
     <use x="1200.603516" xlink:href="#ArialMT-75"/>
     <use x="1256.21875" xlink:href="#ArialMT-6c"/>
     <use x="1278.435547" xlink:href="#ArialMT-74"/>
     <use x="1306.21875" xlink:href="#ArialMT-75"/>
     <use x="1361.833984" xlink:href="#ArialMT-72"/>
     <use x="1395.134766" xlink:href="#ArialMT-65"/>
    </g>
   </g>
  </g>
 </g>
 <defs>
  <clipPath id="p87f98bd099">
   <rect height="98.836364" width="152.181818" x="25.321875" y="21.943125"/>
  </clipPath>
  <clipPath id="p9262ed4bf4">
   <rect height="98.836364" width="152.181818" x="207.940057" y="21.943125"/>
  </clipPath>
  <clipPath id="p56360e0c3c">
   <rect height="98.836364" width="152.181818" x="25.321875" y="140.546761"/>
  </clipPath>
  <clipPath id="p5cc2d76167">
   <rect height="98.836364" width="152.181818" x="207.940057" y="140.546761"/>
  </clipPath>
 </defs>
</svg>
