<?xml version="1.0" encoding="utf-8" standalone="no"?>
<!DOCTYPE svg PUBLIC "-//W3C//DTD SVG 1.1//EN"
  "http://www.w3.org/Graphics/SVG/1.1/DTD/svg11.dtd">
<svg height="389.906638pt" version="1.1" viewBox="0 0 904.52375 389.906638" width="904.52375pt" xmlns="http://www.w3.org/2000/svg" xmlns:xlink="http://www.w3.org/1999/xlink">
 <metadata>
  <rdf:RDF xmlns:cc="http://creativecommons.org/ns#" xmlns:dc="http://purl.org/dc/elements/1.1/" xmlns:rdf="http://www.w3.org/1999/02/22-rdf-syntax-ns#">
   <cc:Work>
    <dc:type rdf:resource="http://purl.org/dc/dcmitype/StillImage"/>
    <dc:date>2022-10-07T16:15:55.545218</dc:date>
    <dc:format>image/svg+xml</dc:format>
    <dc:creator>
     <cc:Agent>
      <dc:title>Matplotlib v3.4.2, https://matplotlib.org/</dc:title>
     </cc:Agent>
    </dc:creator>
   </cc:Work>
  </rdf:RDF>
 </metadata>
 <defs>
  <style type="text/css">*{stroke-linecap:butt;stroke-linejoin:round;}</style>
 </defs>
 <g id="figure_1">
  <g id="patch_1">
   <path d="M 0 389.906638 
L 904.52375 389.906638 
L 904.52375 0 
L 0 0 
z
" style="fill:#ffffff;"/>
  </g>
  <g id="axes_1">
   <g id="patch_2">
    <path d="M 60.32375 296.6475 
L 306.500221 296.6475 
L 306.500221 24.8475 
L 60.32375 24.8475 
z
" style="fill:#eaeaf2;"/>
   </g>
   <g id="matplotlib.axis_1">
    <g id="xtick_1">
     <g id="line2d_1">
      <path clip-path="url(#p49bf7f9733)" d="M 121.24621 296.6475 
L 121.24621 24.8475 
" style="fill:none;stroke:#ffffff;stroke-linecap:round;stroke-width:0.8;"/>
     </g>
     <g id="text_1">
      <!-- Irrigation/water districts -->
      <g style="fill:#262626;" transform="translate(31.165101 361.352676)rotate(-30)scale(0.1 -0.1)">
       <defs>
        <path d="M 597 0 
L 597 4581 
L 1203 4581 
L 1203 0 
L 597 0 
z
" id="ArialMT-49" transform="scale(0.015625)"/>
        <path d="M 416 0 
L 416 3319 
L 922 3319 
L 922 2816 
Q 1116 3169 1280 3281 
Q 1444 3394 1641 3394 
Q 1925 3394 2219 3213 
L 2025 2691 
Q 1819 2813 1613 2813 
Q 1428 2813 1281 2702 
Q 1134 2591 1072 2394 
Q 978 2094 978 1738 
L 978 0 
L 416 0 
z
" id="ArialMT-72" transform="scale(0.015625)"/>
        <path d="M 425 3934 
L 425 4581 
L 988 4581 
L 988 3934 
L 425 3934 
z
M 425 0 
L 425 3319 
L 988 3319 
L 988 0 
L 425 0 
z
" id="ArialMT-69" transform="scale(0.015625)"/>
        <path d="M 319 -275 
L 866 -356 
Q 900 -609 1056 -725 
Q 1266 -881 1628 -881 
Q 2019 -881 2231 -725 
Q 2444 -569 2519 -288 
Q 2563 -116 2559 434 
Q 2191 0 1641 0 
Q 956 0 581 494 
Q 206 988 206 1678 
Q 206 2153 378 2554 
Q 550 2956 876 3175 
Q 1203 3394 1644 3394 
Q 2231 3394 2613 2919 
L 2613 3319 
L 3131 3319 
L 3131 450 
Q 3131 -325 2973 -648 
Q 2816 -972 2473 -1159 
Q 2131 -1347 1631 -1347 
Q 1038 -1347 672 -1080 
Q 306 -813 319 -275 
z
M 784 1719 
Q 784 1066 1043 766 
Q 1303 466 1694 466 
Q 2081 466 2343 764 
Q 2606 1063 2606 1700 
Q 2606 2309 2336 2618 
Q 2066 2928 1684 2928 
Q 1309 2928 1046 2623 
Q 784 2319 784 1719 
z
" id="ArialMT-67" transform="scale(0.015625)"/>
        <path d="M 2588 409 
Q 2275 144 1986 34 
Q 1697 -75 1366 -75 
Q 819 -75 525 192 
Q 231 459 231 875 
Q 231 1119 342 1320 
Q 453 1522 633 1644 
Q 813 1766 1038 1828 
Q 1203 1872 1538 1913 
Q 2219 1994 2541 2106 
Q 2544 2222 2544 2253 
Q 2544 2597 2384 2738 
Q 2169 2928 1744 2928 
Q 1347 2928 1158 2789 
Q 969 2650 878 2297 
L 328 2372 
Q 403 2725 575 2942 
Q 747 3159 1072 3276 
Q 1397 3394 1825 3394 
Q 2250 3394 2515 3294 
Q 2781 3194 2906 3042 
Q 3031 2891 3081 2659 
Q 3109 2516 3109 2141 
L 3109 1391 
Q 3109 606 3145 398 
Q 3181 191 3288 0 
L 2700 0 
Q 2613 175 2588 409 
z
M 2541 1666 
Q 2234 1541 1622 1453 
Q 1275 1403 1131 1340 
Q 988 1278 909 1158 
Q 831 1038 831 891 
Q 831 666 1001 516 
Q 1172 366 1500 366 
Q 1825 366 2078 508 
Q 2331 650 2450 897 
Q 2541 1088 2541 1459 
L 2541 1666 
z
" id="ArialMT-61" transform="scale(0.015625)"/>
        <path d="M 1650 503 
L 1731 6 
Q 1494 -44 1306 -44 
Q 1000 -44 831 53 
Q 663 150 594 308 
Q 525 466 525 972 
L 525 2881 
L 113 2881 
L 113 3319 
L 525 3319 
L 525 4141 
L 1084 4478 
L 1084 3319 
L 1650 3319 
L 1650 2881 
L 1084 2881 
L 1084 941 
Q 1084 700 1114 631 
Q 1144 563 1211 522 
Q 1278 481 1403 481 
Q 1497 481 1650 503 
z
" id="ArialMT-74" transform="scale(0.015625)"/>
        <path d="M 213 1659 
Q 213 2581 725 3025 
Q 1153 3394 1769 3394 
Q 2453 3394 2887 2945 
Q 3322 2497 3322 1706 
Q 3322 1066 3130 698 
Q 2938 331 2570 128 
Q 2203 -75 1769 -75 
Q 1072 -75 642 372 
Q 213 819 213 1659 
z
M 791 1659 
Q 791 1022 1069 705 
Q 1347 388 1769 388 
Q 2188 388 2466 706 
Q 2744 1025 2744 1678 
Q 2744 2294 2464 2611 
Q 2184 2928 1769 2928 
Q 1347 2928 1069 2612 
Q 791 2297 791 1659 
z
" id="ArialMT-6f" transform="scale(0.015625)"/>
        <path d="M 422 0 
L 422 3319 
L 928 3319 
L 928 2847 
Q 1294 3394 1984 3394 
Q 2284 3394 2536 3286 
Q 2788 3178 2913 3003 
Q 3038 2828 3088 2588 
Q 3119 2431 3119 2041 
L 3119 0 
L 2556 0 
L 2556 2019 
Q 2556 2363 2490 2533 
Q 2425 2703 2258 2804 
Q 2091 2906 1866 2906 
Q 1506 2906 1245 2678 
Q 984 2450 984 1813 
L 984 0 
L 422 0 
z
" id="ArialMT-6e" transform="scale(0.015625)"/>
        <path d="M 0 -78 
L 1328 4659 
L 1778 4659 
L 453 -78 
L 0 -78 
z
" id="ArialMT-2f" transform="scale(0.015625)"/>
        <path d="M 1034 0 
L 19 3319 
L 600 3319 
L 1128 1403 
L 1325 691 
Q 1338 744 1497 1375 
L 2025 3319 
L 2603 3319 
L 3100 1394 
L 3266 759 
L 3456 1400 
L 4025 3319 
L 4572 3319 
L 3534 0 
L 2950 0 
L 2422 1988 
L 2294 2553 
L 1622 0 
L 1034 0 
z
" id="ArialMT-77" transform="scale(0.015625)"/>
        <path d="M 2694 1069 
L 3275 997 
Q 3138 488 2766 206 
Q 2394 -75 1816 -75 
Q 1088 -75 661 373 
Q 234 822 234 1631 
Q 234 2469 665 2931 
Q 1097 3394 1784 3394 
Q 2450 3394 2872 2941 
Q 3294 2488 3294 1666 
Q 3294 1616 3291 1516 
L 816 1516 
Q 847 969 1125 678 
Q 1403 388 1819 388 
Q 2128 388 2347 550 
Q 2566 713 2694 1069 
z
M 847 1978 
L 2700 1978 
Q 2663 2397 2488 2606 
Q 2219 2931 1791 2931 
Q 1403 2931 1139 2672 
Q 875 2413 847 1978 
z
" id="ArialMT-65" transform="scale(0.015625)"/>
        <path id="ArialMT-20" transform="scale(0.015625)"/>
        <path d="M 2575 0 
L 2575 419 
Q 2259 -75 1647 -75 
Q 1250 -75 917 144 
Q 584 363 401 755 
Q 219 1147 219 1656 
Q 219 2153 384 2558 
Q 550 2963 881 3178 
Q 1213 3394 1622 3394 
Q 1922 3394 2156 3267 
Q 2391 3141 2538 2938 
L 2538 4581 
L 3097 4581 
L 3097 0 
L 2575 0 
z
M 797 1656 
Q 797 1019 1065 703 
Q 1334 388 1700 388 
Q 2069 388 2326 689 
Q 2584 991 2584 1609 
Q 2584 2291 2321 2609 
Q 2059 2928 1675 2928 
Q 1300 2928 1048 2622 
Q 797 2316 797 1656 
z
" id="ArialMT-64" transform="scale(0.015625)"/>
        <path d="M 197 991 
L 753 1078 
Q 800 744 1014 566 
Q 1228 388 1613 388 
Q 2000 388 2187 545 
Q 2375 703 2375 916 
Q 2375 1106 2209 1216 
Q 2094 1291 1634 1406 
Q 1016 1563 777 1677 
Q 538 1791 414 1992 
Q 291 2194 291 2438 
Q 291 2659 392 2848 
Q 494 3038 669 3163 
Q 800 3259 1026 3326 
Q 1253 3394 1513 3394 
Q 1903 3394 2198 3281 
Q 2494 3169 2634 2976 
Q 2775 2784 2828 2463 
L 2278 2388 
Q 2241 2644 2061 2787 
Q 1881 2931 1553 2931 
Q 1166 2931 1000 2803 
Q 834 2675 834 2503 
Q 834 2394 903 2306 
Q 972 2216 1119 2156 
Q 1203 2125 1616 2013 
Q 2213 1853 2448 1751 
Q 2684 1650 2818 1456 
Q 2953 1263 2953 975 
Q 2953 694 2789 445 
Q 2625 197 2315 61 
Q 2006 -75 1616 -75 
Q 969 -75 630 194 
Q 291 463 197 991 
z
" id="ArialMT-73" transform="scale(0.015625)"/>
        <path d="M 2588 1216 
L 3141 1144 
Q 3050 572 2676 248 
Q 2303 -75 1759 -75 
Q 1078 -75 664 370 
Q 250 816 250 1647 
Q 250 2184 428 2587 
Q 606 2991 970 3192 
Q 1334 3394 1763 3394 
Q 2303 3394 2647 3120 
Q 2991 2847 3088 2344 
L 2541 2259 
Q 2463 2594 2264 2762 
Q 2066 2931 1784 2931 
Q 1359 2931 1093 2626 
Q 828 2322 828 1663 
Q 828 994 1084 691 
Q 1341 388 1753 388 
Q 2084 388 2306 591 
Q 2528 794 2588 1216 
z
" id="ArialMT-63" transform="scale(0.015625)"/>
       </defs>
       <use xlink:href="#ArialMT-49"/>
       <use x="27.783203" xlink:href="#ArialMT-72"/>
       <use x="61.083984" xlink:href="#ArialMT-72"/>
       <use x="94.384766" xlink:href="#ArialMT-69"/>
       <use x="116.601562" xlink:href="#ArialMT-67"/>
       <use x="172.216797" xlink:href="#ArialMT-61"/>
       <use x="227.832031" xlink:href="#ArialMT-74"/>
       <use x="255.615234" xlink:href="#ArialMT-69"/>
       <use x="277.832031" xlink:href="#ArialMT-6f"/>
       <use x="333.447266" xlink:href="#ArialMT-6e"/>
       <use x="389.0625" xlink:href="#ArialMT-2f"/>
       <use x="416.845703" xlink:href="#ArialMT-77"/>
       <use x="489.0625" xlink:href="#ArialMT-61"/>
       <use x="544.677734" xlink:href="#ArialMT-74"/>
       <use x="572.460938" xlink:href="#ArialMT-65"/>
       <use x="628.076172" xlink:href="#ArialMT-72"/>
       <use x="661.376953" xlink:href="#ArialMT-20"/>
       <use x="689.160156" xlink:href="#ArialMT-64"/>
       <use x="744.775391" xlink:href="#ArialMT-69"/>
       <use x="766.992188" xlink:href="#ArialMT-73"/>
       <use x="816.992188" xlink:href="#ArialMT-74"/>
       <use x="844.775391" xlink:href="#ArialMT-72"/>
       <use x="878.076172" xlink:href="#ArialMT-69"/>
       <use x="900.292969" xlink:href="#ArialMT-63"/>
       <use x="950.292969" xlink:href="#ArialMT-74"/>
       <use x="978.076172" xlink:href="#ArialMT-73"/>
      </g>
     </g>
    </g>
    <g id="xtick_2">
     <g id="line2d_2">
      <path clip-path="url(#p49bf7f9733)" d="M 245.577761 296.6475 
L 245.577761 24.8475 
" style="fill:none;stroke:#ffffff;stroke-linecap:round;stroke-width:0.8;"/>
     </g>
     <g id="text_2">
      <!-- Water Rights Division (SWRCB) -->
      <g style="fill:#262626;" transform="translate(121.667535 380.883926)rotate(-30)scale(0.1 -0.1)">
       <defs>
        <path d="M 1294 0 
L 78 4581 
L 700 4581 
L 1397 1578 
Q 1509 1106 1591 641 
Q 1766 1375 1797 1488 
L 2669 4581 
L 3400 4581 
L 4056 2263 
Q 4303 1400 4413 641 
Q 4500 1075 4641 1638 
L 5359 4581 
L 5969 4581 
L 4713 0 
L 4128 0 
L 3163 3491 
Q 3041 3928 3019 4028 
Q 2947 3713 2884 3491 
L 1913 0 
L 1294 0 
z
" id="ArialMT-57" transform="scale(0.015625)"/>
        <path d="M 503 0 
L 503 4581 
L 2534 4581 
Q 3147 4581 3465 4457 
Q 3784 4334 3975 4021 
Q 4166 3709 4166 3331 
Q 4166 2844 3850 2509 
Q 3534 2175 2875 2084 
Q 3116 1969 3241 1856 
Q 3506 1613 3744 1247 
L 4541 0 
L 3778 0 
L 3172 953 
Q 2906 1366 2734 1584 
Q 2563 1803 2427 1890 
Q 2291 1978 2150 2013 
Q 2047 2034 1813 2034 
L 1109 2034 
L 1109 0 
L 503 0 
z
M 1109 2559 
L 2413 2559 
Q 2828 2559 3062 2645 
Q 3297 2731 3419 2920 
Q 3541 3109 3541 3331 
Q 3541 3656 3305 3865 
Q 3069 4075 2559 4075 
L 1109 4075 
L 1109 2559 
z
" id="ArialMT-52" transform="scale(0.015625)"/>
        <path d="M 422 0 
L 422 4581 
L 984 4581 
L 984 2938 
Q 1378 3394 1978 3394 
Q 2347 3394 2619 3248 
Q 2891 3103 3008 2847 
Q 3125 2591 3125 2103 
L 3125 0 
L 2563 0 
L 2563 2103 
Q 2563 2525 2380 2717 
Q 2197 2909 1863 2909 
Q 1613 2909 1392 2779 
Q 1172 2650 1078 2428 
Q 984 2206 984 1816 
L 984 0 
L 422 0 
z
" id="ArialMT-68" transform="scale(0.015625)"/>
        <path d="M 494 0 
L 494 4581 
L 2072 4581 
Q 2606 4581 2888 4516 
Q 3281 4425 3559 4188 
Q 3922 3881 4101 3404 
Q 4281 2928 4281 2316 
Q 4281 1794 4159 1391 
Q 4038 988 3847 723 
Q 3656 459 3429 307 
Q 3203 156 2883 78 
Q 2563 0 2147 0 
L 494 0 
z
M 1100 541 
L 2078 541 
Q 2531 541 2789 625 
Q 3047 709 3200 863 
Q 3416 1078 3536 1442 
Q 3656 1806 3656 2325 
Q 3656 3044 3420 3430 
Q 3184 3816 2847 3947 
Q 2603 4041 2063 4041 
L 1100 4041 
L 1100 541 
z
" id="ArialMT-44" transform="scale(0.015625)"/>
        <path d="M 1344 0 
L 81 3319 
L 675 3319 
L 1388 1331 
Q 1503 1009 1600 663 
Q 1675 925 1809 1294 
L 2547 3319 
L 3125 3319 
L 1869 0 
L 1344 0 
z
" id="ArialMT-76" transform="scale(0.015625)"/>
        <path d="M 1497 -1347 
Q 1031 -759 709 28 
Q 388 816 388 1659 
Q 388 2403 628 3084 
Q 909 3875 1497 4659 
L 1900 4659 
Q 1522 4009 1400 3731 
Q 1209 3300 1100 2831 
Q 966 2247 966 1656 
Q 966 153 1900 -1347 
L 1497 -1347 
z
" id="ArialMT-28" transform="scale(0.015625)"/>
        <path d="M 288 1472 
L 859 1522 
Q 900 1178 1048 958 
Q 1197 738 1509 602 
Q 1822 466 2213 466 
Q 2559 466 2825 569 
Q 3091 672 3220 851 
Q 3350 1031 3350 1244 
Q 3350 1459 3225 1620 
Q 3100 1781 2813 1891 
Q 2628 1963 1997 2114 
Q 1366 2266 1113 2400 
Q 784 2572 623 2826 
Q 463 3081 463 3397 
Q 463 3744 659 4045 
Q 856 4347 1234 4503 
Q 1613 4659 2075 4659 
Q 2584 4659 2973 4495 
Q 3363 4331 3572 4012 
Q 3781 3694 3797 3291 
L 3216 3247 
Q 3169 3681 2898 3903 
Q 2628 4125 2100 4125 
Q 1550 4125 1298 3923 
Q 1047 3722 1047 3438 
Q 1047 3191 1225 3031 
Q 1400 2872 2139 2705 
Q 2878 2538 3153 2413 
Q 3553 2228 3743 1945 
Q 3934 1663 3934 1294 
Q 3934 928 3725 604 
Q 3516 281 3123 101 
Q 2731 -78 2241 -78 
Q 1619 -78 1198 103 
Q 778 284 539 648 
Q 300 1013 288 1472 
z
" id="ArialMT-53" transform="scale(0.015625)"/>
        <path d="M 3763 1606 
L 4369 1453 
Q 4178 706 3683 314 
Q 3188 -78 2472 -78 
Q 1731 -78 1267 223 
Q 803 525 561 1097 
Q 319 1669 319 2325 
Q 319 3041 592 3573 
Q 866 4106 1370 4382 
Q 1875 4659 2481 4659 
Q 3169 4659 3637 4309 
Q 4106 3959 4291 3325 
L 3694 3184 
Q 3534 3684 3231 3912 
Q 2928 4141 2469 4141 
Q 1941 4141 1586 3887 
Q 1231 3634 1087 3207 
Q 944 2781 944 2328 
Q 944 1744 1114 1308 
Q 1284 872 1643 656 
Q 2003 441 2422 441 
Q 2931 441 3284 734 
Q 3638 1028 3763 1606 
z
" id="ArialMT-43" transform="scale(0.015625)"/>
        <path d="M 469 0 
L 469 4581 
L 2188 4581 
Q 2713 4581 3030 4442 
Q 3347 4303 3526 4014 
Q 3706 3725 3706 3409 
Q 3706 3116 3547 2856 
Q 3388 2597 3066 2438 
Q 3481 2316 3704 2022 
Q 3928 1728 3928 1328 
Q 3928 1006 3792 729 
Q 3656 453 3456 303 
Q 3256 153 2954 76 
Q 2653 0 2216 0 
L 469 0 
z
M 1075 2656 
L 2066 2656 
Q 2469 2656 2644 2709 
Q 2875 2778 2992 2937 
Q 3109 3097 3109 3338 
Q 3109 3566 3000 3739 
Q 2891 3913 2687 3977 
Q 2484 4041 1991 4041 
L 1075 4041 
L 1075 2656 
z
M 1075 541 
L 2216 541 
Q 2509 541 2628 563 
Q 2838 600 2978 687 
Q 3119 775 3209 942 
Q 3300 1109 3300 1328 
Q 3300 1584 3169 1773 
Q 3038 1963 2805 2039 
Q 2572 2116 2134 2116 
L 1075 2116 
L 1075 541 
z
" id="ArialMT-42" transform="scale(0.015625)"/>
        <path d="M 791 -1347 
L 388 -1347 
Q 1322 153 1322 1656 
Q 1322 2244 1188 2822 
Q 1081 3291 891 3722 
Q 769 4003 388 4659 
L 791 4659 
Q 1378 3875 1659 3084 
Q 1900 2403 1900 1659 
Q 1900 816 1576 28 
Q 1253 -759 791 -1347 
z
" id="ArialMT-29" transform="scale(0.015625)"/>
       </defs>
       <use xlink:href="#ArialMT-57"/>
       <use x="90.634766" xlink:href="#ArialMT-61"/>
       <use x="146.25" xlink:href="#ArialMT-74"/>
       <use x="174.033203" xlink:href="#ArialMT-65"/>
       <use x="229.648438" xlink:href="#ArialMT-72"/>
       <use x="262.949219" xlink:href="#ArialMT-20"/>
       <use x="290.732422" xlink:href="#ArialMT-52"/>
       <use x="362.949219" xlink:href="#ArialMT-69"/>
       <use x="385.166016" xlink:href="#ArialMT-67"/>
       <use x="440.78125" xlink:href="#ArialMT-68"/>
       <use x="496.396484" xlink:href="#ArialMT-74"/>
       <use x="524.179688" xlink:href="#ArialMT-73"/>
       <use x="574.179688" xlink:href="#ArialMT-20"/>
       <use x="601.962891" xlink:href="#ArialMT-44"/>
       <use x="674.179688" xlink:href="#ArialMT-69"/>
       <use x="696.396484" xlink:href="#ArialMT-76"/>
       <use x="746.396484" xlink:href="#ArialMT-69"/>
       <use x="768.613281" xlink:href="#ArialMT-73"/>
       <use x="818.613281" xlink:href="#ArialMT-69"/>
       <use x="840.830078" xlink:href="#ArialMT-6f"/>
       <use x="896.445312" xlink:href="#ArialMT-6e"/>
       <use x="952.060547" xlink:href="#ArialMT-20"/>
       <use x="979.84375" xlink:href="#ArialMT-28"/>
       <use x="1013.144531" xlink:href="#ArialMT-53"/>
       <use x="1079.84375" xlink:href="#ArialMT-57"/>
       <use x="1174.228516" xlink:href="#ArialMT-52"/>
       <use x="1246.445312" xlink:href="#ArialMT-43"/>
       <use x="1318.662109" xlink:href="#ArialMT-42"/>
       <use x="1385.361328" xlink:href="#ArialMT-29"/>
      </g>
     </g>
    </g>
   </g>
   <g id="matplotlib.axis_2">
    <g id="ytick_1">
     <g id="line2d_3">
      <path clip-path="url(#p49bf7f9733)" d="M 60.32375 270.596216 
L 306.500221 270.596216 
" style="fill:none;stroke:#ffffff;stroke-linecap:round;stroke-width:0.8;"/>
     </g>
     <g id="text_3">
      <!-- −0.010 -->
      <g style="fill:#262626;" transform="translate(22.46125 274.175122)scale(0.1 -0.1)">
       <defs>
        <path d="M 3381 1997 
L 356 1997 
L 356 2522 
L 3381 2522 
L 3381 1997 
z
" id="ArialMT-2212" transform="scale(0.015625)"/>
        <path d="M 266 2259 
Q 266 3072 433 3567 
Q 600 4063 929 4331 
Q 1259 4600 1759 4600 
Q 2128 4600 2406 4451 
Q 2684 4303 2865 4023 
Q 3047 3744 3150 3342 
Q 3253 2941 3253 2259 
Q 3253 1453 3087 958 
Q 2922 463 2592 192 
Q 2263 -78 1759 -78 
Q 1097 -78 719 397 
Q 266 969 266 2259 
z
M 844 2259 
Q 844 1131 1108 757 
Q 1372 384 1759 384 
Q 2147 384 2411 759 
Q 2675 1134 2675 2259 
Q 2675 3391 2411 3762 
Q 2147 4134 1753 4134 
Q 1366 4134 1134 3806 
Q 844 3388 844 2259 
z
" id="ArialMT-30" transform="scale(0.015625)"/>
        <path d="M 581 0 
L 581 641 
L 1222 641 
L 1222 0 
L 581 0 
z
" id="ArialMT-2e" transform="scale(0.015625)"/>
        <path d="M 2384 0 
L 1822 0 
L 1822 3584 
Q 1619 3391 1289 3197 
Q 959 3003 697 2906 
L 697 3450 
Q 1169 3672 1522 3987 
Q 1875 4303 2022 4600 
L 2384 4600 
L 2384 0 
z
" id="ArialMT-31" transform="scale(0.015625)"/>
       </defs>
       <use xlink:href="#ArialMT-2212"/>
       <use x="58.398438" xlink:href="#ArialMT-30"/>
       <use x="114.013672" xlink:href="#ArialMT-2e"/>
       <use x="141.796875" xlink:href="#ArialMT-30"/>
       <use x="197.412109" xlink:href="#ArialMT-31"/>
       <use x="253.027344" xlink:href="#ArialMT-30"/>
      </g>
     </g>
    </g>
    <g id="ytick_2">
     <g id="line2d_4">
      <path clip-path="url(#p49bf7f9733)" d="M 60.32375 235.71525 
L 306.500221 235.71525 
" style="fill:none;stroke:#ffffff;stroke-linecap:round;stroke-width:0.8;"/>
     </g>
     <g id="text_4">
      <!-- −0.005 -->
      <g style="fill:#262626;" transform="translate(22.46125 239.294157)scale(0.1 -0.1)">
       <defs>
        <path d="M 266 1200 
L 856 1250 
Q 922 819 1161 601 
Q 1400 384 1738 384 
Q 2144 384 2425 690 
Q 2706 997 2706 1503 
Q 2706 1984 2436 2262 
Q 2166 2541 1728 2541 
Q 1456 2541 1237 2417 
Q 1019 2294 894 2097 
L 366 2166 
L 809 4519 
L 3088 4519 
L 3088 3981 
L 1259 3981 
L 1013 2750 
Q 1425 3038 1878 3038 
Q 2478 3038 2890 2622 
Q 3303 2206 3303 1553 
Q 3303 931 2941 478 
Q 2500 -78 1738 -78 
Q 1113 -78 717 272 
Q 322 622 266 1200 
z
" id="ArialMT-35" transform="scale(0.015625)"/>
       </defs>
       <use xlink:href="#ArialMT-2212"/>
       <use x="58.398438" xlink:href="#ArialMT-30"/>
       <use x="114.013672" xlink:href="#ArialMT-2e"/>
       <use x="141.796875" xlink:href="#ArialMT-30"/>
       <use x="197.412109" xlink:href="#ArialMT-30"/>
       <use x="253.027344" xlink:href="#ArialMT-35"/>
      </g>
     </g>
    </g>
    <g id="ytick_3">
     <g id="line2d_5">
      <path clip-path="url(#p49bf7f9733)" d="M 60.32375 200.834285 
L 306.500221 200.834285 
" style="fill:none;stroke:#ffffff;stroke-linecap:round;stroke-width:0.8;"/>
     </g>
     <g id="text_5">
      <!-- 0.000 -->
      <g style="fill:#262626;" transform="translate(28.301875 204.413191)scale(0.1 -0.1)">
       <use xlink:href="#ArialMT-30"/>
       <use x="55.615234" xlink:href="#ArialMT-2e"/>
       <use x="83.398438" xlink:href="#ArialMT-30"/>
       <use x="139.013672" xlink:href="#ArialMT-30"/>
       <use x="194.628906" xlink:href="#ArialMT-30"/>
      </g>
     </g>
    </g>
    <g id="ytick_4">
     <g id="line2d_6">
      <path clip-path="url(#p49bf7f9733)" d="M 60.32375 165.953319 
L 306.500221 165.953319 
" style="fill:none;stroke:#ffffff;stroke-linecap:round;stroke-width:0.8;"/>
     </g>
     <g id="text_6">
      <!-- 0.005 -->
      <g style="fill:#262626;" transform="translate(28.301875 169.532226)scale(0.1 -0.1)">
       <use xlink:href="#ArialMT-30"/>
       <use x="55.615234" xlink:href="#ArialMT-2e"/>
       <use x="83.398438" xlink:href="#ArialMT-30"/>
       <use x="139.013672" xlink:href="#ArialMT-30"/>
       <use x="194.628906" xlink:href="#ArialMT-35"/>
      </g>
     </g>
    </g>
    <g id="ytick_5">
     <g id="line2d_7">
      <path clip-path="url(#p49bf7f9733)" d="M 60.32375 131.072354 
L 306.500221 131.072354 
" style="fill:none;stroke:#ffffff;stroke-linecap:round;stroke-width:0.8;"/>
     </g>
     <g id="text_7">
      <!-- 0.010 -->
      <g style="fill:#262626;" transform="translate(28.301875 134.65126)scale(0.1 -0.1)">
       <use xlink:href="#ArialMT-30"/>
       <use x="55.615234" xlink:href="#ArialMT-2e"/>
       <use x="83.398438" xlink:href="#ArialMT-30"/>
       <use x="139.013672" xlink:href="#ArialMT-31"/>
       <use x="194.628906" xlink:href="#ArialMT-30"/>
      </g>
     </g>
    </g>
    <g id="ytick_6">
     <g id="line2d_8">
      <path clip-path="url(#p49bf7f9733)" d="M 60.32375 96.191388 
L 306.500221 96.191388 
" style="fill:none;stroke:#ffffff;stroke-linecap:round;stroke-width:0.8;"/>
     </g>
     <g id="text_8">
      <!-- 0.015 -->
      <g style="fill:#262626;" transform="translate(28.301875 99.770295)scale(0.1 -0.1)">
       <use xlink:href="#ArialMT-30"/>
       <use x="55.615234" xlink:href="#ArialMT-2e"/>
       <use x="83.398438" xlink:href="#ArialMT-30"/>
       <use x="139.013672" xlink:href="#ArialMT-31"/>
       <use x="194.628906" xlink:href="#ArialMT-35"/>
      </g>
     </g>
    </g>
    <g id="ytick_7">
     <g id="line2d_9">
      <path clip-path="url(#p49bf7f9733)" d="M 60.32375 61.310423 
L 306.500221 61.310423 
" style="fill:none;stroke:#ffffff;stroke-linecap:round;stroke-width:0.8;"/>
     </g>
     <g id="text_9">
      <!-- 0.020 -->
      <g style="fill:#262626;" transform="translate(28.301875 64.889329)scale(0.1 -0.1)">
       <defs>
        <path d="M 3222 541 
L 3222 0 
L 194 0 
Q 188 203 259 391 
Q 375 700 629 1000 
Q 884 1300 1366 1694 
Q 2113 2306 2375 2664 
Q 2638 3022 2638 3341 
Q 2638 3675 2398 3904 
Q 2159 4134 1775 4134 
Q 1369 4134 1125 3890 
Q 881 3647 878 3216 
L 300 3275 
Q 359 3922 746 4261 
Q 1134 4600 1788 4600 
Q 2447 4600 2831 4234 
Q 3216 3869 3216 3328 
Q 3216 3053 3103 2787 
Q 2991 2522 2730 2228 
Q 2469 1934 1863 1422 
Q 1356 997 1212 845 
Q 1069 694 975 541 
L 3222 541 
z
" id="ArialMT-32" transform="scale(0.015625)"/>
       </defs>
       <use xlink:href="#ArialMT-30"/>
       <use x="55.615234" xlink:href="#ArialMT-2e"/>
       <use x="83.398438" xlink:href="#ArialMT-30"/>
       <use x="139.013672" xlink:href="#ArialMT-32"/>
       <use x="194.628906" xlink:href="#ArialMT-30"/>
      </g>
     </g>
    </g>
    <g id="ytick_8">
     <g id="line2d_10">
      <path clip-path="url(#p49bf7f9733)" d="M 60.32375 26.429457 
L 306.500221 26.429457 
" style="fill:none;stroke:#ffffff;stroke-linecap:round;stroke-width:0.8;"/>
     </g>
     <g id="text_10">
      <!-- 0.025 -->
      <g style="fill:#262626;" transform="translate(28.301875 30.008363)scale(0.1 -0.1)">
       <use xlink:href="#ArialMT-30"/>
       <use x="55.615234" xlink:href="#ArialMT-2e"/>
       <use x="83.398438" xlink:href="#ArialMT-30"/>
       <use x="139.013672" xlink:href="#ArialMT-32"/>
       <use x="194.628906" xlink:href="#ArialMT-35"/>
      </g>
     </g>
    </g>
    <g id="text_11">
     <!-- Average Fraction of Effort -->
     <g style="fill:#262626;" transform="translate(15.935625 228.897187)rotate(-90)scale(0.12 -0.12)">
      <defs>
       <path d="M -9 0 
L 1750 4581 
L 2403 4581 
L 4278 0 
L 3588 0 
L 3053 1388 
L 1138 1388 
L 634 0 
L -9 0 
z
M 1313 1881 
L 2866 1881 
L 2388 3150 
Q 2169 3728 2063 4100 
Q 1975 3659 1816 3225 
L 1313 1881 
z
" id="ArialMT-41" transform="scale(0.015625)"/>
       <path d="M 525 0 
L 525 4581 
L 3616 4581 
L 3616 4041 
L 1131 4041 
L 1131 2622 
L 3281 2622 
L 3281 2081 
L 1131 2081 
L 1131 0 
L 525 0 
z
" id="ArialMT-46" transform="scale(0.015625)"/>
       <path d="M 556 0 
L 556 2881 
L 59 2881 
L 59 3319 
L 556 3319 
L 556 3672 
Q 556 4006 616 4169 
Q 697 4388 901 4523 
Q 1106 4659 1475 4659 
Q 1713 4659 2000 4603 
L 1916 4113 
Q 1741 4144 1584 4144 
Q 1328 4144 1222 4034 
Q 1116 3925 1116 3625 
L 1116 3319 
L 1763 3319 
L 1763 2881 
L 1116 2881 
L 1116 0 
L 556 0 
z
" id="ArialMT-66" transform="scale(0.015625)"/>
       <path d="M 506 0 
L 506 4581 
L 3819 4581 
L 3819 4041 
L 1113 4041 
L 1113 2638 
L 3647 2638 
L 3647 2100 
L 1113 2100 
L 1113 541 
L 3925 541 
L 3925 0 
L 506 0 
z
" id="ArialMT-45" transform="scale(0.015625)"/>
      </defs>
      <use xlink:href="#ArialMT-41"/>
      <use x="64.949219" xlink:href="#ArialMT-76"/>
      <use x="114.949219" xlink:href="#ArialMT-65"/>
      <use x="170.564453" xlink:href="#ArialMT-72"/>
      <use x="203.865234" xlink:href="#ArialMT-61"/>
      <use x="259.480469" xlink:href="#ArialMT-67"/>
      <use x="315.095703" xlink:href="#ArialMT-65"/>
      <use x="370.710938" xlink:href="#ArialMT-20"/>
      <use x="398.494141" xlink:href="#ArialMT-46"/>
      <use x="459.578125" xlink:href="#ArialMT-72"/>
      <use x="492.878906" xlink:href="#ArialMT-61"/>
      <use x="548.494141" xlink:href="#ArialMT-63"/>
      <use x="598.494141" xlink:href="#ArialMT-74"/>
      <use x="626.277344" xlink:href="#ArialMT-69"/>
      <use x="648.494141" xlink:href="#ArialMT-6f"/>
      <use x="704.109375" xlink:href="#ArialMT-6e"/>
      <use x="759.724609" xlink:href="#ArialMT-20"/>
      <use x="787.507812" xlink:href="#ArialMT-6f"/>
      <use x="843.123047" xlink:href="#ArialMT-66"/>
      <use x="870.90625" xlink:href="#ArialMT-20"/>
      <use x="898.689453" xlink:href="#ArialMT-45"/>
      <use x="965.388672" xlink:href="#ArialMT-66"/>
      <use x="991.421875" xlink:href="#ArialMT-66"/>
      <use x="1019.205078" xlink:href="#ArialMT-6f"/>
      <use x="1074.820312" xlink:href="#ArialMT-72"/>
      <use x="1108.121094" xlink:href="#ArialMT-74"/>
     </g>
    </g>
   </g>
   <g id="patch_3">
    <path clip-path="url(#p49bf7f9733)" d="M 71.51359 200.834285 
L 170.97883 200.834285 
L 170.97883 41.286743 
L 71.51359 41.286743 
z
" style="fill:#1f77b4;opacity:0.5;stroke:#ffffff;stroke-linejoin:miter;"/>
   </g>
   <g id="patch_4">
    <path clip-path="url(#p49bf7f9733)" d="M 195.84514 200.834285 
L 295.310381 200.834285 
L 295.310381 282.069177 
L 195.84514 282.069177 
z
" style="fill:#1f77b4;opacity:0.5;stroke:#ffffff;stroke-linejoin:miter;"/>
   </g>
   <g id="LineCollection_1">
    <path clip-path="url(#p49bf7f9733)" d="M 121.24621 45.371441 
L 121.24621 37.202045 
" style="fill:none;stroke:#000000;stroke-width:1.5;"/>
    <path clip-path="url(#p49bf7f9733)" d="M 245.577761 284.292955 
L 245.577761 279.8454 
" style="fill:none;stroke:#000000;stroke-width:1.5;"/>
   </g>
   <g id="patch_5">
    <path d="M 60.32375 296.6475 
L 60.32375 24.8475 
" style="fill:none;stroke:#ffffff;stroke-linecap:square;stroke-linejoin:miter;stroke-width:0.8;"/>
   </g>
   <g id="patch_6">
    <path d="M 306.500221 296.6475 
L 306.500221 24.8475 
" style="fill:none;stroke:#ffffff;stroke-linecap:square;stroke-linejoin:miter;stroke-width:0.8;"/>
   </g>
   <g id="patch_7">
    <path d="M 60.32375 296.6475 
L 306.500221 296.6475 
" style="fill:none;stroke:#ffffff;stroke-linecap:square;stroke-linejoin:miter;stroke-width:0.8;"/>
   </g>
   <g id="patch_8">
    <path d="M 60.32375 24.8475 
L 306.500221 24.8475 
" style="fill:none;stroke:#ffffff;stroke-linecap:square;stroke-linejoin:miter;stroke-width:0.8;"/>
   </g>
   <g id="text_12">
    <!-- Target of Policy Change Efforts (G) -->
    <g style="fill:#262626;" transform="translate(59.511985 18.8475)scale(0.16 -0.16)">
     <defs>
      <path d="M 1659 0 
L 1659 4041 
L 150 4041 
L 150 4581 
L 3781 4581 
L 3781 4041 
L 2266 4041 
L 2266 0 
L 1659 0 
z
" id="ArialMT-54" transform="scale(0.015625)"/>
      <path d="M 494 0 
L 494 4581 
L 2222 4581 
Q 2678 4581 2919 4538 
Q 3256 4481 3484 4323 
Q 3713 4166 3852 3881 
Q 3991 3597 3991 3256 
Q 3991 2672 3619 2267 
Q 3247 1863 2275 1863 
L 1100 1863 
L 1100 0 
L 494 0 
z
M 1100 2403 
L 2284 2403 
Q 2872 2403 3119 2622 
Q 3366 2841 3366 3238 
Q 3366 3525 3220 3729 
Q 3075 3934 2838 4000 
Q 2684 4041 2272 4041 
L 1100 4041 
L 1100 2403 
z
" id="ArialMT-50" transform="scale(0.015625)"/>
      <path d="M 409 0 
L 409 4581 
L 972 4581 
L 972 0 
L 409 0 
z
" id="ArialMT-6c" transform="scale(0.015625)"/>
      <path d="M 397 -1278 
L 334 -750 
Q 519 -800 656 -800 
Q 844 -800 956 -737 
Q 1069 -675 1141 -563 
Q 1194 -478 1313 -144 
Q 1328 -97 1363 -6 
L 103 3319 
L 709 3319 
L 1400 1397 
Q 1534 1031 1641 628 
Q 1738 1016 1872 1384 
L 2581 3319 
L 3144 3319 
L 1881 -56 
Q 1678 -603 1566 -809 
Q 1416 -1088 1222 -1217 
Q 1028 -1347 759 -1347 
Q 597 -1347 397 -1278 
z
" id="ArialMT-79" transform="scale(0.015625)"/>
      <path d="M 2638 1797 
L 2638 2334 
L 4578 2338 
L 4578 638 
Q 4131 281 3656 101 
Q 3181 -78 2681 -78 
Q 2006 -78 1454 211 
Q 903 500 622 1047 
Q 341 1594 341 2269 
Q 341 2938 620 3517 
Q 900 4097 1425 4378 
Q 1950 4659 2634 4659 
Q 3131 4659 3532 4498 
Q 3934 4338 4162 4050 
Q 4391 3763 4509 3300 
L 3963 3150 
Q 3859 3500 3706 3700 
Q 3553 3900 3268 4020 
Q 2984 4141 2638 4141 
Q 2222 4141 1919 4014 
Q 1616 3888 1430 3681 
Q 1244 3475 1141 3228 
Q 966 2803 966 2306 
Q 966 1694 1177 1281 
Q 1388 869 1791 669 
Q 2194 469 2647 469 
Q 3041 469 3416 620 
Q 3791 772 3984 944 
L 3984 1797 
L 2638 1797 
z
" id="ArialMT-47" transform="scale(0.015625)"/>
     </defs>
     <use xlink:href="#ArialMT-54"/>
     <use x="49.958984" xlink:href="#ArialMT-61"/>
     <use x="105.574219" xlink:href="#ArialMT-72"/>
     <use x="138.875" xlink:href="#ArialMT-67"/>
     <use x="194.490234" xlink:href="#ArialMT-65"/>
     <use x="250.105469" xlink:href="#ArialMT-74"/>
     <use x="277.888672" xlink:href="#ArialMT-20"/>
     <use x="305.671875" xlink:href="#ArialMT-6f"/>
     <use x="361.287109" xlink:href="#ArialMT-66"/>
     <use x="389.070312" xlink:href="#ArialMT-20"/>
     <use x="416.853516" xlink:href="#ArialMT-50"/>
     <use x="483.552734" xlink:href="#ArialMT-6f"/>
     <use x="539.167969" xlink:href="#ArialMT-6c"/>
     <use x="561.384766" xlink:href="#ArialMT-69"/>
     <use x="583.601562" xlink:href="#ArialMT-63"/>
     <use x="633.601562" xlink:href="#ArialMT-79"/>
     <use x="683.601562" xlink:href="#ArialMT-20"/>
     <use x="711.384766" xlink:href="#ArialMT-43"/>
     <use x="783.601562" xlink:href="#ArialMT-68"/>
     <use x="839.216797" xlink:href="#ArialMT-61"/>
     <use x="894.832031" xlink:href="#ArialMT-6e"/>
     <use x="950.447266" xlink:href="#ArialMT-67"/>
     <use x="1006.0625" xlink:href="#ArialMT-65"/>
     <use x="1061.677734" xlink:href="#ArialMT-20"/>
     <use x="1089.460938" xlink:href="#ArialMT-45"/>
     <use x="1156.160156" xlink:href="#ArialMT-66"/>
     <use x="1182.193359" xlink:href="#ArialMT-66"/>
     <use x="1209.976562" xlink:href="#ArialMT-6f"/>
     <use x="1265.591797" xlink:href="#ArialMT-72"/>
     <use x="1298.892578" xlink:href="#ArialMT-74"/>
     <use x="1326.675781" xlink:href="#ArialMT-73"/>
     <use x="1376.675781" xlink:href="#ArialMT-20"/>
     <use x="1404.458984" xlink:href="#ArialMT-28"/>
     <use x="1437.759766" xlink:href="#ArialMT-47"/>
     <use x="1515.542969" xlink:href="#ArialMT-29"/>
    </g>
   </g>
  </g>
  <g id="axes_2">
   <g id="patch_9">
    <path d="M 355.735515 296.6475 
L 601.911985 296.6475 
L 601.911985 24.8475 
L 355.735515 24.8475 
z
" style="fill:#eaeaf2;"/>
   </g>
   <g id="matplotlib.axis_3">
    <g id="xtick_3">
     <g id="line2d_11">
      <path clip-path="url(#p2c3edb25f0)" d="M 478.82375 296.6475 
L 478.82375 24.8475 
" style="fill:none;stroke:#ffffff;stroke-linecap:round;stroke-width:0.8;"/>
     </g>
     <g id="text_13">
      <!-- Irrigation/water districts -->
      <g style="fill:#262626;" transform="translate(388.742642 361.352676)rotate(-30)scale(0.1 -0.1)">
       <use xlink:href="#ArialMT-49"/>
       <use x="27.783203" xlink:href="#ArialMT-72"/>
       <use x="61.083984" xlink:href="#ArialMT-72"/>
       <use x="94.384766" xlink:href="#ArialMT-69"/>
       <use x="116.601562" xlink:href="#ArialMT-67"/>
       <use x="172.216797" xlink:href="#ArialMT-61"/>
       <use x="227.832031" xlink:href="#ArialMT-74"/>
       <use x="255.615234" xlink:href="#ArialMT-69"/>
       <use x="277.832031" xlink:href="#ArialMT-6f"/>
       <use x="333.447266" xlink:href="#ArialMT-6e"/>
       <use x="389.0625" xlink:href="#ArialMT-2f"/>
       <use x="416.845703" xlink:href="#ArialMT-77"/>
       <use x="489.0625" xlink:href="#ArialMT-61"/>
       <use x="544.677734" xlink:href="#ArialMT-74"/>
       <use x="572.460938" xlink:href="#ArialMT-65"/>
       <use x="628.076172" xlink:href="#ArialMT-72"/>
       <use x="661.376953" xlink:href="#ArialMT-20"/>
       <use x="689.160156" xlink:href="#ArialMT-64"/>
       <use x="744.775391" xlink:href="#ArialMT-69"/>
       <use x="766.992188" xlink:href="#ArialMT-73"/>
       <use x="816.992188" xlink:href="#ArialMT-74"/>
       <use x="844.775391" xlink:href="#ArialMT-72"/>
       <use x="878.076172" xlink:href="#ArialMT-69"/>
       <use x="900.292969" xlink:href="#ArialMT-63"/>
       <use x="950.292969" xlink:href="#ArialMT-74"/>
       <use x="978.076172" xlink:href="#ArialMT-73"/>
      </g>
     </g>
    </g>
   </g>
   <g id="matplotlib.axis_4">
    <g id="ytick_9">
     <g id="line2d_12">
      <path clip-path="url(#p2c3edb25f0)" d="M 355.735515 246.365173 
L 601.911985 246.365173 
" style="fill:none;stroke:#ffffff;stroke-linecap:round;stroke-width:0.8;"/>
     </g>
     <g id="text_14">
      <!-- −0.02 -->
      <g style="fill:#262626;" transform="translate(323.433952 249.94408)scale(0.1 -0.1)">
       <use xlink:href="#ArialMT-2212"/>
       <use x="58.398438" xlink:href="#ArialMT-30"/>
       <use x="114.013672" xlink:href="#ArialMT-2e"/>
       <use x="141.796875" xlink:href="#ArialMT-30"/>
       <use x="197.412109" xlink:href="#ArialMT-32"/>
      </g>
     </g>
    </g>
    <g id="ytick_10">
     <g id="line2d_13">
      <path clip-path="url(#p2c3edb25f0)" d="M 355.735515 193.983352 
L 601.911985 193.983352 
" style="fill:none;stroke:#ffffff;stroke-linecap:round;stroke-width:0.8;"/>
     </g>
     <g id="text_15">
      <!-- 0.00 -->
      <g style="fill:#262626;" transform="translate(329.274577 197.562258)scale(0.1 -0.1)">
       <use xlink:href="#ArialMT-30"/>
       <use x="55.615234" xlink:href="#ArialMT-2e"/>
       <use x="83.398438" xlink:href="#ArialMT-30"/>
       <use x="139.013672" xlink:href="#ArialMT-30"/>
      </g>
     </g>
    </g>
    <g id="ytick_11">
     <g id="line2d_14">
      <path clip-path="url(#p2c3edb25f0)" d="M 355.735515 141.601531 
L 601.911985 141.601531 
" style="fill:none;stroke:#ffffff;stroke-linecap:round;stroke-width:0.8;"/>
     </g>
     <g id="text_16">
      <!-- 0.02 -->
      <g style="fill:#262626;" transform="translate(329.274577 145.180437)scale(0.1 -0.1)">
       <use xlink:href="#ArialMT-30"/>
       <use x="55.615234" xlink:href="#ArialMT-2e"/>
       <use x="83.398438" xlink:href="#ArialMT-30"/>
       <use x="139.013672" xlink:href="#ArialMT-32"/>
      </g>
     </g>
    </g>
    <g id="ytick_12">
     <g id="line2d_15">
      <path clip-path="url(#p2c3edb25f0)" d="M 355.735515 89.21971 
L 601.911985 89.21971 
" style="fill:none;stroke:#ffffff;stroke-linecap:round;stroke-width:0.8;"/>
     </g>
     <g id="text_17">
      <!-- 0.04 -->
      <g style="fill:#262626;" transform="translate(329.274577 92.798616)scale(0.1 -0.1)">
       <defs>
        <path d="M 2069 0 
L 2069 1097 
L 81 1097 
L 81 1613 
L 2172 4581 
L 2631 4581 
L 2631 1613 
L 3250 1613 
L 3250 1097 
L 2631 1097 
L 2631 0 
L 2069 0 
z
M 2069 1613 
L 2069 3678 
L 634 1613 
L 2069 1613 
z
" id="ArialMT-34" transform="scale(0.015625)"/>
       </defs>
       <use xlink:href="#ArialMT-30"/>
       <use x="55.615234" xlink:href="#ArialMT-2e"/>
       <use x="83.398438" xlink:href="#ArialMT-30"/>
       <use x="139.013672" xlink:href="#ArialMT-34"/>
      </g>
     </g>
    </g>
    <g id="ytick_13">
     <g id="line2d_16">
      <path clip-path="url(#p2c3edb25f0)" d="M 355.735515 36.837889 
L 601.911985 36.837889 
" style="fill:none;stroke:#ffffff;stroke-linecap:round;stroke-width:0.8;"/>
     </g>
     <g id="text_18">
      <!-- 0.06 -->
      <g style="fill:#262626;" transform="translate(329.274577 40.416795)scale(0.1 -0.1)">
       <defs>
        <path d="M 3184 3459 
L 2625 3416 
Q 2550 3747 2413 3897 
Q 2184 4138 1850 4138 
Q 1581 4138 1378 3988 
Q 1113 3794 959 3422 
Q 806 3050 800 2363 
Q 1003 2672 1297 2822 
Q 1591 2972 1913 2972 
Q 2475 2972 2870 2558 
Q 3266 2144 3266 1488 
Q 3266 1056 3080 686 
Q 2894 316 2569 119 
Q 2244 -78 1831 -78 
Q 1128 -78 684 439 
Q 241 956 241 2144 
Q 241 3472 731 4075 
Q 1159 4600 1884 4600 
Q 2425 4600 2770 4297 
Q 3116 3994 3184 3459 
z
M 888 1484 
Q 888 1194 1011 928 
Q 1134 663 1356 523 
Q 1578 384 1822 384 
Q 2178 384 2434 671 
Q 2691 959 2691 1453 
Q 2691 1928 2437 2201 
Q 2184 2475 1800 2475 
Q 1419 2475 1153 2201 
Q 888 1928 888 1484 
z
" id="ArialMT-36" transform="scale(0.015625)"/>
       </defs>
       <use xlink:href="#ArialMT-30"/>
       <use x="55.615234" xlink:href="#ArialMT-2e"/>
       <use x="83.398438" xlink:href="#ArialMT-30"/>
       <use x="139.013672" xlink:href="#ArialMT-36"/>
      </g>
     </g>
    </g>
   </g>
   <g id="patch_10">
    <path clip-path="url(#p2c3edb25f0)" d="M 366.925354 193.983352 
L 590.722146 193.983352 
L 590.722146 160.7475 
L 366.925354 160.7475 
z
" style="fill:#1f77b4;opacity:0.5;stroke:#ffffff;stroke-linejoin:miter;"/>
   </g>
   <g id="LineCollection_2">
    <path clip-path="url(#p2c3edb25f0)" d="M 478.82375 284.292955 
L 478.82375 37.202045 
" style="fill:none;stroke:#000000;stroke-width:1.5;"/>
   </g>
   <g id="patch_11">
    <path d="M 355.735515 296.6475 
L 355.735515 24.8475 
" style="fill:none;stroke:#ffffff;stroke-linecap:square;stroke-linejoin:miter;stroke-width:0.8;"/>
   </g>
   <g id="patch_12">
    <path d="M 601.911985 296.6475 
L 601.911985 24.8475 
" style="fill:none;stroke:#ffffff;stroke-linecap:square;stroke-linejoin:miter;stroke-width:0.8;"/>
   </g>
   <g id="patch_13">
    <path d="M 355.735515 296.6475 
L 601.911985 296.6475 
" style="fill:none;stroke:#ffffff;stroke-linecap:square;stroke-linejoin:miter;stroke-width:0.8;"/>
   </g>
   <g id="patch_14">
    <path d="M 355.735515 24.8475 
L 601.911985 24.8475 
" style="fill:none;stroke:#ffffff;stroke-linecap:square;stroke-linejoin:miter;stroke-width:0.8;"/>
   </g>
   <g id="text_19">
    <!-- Target of Support or Undermining (C) -->
    <g style="fill:#262626;" transform="translate(347.22375 18.8475)scale(0.16 -0.16)">
     <defs>
      <path d="M 2597 0 
L 2597 488 
Q 2209 -75 1544 -75 
Q 1250 -75 995 37 
Q 741 150 617 320 
Q 494 491 444 738 
Q 409 903 409 1263 
L 409 3319 
L 972 3319 
L 972 1478 
Q 972 1038 1006 884 
Q 1059 663 1231 536 
Q 1403 409 1656 409 
Q 1909 409 2131 539 
Q 2353 669 2445 892 
Q 2538 1116 2538 1541 
L 2538 3319 
L 3100 3319 
L 3100 0 
L 2597 0 
z
" id="ArialMT-75" transform="scale(0.015625)"/>
      <path d="M 422 -1272 
L 422 3319 
L 934 3319 
L 934 2888 
Q 1116 3141 1344 3267 
Q 1572 3394 1897 3394 
Q 2322 3394 2647 3175 
Q 2972 2956 3137 2557 
Q 3303 2159 3303 1684 
Q 3303 1175 3120 767 
Q 2938 359 2589 142 
Q 2241 -75 1856 -75 
Q 1575 -75 1351 44 
Q 1128 163 984 344 
L 984 -1272 
L 422 -1272 
z
M 931 1641 
Q 931 1000 1190 694 
Q 1450 388 1819 388 
Q 2194 388 2461 705 
Q 2728 1022 2728 1688 
Q 2728 2322 2467 2637 
Q 2206 2953 1844 2953 
Q 1484 2953 1207 2617 
Q 931 2281 931 1641 
z
" id="ArialMT-70" transform="scale(0.015625)"/>
      <path d="M 3500 4581 
L 4106 4581 
L 4106 1934 
Q 4106 1244 3950 837 
Q 3794 431 3386 176 
Q 2978 -78 2316 -78 
Q 1672 -78 1262 144 
Q 853 366 678 786 
Q 503 1206 503 1934 
L 503 4581 
L 1109 4581 
L 1109 1938 
Q 1109 1341 1220 1058 
Q 1331 775 1601 622 
Q 1872 469 2263 469 
Q 2931 469 3215 772 
Q 3500 1075 3500 1938 
L 3500 4581 
z
" id="ArialMT-55" transform="scale(0.015625)"/>
      <path d="M 422 0 
L 422 3319 
L 925 3319 
L 925 2853 
Q 1081 3097 1340 3245 
Q 1600 3394 1931 3394 
Q 2300 3394 2536 3241 
Q 2772 3088 2869 2813 
Q 3263 3394 3894 3394 
Q 4388 3394 4653 3120 
Q 4919 2847 4919 2278 
L 4919 0 
L 4359 0 
L 4359 2091 
Q 4359 2428 4304 2576 
Q 4250 2725 4106 2815 
Q 3963 2906 3769 2906 
Q 3419 2906 3187 2673 
Q 2956 2441 2956 1928 
L 2956 0 
L 2394 0 
L 2394 2156 
Q 2394 2531 2256 2718 
Q 2119 2906 1806 2906 
Q 1569 2906 1367 2781 
Q 1166 2656 1075 2415 
Q 984 2175 984 1722 
L 984 0 
L 422 0 
z
" id="ArialMT-6d" transform="scale(0.015625)"/>
     </defs>
     <use xlink:href="#ArialMT-54"/>
     <use x="49.958984" xlink:href="#ArialMT-61"/>
     <use x="105.574219" xlink:href="#ArialMT-72"/>
     <use x="138.875" xlink:href="#ArialMT-67"/>
     <use x="194.490234" xlink:href="#ArialMT-65"/>
     <use x="250.105469" xlink:href="#ArialMT-74"/>
     <use x="277.888672" xlink:href="#ArialMT-20"/>
     <use x="305.671875" xlink:href="#ArialMT-6f"/>
     <use x="361.287109" xlink:href="#ArialMT-66"/>
     <use x="389.070312" xlink:href="#ArialMT-20"/>
     <use x="416.853516" xlink:href="#ArialMT-53"/>
     <use x="483.552734" xlink:href="#ArialMT-75"/>
     <use x="539.167969" xlink:href="#ArialMT-70"/>
     <use x="594.783203" xlink:href="#ArialMT-70"/>
     <use x="650.398438" xlink:href="#ArialMT-6f"/>
     <use x="706.013672" xlink:href="#ArialMT-72"/>
     <use x="739.314453" xlink:href="#ArialMT-74"/>
     <use x="767.097656" xlink:href="#ArialMT-20"/>
     <use x="794.880859" xlink:href="#ArialMT-6f"/>
     <use x="850.496094" xlink:href="#ArialMT-72"/>
     <use x="883.796875" xlink:href="#ArialMT-20"/>
     <use x="911.580078" xlink:href="#ArialMT-55"/>
     <use x="983.796875" xlink:href="#ArialMT-6e"/>
     <use x="1039.412109" xlink:href="#ArialMT-64"/>
     <use x="1095.027344" xlink:href="#ArialMT-65"/>
     <use x="1150.642578" xlink:href="#ArialMT-72"/>
     <use x="1183.943359" xlink:href="#ArialMT-6d"/>
     <use x="1267.244141" xlink:href="#ArialMT-69"/>
     <use x="1289.460938" xlink:href="#ArialMT-6e"/>
     <use x="1345.076172" xlink:href="#ArialMT-69"/>
     <use x="1367.292969" xlink:href="#ArialMT-6e"/>
     <use x="1422.908203" xlink:href="#ArialMT-67"/>
     <use x="1478.523438" xlink:href="#ArialMT-20"/>
     <use x="1506.306641" xlink:href="#ArialMT-28"/>
     <use x="1539.607422" xlink:href="#ArialMT-43"/>
     <use x="1611.824219" xlink:href="#ArialMT-29"/>
    </g>
   </g>
  </g>
  <g id="axes_3">
   <g id="patch_15">
    <path d="M 651.147279 296.6475 
L 897.32375 296.6475 
L 897.32375 24.8475 
L 651.147279 24.8475 
z
" style="fill:#eaeaf2;"/>
   </g>
   <g id="matplotlib.axis_5">
    <g id="xtick_4">
     <g id="line2d_17">
      <path clip-path="url(#p53669fb1d9)" d="M 685.894676 296.6475 
L 685.894676 24.8475 
" style="fill:none;stroke:#ffffff;stroke-linecap:round;stroke-width:0.8;"/>
     </g>
     <g id="text_20">
      <!-- Extraction Policy -->
      <g style="fill:#262626;" transform="translate(620.830876 346.803379)rotate(-30)scale(0.1 -0.1)">
       <defs>
        <path d="M 47 0 
L 1259 1725 
L 138 3319 
L 841 3319 
L 1350 2541 
Q 1494 2319 1581 2169 
Q 1719 2375 1834 2534 
L 2394 3319 
L 3066 3319 
L 1919 1756 
L 3153 0 
L 2463 0 
L 1781 1031 
L 1600 1309 
L 728 0 
L 47 0 
z
" id="ArialMT-78" transform="scale(0.015625)"/>
       </defs>
       <use xlink:href="#ArialMT-45"/>
       <use x="66.699219" xlink:href="#ArialMT-78"/>
       <use x="116.699219" xlink:href="#ArialMT-74"/>
       <use x="144.482422" xlink:href="#ArialMT-72"/>
       <use x="177.783203" xlink:href="#ArialMT-61"/>
       <use x="233.398438" xlink:href="#ArialMT-63"/>
       <use x="283.398438" xlink:href="#ArialMT-74"/>
       <use x="311.181641" xlink:href="#ArialMT-69"/>
       <use x="333.398438" xlink:href="#ArialMT-6f"/>
       <use x="389.013672" xlink:href="#ArialMT-6e"/>
       <use x="444.628906" xlink:href="#ArialMT-20"/>
       <use x="472.412109" xlink:href="#ArialMT-50"/>
       <use x="539.111328" xlink:href="#ArialMT-6f"/>
       <use x="594.726562" xlink:href="#ArialMT-6c"/>
       <use x="616.943359" xlink:href="#ArialMT-69"/>
       <use x="639.160156" xlink:href="#ArialMT-63"/>
       <use x="689.160156" xlink:href="#ArialMT-79"/>
      </g>
     </g>
    </g>
    <g id="xtick_5">
     <g id="line2d_18">
      <path clip-path="url(#p53669fb1d9)" d="M 744.788568 296.6475 
L 744.788568 24.8475 
" style="fill:none;stroke:#ffffff;stroke-linecap:round;stroke-width:0.8;"/>
     </g>
     <g id="text_21">
      <!-- Recharge Policy -->
      <g style="fill:#262626;" transform="translate(680.681456 346.251035)rotate(-30)scale(0.1 -0.1)">
       <use xlink:href="#ArialMT-52"/>
       <use x="72.216797" xlink:href="#ArialMT-65"/>
       <use x="127.832031" xlink:href="#ArialMT-63"/>
       <use x="177.832031" xlink:href="#ArialMT-68"/>
       <use x="233.447266" xlink:href="#ArialMT-61"/>
       <use x="289.0625" xlink:href="#ArialMT-72"/>
       <use x="322.363281" xlink:href="#ArialMT-67"/>
       <use x="377.978516" xlink:href="#ArialMT-65"/>
       <use x="433.59375" xlink:href="#ArialMT-20"/>
       <use x="461.376953" xlink:href="#ArialMT-50"/>
       <use x="528.076172" xlink:href="#ArialMT-6f"/>
       <use x="583.691406" xlink:href="#ArialMT-6c"/>
       <use x="605.908203" xlink:href="#ArialMT-69"/>
       <use x="628.125" xlink:href="#ArialMT-63"/>
       <use x="678.125" xlink:href="#ArialMT-79"/>
      </g>
     </g>
    </g>
    <g id="xtick_6">
     <g id="line2d_19">
      <path clip-path="url(#p53669fb1d9)" d="M 803.682461 296.6475 
L 803.682461 24.8475 
" style="fill:none;stroke:#ffffff;stroke-linecap:round;stroke-width:0.8;"/>
     </g>
     <g id="text_22">
      <!-- Direct supporting/undermining -->
      <g style="fill:#262626;" transform="translate(687.107741 376.648769)rotate(-30)scale(0.1 -0.1)">
       <use xlink:href="#ArialMT-44"/>
       <use x="72.216797" xlink:href="#ArialMT-69"/>
       <use x="94.433594" xlink:href="#ArialMT-72"/>
       <use x="127.734375" xlink:href="#ArialMT-65"/>
       <use x="183.349609" xlink:href="#ArialMT-63"/>
       <use x="233.349609" xlink:href="#ArialMT-74"/>
       <use x="261.132812" xlink:href="#ArialMT-20"/>
       <use x="288.916016" xlink:href="#ArialMT-73"/>
       <use x="338.916016" xlink:href="#ArialMT-75"/>
       <use x="394.53125" xlink:href="#ArialMT-70"/>
       <use x="450.146484" xlink:href="#ArialMT-70"/>
       <use x="505.761719" xlink:href="#ArialMT-6f"/>
       <use x="561.376953" xlink:href="#ArialMT-72"/>
       <use x="594.677734" xlink:href="#ArialMT-74"/>
       <use x="622.460938" xlink:href="#ArialMT-69"/>
       <use x="644.677734" xlink:href="#ArialMT-6e"/>
       <use x="700.292969" xlink:href="#ArialMT-67"/>
       <use x="755.908203" xlink:href="#ArialMT-2f"/>
       <use x="783.691406" xlink:href="#ArialMT-75"/>
       <use x="839.306641" xlink:href="#ArialMT-6e"/>
       <use x="894.921875" xlink:href="#ArialMT-64"/>
       <use x="950.537109" xlink:href="#ArialMT-65"/>
       <use x="1006.152344" xlink:href="#ArialMT-72"/>
       <use x="1039.453125" xlink:href="#ArialMT-6d"/>
       <use x="1122.753906" xlink:href="#ArialMT-69"/>
       <use x="1144.970703" xlink:href="#ArialMT-6e"/>
       <use x="1200.585938" xlink:href="#ArialMT-69"/>
       <use x="1222.802734" xlink:href="#ArialMT-6e"/>
       <use x="1278.417969" xlink:href="#ArialMT-67"/>
      </g>
     </g>
    </g>
    <g id="xtick_7">
     <g id="line2d_20">
      <path clip-path="url(#p53669fb1d9)" d="M 862.576353 296.6475 
L 862.576353 24.8475 
" style="fill:none;stroke:#ffffff;stroke-linecap:round;stroke-width:0.8;"/>
     </g>
     <g id="text_23">
      <!-- Assistance Policy -->
      <g style="fill:#262626;" transform="translate(794.141821 348.749472)rotate(-30)scale(0.1 -0.1)">
       <use xlink:href="#ArialMT-41"/>
       <use x="66.699219" xlink:href="#ArialMT-73"/>
       <use x="116.699219" xlink:href="#ArialMT-73"/>
       <use x="166.699219" xlink:href="#ArialMT-69"/>
       <use x="188.916016" xlink:href="#ArialMT-73"/>
       <use x="238.916016" xlink:href="#ArialMT-74"/>
       <use x="266.699219" xlink:href="#ArialMT-61"/>
       <use x="322.314453" xlink:href="#ArialMT-6e"/>
       <use x="377.929688" xlink:href="#ArialMT-63"/>
       <use x="427.929688" xlink:href="#ArialMT-65"/>
       <use x="483.544922" xlink:href="#ArialMT-20"/>
       <use x="511.328125" xlink:href="#ArialMT-50"/>
       <use x="578.027344" xlink:href="#ArialMT-6f"/>
       <use x="633.642578" xlink:href="#ArialMT-6c"/>
       <use x="655.859375" xlink:href="#ArialMT-69"/>
       <use x="678.076172" xlink:href="#ArialMT-63"/>
       <use x="728.076172" xlink:href="#ArialMT-79"/>
      </g>
     </g>
    </g>
   </g>
   <g id="matplotlib.axis_6">
    <g id="ytick_14">
     <g id="line2d_21">
      <path clip-path="url(#p53669fb1d9)" d="M 651.147279 296.6475 
L 897.32375 296.6475 
" style="fill:none;stroke:#ffffff;stroke-linecap:round;stroke-width:0.8;"/>
     </g>
     <g id="text_24">
      <!-- 0.000 -->
      <g style="fill:#262626;" transform="translate(619.125404 300.226406)scale(0.1 -0.1)">
       <use xlink:href="#ArialMT-30"/>
       <use x="55.615234" xlink:href="#ArialMT-2e"/>
       <use x="83.398438" xlink:href="#ArialMT-30"/>
       <use x="139.013672" xlink:href="#ArialMT-30"/>
       <use x="194.628906" xlink:href="#ArialMT-30"/>
      </g>
     </g>
    </g>
    <g id="ytick_15">
     <g id="line2d_22">
      <path clip-path="url(#p53669fb1d9)" d="M 651.147279 259.610774 
L 897.32375 259.610774 
" style="fill:none;stroke:#ffffff;stroke-linecap:round;stroke-width:0.8;"/>
     </g>
     <g id="text_25">
      <!-- 0.005 -->
      <g style="fill:#262626;" transform="translate(619.125404 263.18968)scale(0.1 -0.1)">
       <use xlink:href="#ArialMT-30"/>
       <use x="55.615234" xlink:href="#ArialMT-2e"/>
       <use x="83.398438" xlink:href="#ArialMT-30"/>
       <use x="139.013672" xlink:href="#ArialMT-30"/>
       <use x="194.628906" xlink:href="#ArialMT-35"/>
      </g>
     </g>
    </g>
    <g id="ytick_16">
     <g id="line2d_23">
      <path clip-path="url(#p53669fb1d9)" d="M 651.147279 222.574048 
L 897.32375 222.574048 
" style="fill:none;stroke:#ffffff;stroke-linecap:round;stroke-width:0.8;"/>
     </g>
     <g id="text_26">
      <!-- 0.010 -->
      <g style="fill:#262626;" transform="translate(619.125404 226.152954)scale(0.1 -0.1)">
       <use xlink:href="#ArialMT-30"/>
       <use x="55.615234" xlink:href="#ArialMT-2e"/>
       <use x="83.398438" xlink:href="#ArialMT-30"/>
       <use x="139.013672" xlink:href="#ArialMT-31"/>
       <use x="194.628906" xlink:href="#ArialMT-30"/>
      </g>
     </g>
    </g>
    <g id="ytick_17">
     <g id="line2d_24">
      <path clip-path="url(#p53669fb1d9)" d="M 651.147279 185.537322 
L 897.32375 185.537322 
" style="fill:none;stroke:#ffffff;stroke-linecap:round;stroke-width:0.8;"/>
     </g>
     <g id="text_27">
      <!-- 0.015 -->
      <g style="fill:#262626;" transform="translate(619.125404 189.116228)scale(0.1 -0.1)">
       <use xlink:href="#ArialMT-30"/>
       <use x="55.615234" xlink:href="#ArialMT-2e"/>
       <use x="83.398438" xlink:href="#ArialMT-30"/>
       <use x="139.013672" xlink:href="#ArialMT-31"/>
       <use x="194.628906" xlink:href="#ArialMT-35"/>
      </g>
     </g>
    </g>
    <g id="ytick_18">
     <g id="line2d_25">
      <path clip-path="url(#p53669fb1d9)" d="M 651.147279 148.500596 
L 897.32375 148.500596 
" style="fill:none;stroke:#ffffff;stroke-linecap:round;stroke-width:0.8;"/>
     </g>
     <g id="text_28">
      <!-- 0.020 -->
      <g style="fill:#262626;" transform="translate(619.125404 152.079503)scale(0.1 -0.1)">
       <use xlink:href="#ArialMT-30"/>
       <use x="55.615234" xlink:href="#ArialMT-2e"/>
       <use x="83.398438" xlink:href="#ArialMT-30"/>
       <use x="139.013672" xlink:href="#ArialMT-32"/>
       <use x="194.628906" xlink:href="#ArialMT-30"/>
      </g>
     </g>
    </g>
    <g id="ytick_19">
     <g id="line2d_26">
      <path clip-path="url(#p53669fb1d9)" d="M 651.147279 111.46387 
L 897.32375 111.46387 
" style="fill:none;stroke:#ffffff;stroke-linecap:round;stroke-width:0.8;"/>
     </g>
     <g id="text_29">
      <!-- 0.025 -->
      <g style="fill:#262626;" transform="translate(619.125404 115.042777)scale(0.1 -0.1)">
       <use xlink:href="#ArialMT-30"/>
       <use x="55.615234" xlink:href="#ArialMT-2e"/>
       <use x="83.398438" xlink:href="#ArialMT-30"/>
       <use x="139.013672" xlink:href="#ArialMT-32"/>
       <use x="194.628906" xlink:href="#ArialMT-35"/>
      </g>
     </g>
    </g>
    <g id="ytick_20">
     <g id="line2d_27">
      <path clip-path="url(#p53669fb1d9)" d="M 651.147279 74.427144 
L 897.32375 74.427144 
" style="fill:none;stroke:#ffffff;stroke-linecap:round;stroke-width:0.8;"/>
     </g>
     <g id="text_30">
      <!-- 0.030 -->
      <g style="fill:#262626;" transform="translate(619.125404 78.006051)scale(0.1 -0.1)">
       <defs>
        <path d="M 269 1209 
L 831 1284 
Q 928 806 1161 595 
Q 1394 384 1728 384 
Q 2125 384 2398 659 
Q 2672 934 2672 1341 
Q 2672 1728 2419 1979 
Q 2166 2231 1775 2231 
Q 1616 2231 1378 2169 
L 1441 2663 
Q 1497 2656 1531 2656 
Q 1891 2656 2178 2843 
Q 2466 3031 2466 3422 
Q 2466 3731 2256 3934 
Q 2047 4138 1716 4138 
Q 1388 4138 1169 3931 
Q 950 3725 888 3313 
L 325 3413 
Q 428 3978 793 4289 
Q 1159 4600 1703 4600 
Q 2078 4600 2393 4439 
Q 2709 4278 2876 4000 
Q 3044 3722 3044 3409 
Q 3044 3113 2884 2869 
Q 2725 2625 2413 2481 
Q 2819 2388 3044 2092 
Q 3269 1797 3269 1353 
Q 3269 753 2831 336 
Q 2394 -81 1725 -81 
Q 1122 -81 723 278 
Q 325 638 269 1209 
z
" id="ArialMT-33" transform="scale(0.015625)"/>
       </defs>
       <use xlink:href="#ArialMT-30"/>
       <use x="55.615234" xlink:href="#ArialMT-2e"/>
       <use x="83.398438" xlink:href="#ArialMT-30"/>
       <use x="139.013672" xlink:href="#ArialMT-33"/>
       <use x="194.628906" xlink:href="#ArialMT-30"/>
      </g>
     </g>
    </g>
    <g id="ytick_21">
     <g id="line2d_28">
      <path clip-path="url(#p53669fb1d9)" d="M 651.147279 37.390418 
L 897.32375 37.390418 
" style="fill:none;stroke:#ffffff;stroke-linecap:round;stroke-width:0.8;"/>
     </g>
     <g id="text_31">
      <!-- 0.035 -->
      <g style="fill:#262626;" transform="translate(619.125404 40.969325)scale(0.1 -0.1)">
       <use xlink:href="#ArialMT-30"/>
       <use x="55.615234" xlink:href="#ArialMT-2e"/>
       <use x="83.398438" xlink:href="#ArialMT-30"/>
       <use x="139.013672" xlink:href="#ArialMT-33"/>
       <use x="194.628906" xlink:href="#ArialMT-35"/>
      </g>
     </g>
    </g>
   </g>
   <g id="patch_16">
    <path clip-path="url(#p53669fb1d9)" d="M 662.337119 296.6475 
L 709.452233 296.6475 
L 709.452233 38.207603 
L 662.337119 38.207603 
z
" style="fill:#1f77b4;opacity:0.5;stroke:#ffffff;stroke-linejoin:miter;"/>
   </g>
   <g id="patch_17">
    <path clip-path="url(#p53669fb1d9)" d="M 721.231011 296.6475 
L 768.346125 296.6475 
L 768.346125 284.44397 
L 721.231011 284.44397 
z
" style="fill:#1f77b4;opacity:0.5;stroke:#ffffff;stroke-linejoin:miter;"/>
   </g>
   <g id="patch_18">
    <path clip-path="url(#p53669fb1d9)" d="M 780.124904 296.6475 
L 827.240018 296.6475 
L 827.240018 193.32565 
L 780.124904 193.32565 
z
" style="fill:#1f77b4;opacity:0.5;stroke:#ffffff;stroke-linejoin:miter;"/>
   </g>
   <g id="patch_19">
    <path clip-path="url(#p53669fb1d9)" d="M 839.018796 296.6475 
L 886.13391 296.6475 
L 886.13391 296.6475 
L 839.018796 296.6475 
z
" style="fill:#1f77b4;opacity:0.5;stroke:#ffffff;stroke-linejoin:miter;"/>
   </g>
   <g id="LineCollection_3">
    <path clip-path="url(#p53669fb1d9)" d="M 685.894676 38.624849 
L 685.894676 37.790357 
" style="fill:none;stroke:#000000;stroke-width:1.5;"/>
    <path clip-path="url(#p53669fb1d9)" d="M 744.788568 284.903205 
L 744.788568 283.984735 
" style="fill:none;stroke:#000000;stroke-width:1.5;"/>
    <path clip-path="url(#p53669fb1d9)" d="M 803.682461 205.05392 
L 803.682461 181.597381 
" style="fill:none;stroke:#000000;stroke-width:1.5;"/>
    <path clip-path="url(#p53669fb1d9)" d="M 862.576353 296.6475 
L 862.576353 296.6475 
" style="fill:none;stroke:#000000;stroke-width:1.5;"/>
   </g>
   <g id="patch_20">
    <path d="M 651.147279 296.6475 
L 651.147279 24.8475 
" style="fill:none;stroke:#ffffff;stroke-linecap:square;stroke-linejoin:miter;stroke-width:0.8;"/>
   </g>
   <g id="patch_21">
    <path d="M 897.32375 296.6475 
L 897.32375 24.8475 
" style="fill:none;stroke:#ffffff;stroke-linecap:square;stroke-linejoin:miter;stroke-width:0.8;"/>
   </g>
   <g id="patch_22">
    <path d="M 651.147279 296.6475 
L 897.32375 296.6475 
" style="fill:none;stroke:#ffffff;stroke-linecap:square;stroke-linejoin:miter;stroke-width:0.8;"/>
   </g>
   <g id="patch_23">
    <path d="M 651.147279 24.8475 
L 897.32375 24.8475 
" style="fill:none;stroke:#ffffff;stroke-linecap:square;stroke-linejoin:miter;stroke-width:0.8;"/>
   </g>
   <g id="text_32">
    <!-- Strategy Types -->
    <g style="fill:#262626;" transform="translate(721.018015 18.8475)scale(0.16 -0.16)">
     <use xlink:href="#ArialMT-53"/>
     <use x="66.699219" xlink:href="#ArialMT-74"/>
     <use x="94.482422" xlink:href="#ArialMT-72"/>
     <use x="127.783203" xlink:href="#ArialMT-61"/>
     <use x="183.398438" xlink:href="#ArialMT-74"/>
     <use x="211.181641" xlink:href="#ArialMT-65"/>
     <use x="266.796875" xlink:href="#ArialMT-67"/>
     <use x="322.412109" xlink:href="#ArialMT-79"/>
     <use x="372.412109" xlink:href="#ArialMT-20"/>
     <use x="398.445312" xlink:href="#ArialMT-54"/>
     <use x="454.029297" xlink:href="#ArialMT-79"/>
     <use x="504.029297" xlink:href="#ArialMT-70"/>
     <use x="559.644531" xlink:href="#ArialMT-65"/>
     <use x="615.259766" xlink:href="#ArialMT-73"/>
    </g>
   </g>
  </g>
 </g>
 <defs>
  <clipPath id="p49bf7f9733">
   <rect height="271.8" width="246.176471" x="60.32375" y="24.8475"/>
  </clipPath>
  <clipPath id="p2c3edb25f0">
   <rect height="271.8" width="246.176471" x="355.735515" y="24.8475"/>
  </clipPath>
  <clipPath id="p53669fb1d9">
   <rect height="271.8" width="246.176471" x="651.147279" y="24.8475"/>
  </clipPath>
 </defs>
</svg>
