<?xml version="1.0" encoding="utf-8" standalone="no"?>
<!DOCTYPE svg PUBLIC "-//W3C//DTD SVG 1.1//EN"
  "http://www.w3.org/Graphics/SVG/1.1/DTD/svg11.dtd">
<svg height="283.620312pt" version="1.1" viewBox="0 0 550.192699 283.620312" width="550.192699pt" xmlns="http://www.w3.org/2000/svg" xmlns:xlink="http://www.w3.org/1999/xlink">
 <metadata>
  <rdf:RDF xmlns:cc="http://creativecommons.org/ns#" xmlns:dc="http://purl.org/dc/elements/1.1/" xmlns:rdf="http://www.w3.org/1999/02/22-rdf-syntax-ns#">
   <cc:Work>
    <dc:type rdf:resource="http://purl.org/dc/dcmitype/StillImage"/>
    <dc:date>2022-09-27T18:34:54.018492</dc:date>
    <dc:format>image/svg+xml</dc:format>
    <dc:creator>
     <cc:Agent>
      <dc:title>Matplotlib v3.4.2, https://matplotlib.org/</dc:title>
     </cc:Agent>
    </dc:creator>
   </cc:Work>
  </rdf:RDF>
 </metadata>
 <defs>
  <style type="text/css">*{stroke-linecap:butt;stroke-linejoin:round;}</style>
 </defs>
 <g id="figure_1">
  <g id="patch_1">
   <path d="M 0 283.620312 
L 550.192699 283.620312 
L 550.192699 0 
L 0 0 
z
" style="fill:#ffffff;"/>
  </g>
  <g id="axes_1">
   <g id="patch_2">
    <path d="M 40.2225 120.779489 
L 192.404318 120.779489 
L 192.404318 21.943125 
L 40.2225 21.943125 
z
" style="fill:#eaeaf2;"/>
   </g>
   <g id="matplotlib.axis_1">
    <g id="xtick_1">
     <g id="line2d_1">
      <path clip-path="url(#p1564f26672)" d="M 52.971837 120.779489 
L 52.971837 21.943125 
" style="fill:none;stroke:#ffffff;stroke-linecap:round;stroke-width:0.8;"/>
     </g>
    </g>
    <g id="xtick_2">
     <g id="line2d_2">
      <path clip-path="url(#p1564f26672)" d="M 96.719834 120.779489 
L 96.719834 21.943125 
" style="fill:none;stroke:#ffffff;stroke-linecap:round;stroke-width:0.8;"/>
     </g>
    </g>
    <g id="xtick_3">
     <g id="line2d_3">
      <path clip-path="url(#p1564f26672)" d="M 140.467832 120.779489 
L 140.467832 21.943125 
" style="fill:none;stroke:#ffffff;stroke-linecap:round;stroke-width:0.8;"/>
     </g>
    </g>
    <g id="xtick_4">
     <g id="line2d_4">
      <path clip-path="url(#p1564f26672)" d="M 184.21583 120.779489 
L 184.21583 21.943125 
" style="fill:none;stroke:#ffffff;stroke-linecap:round;stroke-width:0.8;"/>
     </g>
    </g>
   </g>
   <g id="matplotlib.axis_2">
    <g id="ytick_1">
     <g id="line2d_5">
      <path clip-path="url(#p1564f26672)" d="M 40.2225 113.238358 
L 192.404318 113.238358 
" style="fill:none;stroke:#ffffff;stroke-linecap:round;stroke-width:0.8;"/>
     </g>
     <g id="text_1">
      <!-- 1 -->
      <g style="fill:#262626;" transform="translate(27.661563 116.817264)scale(0.1 -0.1)">
       <defs>
        <path d="M 2384 0 
L 1822 0 
L 1822 3584 
Q 1619 3391 1289 3197 
Q 959 3003 697 2906 
L 697 3450 
Q 1169 3672 1522 3987 
Q 1875 4303 2022 4600 
L 2384 4600 
L 2384 0 
z
" id="ArialMT-31" transform="scale(0.015625)"/>
       </defs>
       <use xlink:href="#ArialMT-31"/>
      </g>
     </g>
    </g>
    <g id="ytick_2">
     <g id="line2d_6">
      <path clip-path="url(#p1564f26672)" d="M 40.2225 84.973947 
L 192.404318 84.973947 
" style="fill:none;stroke:#ffffff;stroke-linecap:round;stroke-width:0.8;"/>
     </g>
     <g id="text_2">
      <!-- 2 -->
      <g style="fill:#262626;" transform="translate(27.661563 88.552853)scale(0.1 -0.1)">
       <defs>
        <path d="M 3222 541 
L 3222 0 
L 194 0 
Q 188 203 259 391 
Q 375 700 629 1000 
Q 884 1300 1366 1694 
Q 2113 2306 2375 2664 
Q 2638 3022 2638 3341 
Q 2638 3675 2398 3904 
Q 2159 4134 1775 4134 
Q 1369 4134 1125 3890 
Q 881 3647 878 3216 
L 300 3275 
Q 359 3922 746 4261 
Q 1134 4600 1788 4600 
Q 2447 4600 2831 4234 
Q 3216 3869 3216 3328 
Q 3216 3053 3103 2787 
Q 2991 2522 2730 2228 
Q 2469 1934 1863 1422 
Q 1356 997 1212 845 
Q 1069 694 975 541 
L 3222 541 
z
" id="ArialMT-32" transform="scale(0.015625)"/>
       </defs>
       <use xlink:href="#ArialMT-32"/>
      </g>
     </g>
    </g>
    <g id="ytick_3">
     <g id="line2d_7">
      <path clip-path="url(#p1564f26672)" d="M 40.2225 56.709536 
L 192.404318 56.709536 
" style="fill:none;stroke:#ffffff;stroke-linecap:round;stroke-width:0.8;"/>
     </g>
     <g id="text_3">
      <!-- 3 -->
      <g style="fill:#262626;" transform="translate(27.661563 60.288443)scale(0.1 -0.1)">
       <defs>
        <path d="M 269 1209 
L 831 1284 
Q 928 806 1161 595 
Q 1394 384 1728 384 
Q 2125 384 2398 659 
Q 2672 934 2672 1341 
Q 2672 1728 2419 1979 
Q 2166 2231 1775 2231 
Q 1616 2231 1378 2169 
L 1441 2663 
Q 1497 2656 1531 2656 
Q 1891 2656 2178 2843 
Q 2466 3031 2466 3422 
Q 2466 3731 2256 3934 
Q 2047 4138 1716 4138 
Q 1388 4138 1169 3931 
Q 950 3725 888 3313 
L 325 3413 
Q 428 3978 793 4289 
Q 1159 4600 1703 4600 
Q 2078 4600 2393 4439 
Q 2709 4278 2876 4000 
Q 3044 3722 3044 3409 
Q 3044 3113 2884 2869 
Q 2725 2625 2413 2481 
Q 2819 2388 3044 2092 
Q 3269 1797 3269 1353 
Q 3269 753 2831 336 
Q 2394 -81 1725 -81 
Q 1122 -81 723 278 
Q 325 638 269 1209 
z
" id="ArialMT-33" transform="scale(0.015625)"/>
       </defs>
       <use xlink:href="#ArialMT-33"/>
      </g>
     </g>
    </g>
    <g id="ytick_4">
     <g id="line2d_8">
      <path clip-path="url(#p1564f26672)" d="M 40.2225 28.445126 
L 192.404318 28.445126 
" style="fill:none;stroke:#ffffff;stroke-linecap:round;stroke-width:0.8;"/>
     </g>
     <g id="text_4">
      <!-- 4 -->
      <g style="fill:#262626;" transform="translate(27.661563 32.024032)scale(0.1 -0.1)">
       <defs>
        <path d="M 2069 0 
L 2069 1097 
L 81 1097 
L 81 1613 
L 2172 4581 
L 2631 4581 
L 2631 1613 
L 3250 1613 
L 3250 1097 
L 2631 1097 
L 2631 0 
L 2069 0 
z
M 2069 1613 
L 2069 3678 
L 634 1613 
L 2069 1613 
z
" id="ArialMT-34" transform="scale(0.015625)"/>
       </defs>
       <use xlink:href="#ArialMT-34"/>
      </g>
     </g>
    </g>
    <g id="text_5">
     <!-- Influence -->
     <g style="fill:#262626;" transform="translate(20.084063 107.885838)rotate(-90)scale(0.18 -0.18)">
      <defs>
       <path d="M 597 0 
L 597 4581 
L 1203 4581 
L 1203 0 
L 597 0 
z
" id="ArialMT-49" transform="scale(0.015625)"/>
       <path d="M 422 0 
L 422 3319 
L 928 3319 
L 928 2847 
Q 1294 3394 1984 3394 
Q 2284 3394 2536 3286 
Q 2788 3178 2913 3003 
Q 3038 2828 3088 2588 
Q 3119 2431 3119 2041 
L 3119 0 
L 2556 0 
L 2556 2019 
Q 2556 2363 2490 2533 
Q 2425 2703 2258 2804 
Q 2091 2906 1866 2906 
Q 1506 2906 1245 2678 
Q 984 2450 984 1813 
L 984 0 
L 422 0 
z
" id="ArialMT-6e" transform="scale(0.015625)"/>
       <path d="M 556 0 
L 556 2881 
L 59 2881 
L 59 3319 
L 556 3319 
L 556 3672 
Q 556 4006 616 4169 
Q 697 4388 901 4523 
Q 1106 4659 1475 4659 
Q 1713 4659 2000 4603 
L 1916 4113 
Q 1741 4144 1584 4144 
Q 1328 4144 1222 4034 
Q 1116 3925 1116 3625 
L 1116 3319 
L 1763 3319 
L 1763 2881 
L 1116 2881 
L 1116 0 
L 556 0 
z
" id="ArialMT-66" transform="scale(0.015625)"/>
       <path d="M 409 0 
L 409 4581 
L 972 4581 
L 972 0 
L 409 0 
z
" id="ArialMT-6c" transform="scale(0.015625)"/>
       <path d="M 2597 0 
L 2597 488 
Q 2209 -75 1544 -75 
Q 1250 -75 995 37 
Q 741 150 617 320 
Q 494 491 444 738 
Q 409 903 409 1263 
L 409 3319 
L 972 3319 
L 972 1478 
Q 972 1038 1006 884 
Q 1059 663 1231 536 
Q 1403 409 1656 409 
Q 1909 409 2131 539 
Q 2353 669 2445 892 
Q 2538 1116 2538 1541 
L 2538 3319 
L 3100 3319 
L 3100 0 
L 2597 0 
z
" id="ArialMT-75" transform="scale(0.015625)"/>
       <path d="M 2694 1069 
L 3275 997 
Q 3138 488 2766 206 
Q 2394 -75 1816 -75 
Q 1088 -75 661 373 
Q 234 822 234 1631 
Q 234 2469 665 2931 
Q 1097 3394 1784 3394 
Q 2450 3394 2872 2941 
Q 3294 2488 3294 1666 
Q 3294 1616 3291 1516 
L 816 1516 
Q 847 969 1125 678 
Q 1403 388 1819 388 
Q 2128 388 2347 550 
Q 2566 713 2694 1069 
z
M 847 1978 
L 2700 1978 
Q 2663 2397 2488 2606 
Q 2219 2931 1791 2931 
Q 1403 2931 1139 2672 
Q 875 2413 847 1978 
z
" id="ArialMT-65" transform="scale(0.015625)"/>
       <path d="M 2588 1216 
L 3141 1144 
Q 3050 572 2676 248 
Q 2303 -75 1759 -75 
Q 1078 -75 664 370 
Q 250 816 250 1647 
Q 250 2184 428 2587 
Q 606 2991 970 3192 
Q 1334 3394 1763 3394 
Q 2303 3394 2647 3120 
Q 2991 2847 3088 2344 
L 2541 2259 
Q 2463 2594 2264 2762 
Q 2066 2931 1784 2931 
Q 1359 2931 1093 2626 
Q 828 2322 828 1663 
Q 828 994 1084 691 
Q 1341 388 1753 388 
Q 2084 388 2306 591 
Q 2528 794 2588 1216 
z
" id="ArialMT-63" transform="scale(0.015625)"/>
      </defs>
      <use xlink:href="#ArialMT-49"/>
      <use x="27.783203" xlink:href="#ArialMT-6e"/>
      <use x="83.398438" xlink:href="#ArialMT-66"/>
      <use x="111.181641" xlink:href="#ArialMT-6c"/>
      <use x="133.398438" xlink:href="#ArialMT-75"/>
      <use x="189.013672" xlink:href="#ArialMT-65"/>
      <use x="244.628906" xlink:href="#ArialMT-6e"/>
      <use x="300.244141" xlink:href="#ArialMT-63"/>
      <use x="350.244141" xlink:href="#ArialMT-65"/>
     </g>
    </g>
   </g>
   <g id="PathCollection_1">
    <defs>
     <path d="M 0 3.535534 
C 0.937635 3.535534 1.836992 3.163008 2.5 2.5 
C 3.163008 1.836992 3.535534 0.937635 3.535534 -0 
C 3.535534 -0.937635 3.163008 -1.836992 2.5 -2.5 
C 1.836992 -3.163008 0.937635 -3.535534 0 -3.535534 
C -0.937635 -3.535534 -1.836992 -3.163008 -2.5 -2.5 
C -3.163008 -1.836992 -3.535534 -0.937635 -3.535534 0 
C -3.535534 0.937635 -3.163008 1.836992 -2.5 2.5 
C -1.836992 3.163008 -0.937635 3.535534 0 3.535534 
z
" id="C0_0_3eb152fd58"/>
    </defs>
    <g clip-path="url(#p1564f26672)">
     <use style="fill:#1f77b4;stroke:#ffffff;stroke-width:0.565685;" x="169.638901" xlink:href="#C0_0_3eb152fd58" y="86.501605"/>
    </g>
    <g clip-path="url(#p1564f26672)">
     <use style="fill:#ff7f0e;stroke:#ffffff;stroke-width:0.565685;" x="121.964705" xlink:href="#C0_0_3eb152fd58" y="107.000786"/>
    </g>
    <g clip-path="url(#p1564f26672)">
     <use style="fill:#2ca02c;stroke:#ffffff;stroke-width:0.565685;" x="129.922366" xlink:href="#C0_0_3eb152fd58" y="28.959248"/>
    </g>
    <g clip-path="url(#p1564f26672)">
     <use style="fill:#d62728;stroke:#ffffff;stroke-width:0.565685;" x="180.420907" xlink:href="#C0_0_3eb152fd58" y="116.286927"/>
    </g>
    <g clip-path="url(#p1564f26672)">
     <use style="fill:#9467bd;stroke:#ffffff;stroke-width:0.565685;" x="156.751593" xlink:href="#C0_0_3eb152fd58" y="51.706494"/>
    </g>
    <g clip-path="url(#p1564f26672)">
     <use style="fill:#8c564b;stroke:#ffffff;stroke-width:0.565685;" x="47.139855" xlink:href="#C0_0_3eb152fd58" y="58.59348"/>
    </g>
    <g clip-path="url(#p1564f26672)">
     <use style="fill:#e377c2;stroke:#ffffff;stroke-width:0.565685;" x="55.534654" xlink:href="#C0_0_3eb152fd58" y="55.881652"/>
    </g>
   </g>
   <g id="PathCollection_2"/>
   <g id="PathCollection_3"/>
   <g id="PathCollection_4"/>
   <g id="PathCollection_5"/>
   <g id="PathCollection_6"/>
   <g id="PathCollection_7"/>
   <g id="PathCollection_8"/>
   <g id="PathCollection_9">
    <path clip-path="url(#p1564f26672)" d="M 169.7814 95.263443 
L 179.7814 85.263443 
M 169.7814 85.263443 
L 179.7814 95.263443 
" style="fill:#1f77b4;stroke:#1f77b4;stroke-width:0.8;"/>
    <path clip-path="url(#p1564f26672)" d="M 102.335041 106.459188 
L 112.335041 96.459188 
M 102.335041 96.459188 
L 112.335041 106.459188 
" style="fill:#ff7f0e;stroke:#ff7f0e;stroke-width:0.8;"/>
    <path clip-path="url(#p1564f26672)" d="M 65.172922 31.435687 
L 75.172922 21.435687 
M 65.172922 21.435687 
L 75.172922 31.435687 
" style="fill:#2ca02c;stroke:#2ca02c;stroke-width:0.8;"/>
    <path clip-path="url(#p1564f26672)" d="M 103.634343 117.551761 
L 113.634343 107.551761 
M 103.634343 107.551761 
L 113.634343 117.551761 
" style="fill:#d62728;stroke:#d62728;stroke-width:0.8;"/>
    <path clip-path="url(#p1564f26672)" d="M 89.950098 51.071455 
L 99.950098 41.071455 
M 89.950098 41.071455 
L 99.950098 51.071455 
" style="fill:#9467bd;stroke:#9467bd;stroke-width:0.8;"/>
    <path clip-path="url(#p1564f26672)" d="M 48.532688 61.528361 
L 58.532688 51.528361 
M 48.532688 51.528361 
L 58.532688 61.528361 
" style="fill:#8c564b;stroke:#8c564b;stroke-width:0.8;"/>
    <path clip-path="url(#p1564f26672)" d="M 43.057171 63.297154 
L 53.057171 53.297154 
M 43.057171 53.297154 
L 53.057171 63.297154 
" style="fill:#e377c2;stroke:#e377c2;stroke-width:0.8;"/>
   </g>
   <g id="PathCollection_10"/>
   <g id="PathCollection_11"/>
   <g id="PathCollection_12"/>
   <g id="PathCollection_13"/>
   <g id="PathCollection_14"/>
   <g id="PathCollection_15"/>
   <g id="PathCollection_16"/>
   <g id="patch_3">
    <path d="M 40.2225 120.779489 
L 40.2225 21.943125 
" style="fill:none;stroke:#ffffff;stroke-linecap:square;stroke-linejoin:miter;stroke-width:0.8;"/>
   </g>
   <g id="patch_4">
    <path d="M 192.404318 120.779489 
L 192.404318 21.943125 
" style="fill:none;stroke:#ffffff;stroke-linecap:square;stroke-linejoin:miter;stroke-width:0.8;"/>
   </g>
   <g id="patch_5">
    <path d="M 40.2225 120.779489 
L 192.404318 120.779489 
" style="fill:none;stroke:#ffffff;stroke-linecap:square;stroke-linejoin:miter;stroke-width:0.8;"/>
   </g>
   <g id="patch_6">
    <path d="M 40.2225 21.943125 
L 192.404318 21.943125 
" style="fill:none;stroke:#ffffff;stroke-linecap:square;stroke-linejoin:miter;stroke-width:0.8;"/>
   </g>
   <g id="patch_7">
    <path d="M 171.253465 87.68269 
Q 172.209521 88.382064 172.26321 88.421338 
" style="fill:none;stroke:#1f77b4;stroke-linecap:round;"/>
    <path d="M 168.168034 80.469638 
L 172.26321 88.421338 
L 163.444744 86.926459 
L 168.168034 80.469638 
z
" style="fill:#1f77b4;stroke:#1f77b4;stroke-linecap:round;"/>
   </g>
   <g id="patch_8">
    <path d="M 120.096708 106.293204 
Q 114.652125 104.23084 110.25308 102.564517 
" style="fill:none;stroke:#ff7f0e;stroke-linecap:round;"/>
    <path d="M 116.317424 109.138993 
L 110.25308 102.564517 
L 119.151267 101.657728 
L 116.317424 109.138993 
z
" style="fill:#ff7f0e;stroke:#ff7f0e;stroke-linecap:round;"/>
   </g>
   <g id="patch_9">
    <path d="M 127.927557 28.874996 
Q 100.049595 27.69755 73.288671 26.567283 
" style="fill:none;stroke:#2ca02c;stroke-linecap:round;"/>
    <path d="M 81.112752 30.901305 
L 73.288671 26.567283 
L 81.450337 22.908431 
L 81.112752 30.901305 
z
" style="fill:#2ca02c;stroke:#2ca02c;stroke-linecap:round;"/>
   </g>
   <g id="patch_10">
    <path d="M 178.427323 116.183197 
Q 144.529762 114.419455 111.748725 112.713807 
" style="fill:none;stroke:#d62728;stroke-linecap:round;"/>
    <path d="M 119.530072 117.124094 
L 111.748725 112.713807 
L 119.945762 109.134901 
L 119.530072 117.124094 
z
" style="fill:#d62728;stroke:#d62728;stroke-linecap:round;"/>
   </g>
   <g id="patch_11">
    <path d="M 154.756171 51.524552 
Q 125.847834 48.8887 98.052912 46.354368 
" style="fill:none;stroke:#9467bd;stroke-linecap:round;"/>
    <path d="M 105.656651 51.064268 
L 98.052912 46.354368 
L 106.383075 43.097317 
L 105.656651 51.064268 
z
" style="fill:#9467bd;stroke:#9467bd;stroke-linecap:round;"/>
   </g>
   <g id="patch_12">
    <path d="M 49.040849 57.979389 
Q 50.337078 57.56066 50.569406 57.485609 
" style="fill:none;stroke:#8c564b;stroke-linecap:round;"/>
    <path d="M 41.727169 56.138448 
L 50.569406 57.485609 
L 44.186335 63.751103 
L 41.727169 56.138448 
z
" style="fill:#8c564b;stroke:#8c564b;stroke-linecap:round;"/>
   </g>
   <g id="patch_13">
    <path d="M 53.632423 56.496143 
Q 51.796238 57.089298 51.023953 57.338774 
" style="fill:none;stroke:#e377c2;stroke-linecap:round;"/>
    <path d="M 59.86619 58.685935 
L 51.023953 57.338774 
L 57.407024 51.073281 
L 59.86619 58.685935 
z
" style="fill:#e377c2;stroke:#e377c2;stroke-linecap:round;"/>
   </g>
   <g id="text_6">
    <!-- Regulatory Burden -->
    <g style="fill:#262626;" transform="translate(66.286534 15.943125)scale(0.12 -0.12)">
     <defs>
      <path d="M 503 0 
L 503 4581 
L 2534 4581 
Q 3147 4581 3465 4457 
Q 3784 4334 3975 4021 
Q 4166 3709 4166 3331 
Q 4166 2844 3850 2509 
Q 3534 2175 2875 2084 
Q 3116 1969 3241 1856 
Q 3506 1613 3744 1247 
L 4541 0 
L 3778 0 
L 3172 953 
Q 2906 1366 2734 1584 
Q 2563 1803 2427 1890 
Q 2291 1978 2150 2013 
Q 2047 2034 1813 2034 
L 1109 2034 
L 1109 0 
L 503 0 
z
M 1109 2559 
L 2413 2559 
Q 2828 2559 3062 2645 
Q 3297 2731 3419 2920 
Q 3541 3109 3541 3331 
Q 3541 3656 3305 3865 
Q 3069 4075 2559 4075 
L 1109 4075 
L 1109 2559 
z
" id="ArialMT-52" transform="scale(0.015625)"/>
      <path d="M 319 -275 
L 866 -356 
Q 900 -609 1056 -725 
Q 1266 -881 1628 -881 
Q 2019 -881 2231 -725 
Q 2444 -569 2519 -288 
Q 2563 -116 2559 434 
Q 2191 0 1641 0 
Q 956 0 581 494 
Q 206 988 206 1678 
Q 206 2153 378 2554 
Q 550 2956 876 3175 
Q 1203 3394 1644 3394 
Q 2231 3394 2613 2919 
L 2613 3319 
L 3131 3319 
L 3131 450 
Q 3131 -325 2973 -648 
Q 2816 -972 2473 -1159 
Q 2131 -1347 1631 -1347 
Q 1038 -1347 672 -1080 
Q 306 -813 319 -275 
z
M 784 1719 
Q 784 1066 1043 766 
Q 1303 466 1694 466 
Q 2081 466 2343 764 
Q 2606 1063 2606 1700 
Q 2606 2309 2336 2618 
Q 2066 2928 1684 2928 
Q 1309 2928 1046 2623 
Q 784 2319 784 1719 
z
" id="ArialMT-67" transform="scale(0.015625)"/>
      <path d="M 2588 409 
Q 2275 144 1986 34 
Q 1697 -75 1366 -75 
Q 819 -75 525 192 
Q 231 459 231 875 
Q 231 1119 342 1320 
Q 453 1522 633 1644 
Q 813 1766 1038 1828 
Q 1203 1872 1538 1913 
Q 2219 1994 2541 2106 
Q 2544 2222 2544 2253 
Q 2544 2597 2384 2738 
Q 2169 2928 1744 2928 
Q 1347 2928 1158 2789 
Q 969 2650 878 2297 
L 328 2372 
Q 403 2725 575 2942 
Q 747 3159 1072 3276 
Q 1397 3394 1825 3394 
Q 2250 3394 2515 3294 
Q 2781 3194 2906 3042 
Q 3031 2891 3081 2659 
Q 3109 2516 3109 2141 
L 3109 1391 
Q 3109 606 3145 398 
Q 3181 191 3288 0 
L 2700 0 
Q 2613 175 2588 409 
z
M 2541 1666 
Q 2234 1541 1622 1453 
Q 1275 1403 1131 1340 
Q 988 1278 909 1158 
Q 831 1038 831 891 
Q 831 666 1001 516 
Q 1172 366 1500 366 
Q 1825 366 2078 508 
Q 2331 650 2450 897 
Q 2541 1088 2541 1459 
L 2541 1666 
z
" id="ArialMT-61" transform="scale(0.015625)"/>
      <path d="M 1650 503 
L 1731 6 
Q 1494 -44 1306 -44 
Q 1000 -44 831 53 
Q 663 150 594 308 
Q 525 466 525 972 
L 525 2881 
L 113 2881 
L 113 3319 
L 525 3319 
L 525 4141 
L 1084 4478 
L 1084 3319 
L 1650 3319 
L 1650 2881 
L 1084 2881 
L 1084 941 
Q 1084 700 1114 631 
Q 1144 563 1211 522 
Q 1278 481 1403 481 
Q 1497 481 1650 503 
z
" id="ArialMT-74" transform="scale(0.015625)"/>
      <path d="M 213 1659 
Q 213 2581 725 3025 
Q 1153 3394 1769 3394 
Q 2453 3394 2887 2945 
Q 3322 2497 3322 1706 
Q 3322 1066 3130 698 
Q 2938 331 2570 128 
Q 2203 -75 1769 -75 
Q 1072 -75 642 372 
Q 213 819 213 1659 
z
M 791 1659 
Q 791 1022 1069 705 
Q 1347 388 1769 388 
Q 2188 388 2466 706 
Q 2744 1025 2744 1678 
Q 2744 2294 2464 2611 
Q 2184 2928 1769 2928 
Q 1347 2928 1069 2612 
Q 791 2297 791 1659 
z
" id="ArialMT-6f" transform="scale(0.015625)"/>
      <path d="M 416 0 
L 416 3319 
L 922 3319 
L 922 2816 
Q 1116 3169 1280 3281 
Q 1444 3394 1641 3394 
Q 1925 3394 2219 3213 
L 2025 2691 
Q 1819 2813 1613 2813 
Q 1428 2813 1281 2702 
Q 1134 2591 1072 2394 
Q 978 2094 978 1738 
L 978 0 
L 416 0 
z
" id="ArialMT-72" transform="scale(0.015625)"/>
      <path d="M 397 -1278 
L 334 -750 
Q 519 -800 656 -800 
Q 844 -800 956 -737 
Q 1069 -675 1141 -563 
Q 1194 -478 1313 -144 
Q 1328 -97 1363 -6 
L 103 3319 
L 709 3319 
L 1400 1397 
Q 1534 1031 1641 628 
Q 1738 1016 1872 1384 
L 2581 3319 
L 3144 3319 
L 1881 -56 
Q 1678 -603 1566 -809 
Q 1416 -1088 1222 -1217 
Q 1028 -1347 759 -1347 
Q 597 -1347 397 -1278 
z
" id="ArialMT-79" transform="scale(0.015625)"/>
      <path id="ArialMT-20" transform="scale(0.015625)"/>
      <path d="M 469 0 
L 469 4581 
L 2188 4581 
Q 2713 4581 3030 4442 
Q 3347 4303 3526 4014 
Q 3706 3725 3706 3409 
Q 3706 3116 3547 2856 
Q 3388 2597 3066 2438 
Q 3481 2316 3704 2022 
Q 3928 1728 3928 1328 
Q 3928 1006 3792 729 
Q 3656 453 3456 303 
Q 3256 153 2954 76 
Q 2653 0 2216 0 
L 469 0 
z
M 1075 2656 
L 2066 2656 
Q 2469 2656 2644 2709 
Q 2875 2778 2992 2937 
Q 3109 3097 3109 3338 
Q 3109 3566 3000 3739 
Q 2891 3913 2687 3977 
Q 2484 4041 1991 4041 
L 1075 4041 
L 1075 2656 
z
M 1075 541 
L 2216 541 
Q 2509 541 2628 563 
Q 2838 600 2978 687 
Q 3119 775 3209 942 
Q 3300 1109 3300 1328 
Q 3300 1584 3169 1773 
Q 3038 1963 2805 2039 
Q 2572 2116 2134 2116 
L 1075 2116 
L 1075 541 
z
" id="ArialMT-42" transform="scale(0.015625)"/>
      <path d="M 2575 0 
L 2575 419 
Q 2259 -75 1647 -75 
Q 1250 -75 917 144 
Q 584 363 401 755 
Q 219 1147 219 1656 
Q 219 2153 384 2558 
Q 550 2963 881 3178 
Q 1213 3394 1622 3394 
Q 1922 3394 2156 3267 
Q 2391 3141 2538 2938 
L 2538 4581 
L 3097 4581 
L 3097 0 
L 2575 0 
z
M 797 1656 
Q 797 1019 1065 703 
Q 1334 388 1700 388 
Q 2069 388 2326 689 
Q 2584 991 2584 1609 
Q 2584 2291 2321 2609 
Q 2059 2928 1675 2928 
Q 1300 2928 1048 2622 
Q 797 2316 797 1656 
z
" id="ArialMT-64" transform="scale(0.015625)"/>
     </defs>
     <use xlink:href="#ArialMT-52"/>
     <use x="72.216797" xlink:href="#ArialMT-65"/>
     <use x="127.832031" xlink:href="#ArialMT-67"/>
     <use x="183.447266" xlink:href="#ArialMT-75"/>
     <use x="239.0625" xlink:href="#ArialMT-6c"/>
     <use x="261.279297" xlink:href="#ArialMT-61"/>
     <use x="316.894531" xlink:href="#ArialMT-74"/>
     <use x="344.677734" xlink:href="#ArialMT-6f"/>
     <use x="400.292969" xlink:href="#ArialMT-72"/>
     <use x="433.59375" xlink:href="#ArialMT-79"/>
     <use x="483.59375" xlink:href="#ArialMT-20"/>
     <use x="511.376953" xlink:href="#ArialMT-42"/>
     <use x="578.076172" xlink:href="#ArialMT-75"/>
     <use x="633.691406" xlink:href="#ArialMT-72"/>
     <use x="666.992188" xlink:href="#ArialMT-64"/>
     <use x="722.607422" xlink:href="#ArialMT-65"/>
     <use x="778.222656" xlink:href="#ArialMT-6e"/>
    </g>
   </g>
   <g id="legend_1"/>
  </g>
  <g id="axes_2">
   <g id="patch_14">
    <path d="M 222.840682 120.779489 
L 375.0225 120.779489 
L 375.0225 21.943125 
L 222.840682 21.943125 
z
" style="fill:#eaeaf2;"/>
   </g>
   <g id="matplotlib.axis_3">
    <g id="xtick_5">
     <g id="line2d_9">
      <path clip-path="url(#p6a471c15d4)" d="M 235.590019 120.779489 
L 235.590019 21.943125 
" style="fill:none;stroke:#ffffff;stroke-linecap:round;stroke-width:0.8;"/>
     </g>
    </g>
    <g id="xtick_6">
     <g id="line2d_10">
      <path clip-path="url(#p6a471c15d4)" d="M 279.338016 120.779489 
L 279.338016 21.943125 
" style="fill:none;stroke:#ffffff;stroke-linecap:round;stroke-width:0.8;"/>
     </g>
    </g>
    <g id="xtick_7">
     <g id="line2d_11">
      <path clip-path="url(#p6a471c15d4)" d="M 323.086014 120.779489 
L 323.086014 21.943125 
" style="fill:none;stroke:#ffffff;stroke-linecap:round;stroke-width:0.8;"/>
     </g>
    </g>
    <g id="xtick_8">
     <g id="line2d_12">
      <path clip-path="url(#p6a471c15d4)" d="M 366.834012 120.779489 
L 366.834012 21.943125 
" style="fill:none;stroke:#ffffff;stroke-linecap:round;stroke-width:0.8;"/>
     </g>
    </g>
   </g>
   <g id="matplotlib.axis_4">
    <g id="ytick_5">
     <g id="line2d_13">
      <path clip-path="url(#p6a471c15d4)" d="M 222.840682 113.238358 
L 375.0225 113.238358 
" style="fill:none;stroke:#ffffff;stroke-linecap:round;stroke-width:0.8;"/>
     </g>
    </g>
    <g id="ytick_6">
     <g id="line2d_14">
      <path clip-path="url(#p6a471c15d4)" d="M 222.840682 84.973947 
L 375.0225 84.973947 
" style="fill:none;stroke:#ffffff;stroke-linecap:round;stroke-width:0.8;"/>
     </g>
    </g>
    <g id="ytick_7">
     <g id="line2d_15">
      <path clip-path="url(#p6a471c15d4)" d="M 222.840682 56.709536 
L 375.0225 56.709536 
" style="fill:none;stroke:#ffffff;stroke-linecap:round;stroke-width:0.8;"/>
     </g>
    </g>
    <g id="ytick_8">
     <g id="line2d_16">
      <path clip-path="url(#p6a471c15d4)" d="M 222.840682 28.445126 
L 375.0225 28.445126 
" style="fill:none;stroke:#ffffff;stroke-linecap:round;stroke-width:0.8;"/>
     </g>
    </g>
   </g>
   <g id="PathCollection_17">
    <defs>
     <path d="M 0 3.535534 
C 0.937635 3.535534 1.836992 3.163008 2.5 2.5 
C 3.163008 1.836992 3.535534 0.937635 3.535534 -0 
C 3.535534 -0.937635 3.163008 -1.836992 2.5 -2.5 
C 1.836992 -3.163008 0.937635 -3.535534 0 -3.535534 
C -0.937635 -3.535534 -1.836992 -3.163008 -2.5 -2.5 
C -3.163008 -1.836992 -3.535534 -0.937635 -3.535534 0 
C -3.535534 0.937635 -3.163008 1.836992 -2.5 2.5 
C -1.836992 3.163008 -0.937635 3.535534 0 3.535534 
z
" id="C1_0_f77dc8d832"/>
    </defs>
    <g clip-path="url(#p6a471c15d4)">
     <use style="fill:#1f77b4;stroke:#ffffff;stroke-width:0.565685;" x="352.257083" xlink:href="#C1_0_f77dc8d832" y="86.501605"/>
    </g>
    <g clip-path="url(#p6a471c15d4)">
     <use style="fill:#ff7f0e;stroke:#ffffff;stroke-width:0.565685;" x="304.582886" xlink:href="#C1_0_f77dc8d832" y="107.000786"/>
    </g>
    <g clip-path="url(#p6a471c15d4)">
     <use style="fill:#2ca02c;stroke:#ffffff;stroke-width:0.565685;" x="312.540548" xlink:href="#C1_0_f77dc8d832" y="28.959248"/>
    </g>
    <g clip-path="url(#p6a471c15d4)">
     <use style="fill:#d62728;stroke:#ffffff;stroke-width:0.565685;" x="363.039089" xlink:href="#C1_0_f77dc8d832" y="116.286927"/>
    </g>
    <g clip-path="url(#p6a471c15d4)">
     <use style="fill:#9467bd;stroke:#ffffff;stroke-width:0.565685;" x="339.369775" xlink:href="#C1_0_f77dc8d832" y="51.706494"/>
    </g>
    <g clip-path="url(#p6a471c15d4)">
     <use style="fill:#8c564b;stroke:#ffffff;stroke-width:0.565685;" x="229.758037" xlink:href="#C1_0_f77dc8d832" y="58.59348"/>
    </g>
    <g clip-path="url(#p6a471c15d4)">
     <use style="fill:#e377c2;stroke:#ffffff;stroke-width:0.565685;" x="238.152836" xlink:href="#C1_0_f77dc8d832" y="55.881652"/>
    </g>
   </g>
   <g id="PathCollection_18"/>
   <g id="PathCollection_19"/>
   <g id="PathCollection_20"/>
   <g id="PathCollection_21"/>
   <g id="PathCollection_22"/>
   <g id="PathCollection_23"/>
   <g id="PathCollection_24"/>
   <g id="PathCollection_25">
    <path clip-path="url(#p6a471c15d4)" d="M 363.105145 95.380984 
L 373.105145 85.380984 
M 363.105145 85.380984 
L 373.105145 95.380984 
" style="fill:#1f77b4;stroke:#1f77b4;stroke-width:0.8;"/>
    <path clip-path="url(#p6a471c15d4)" d="M 287.793769 104.395125 
L 297.793769 94.395125 
M 287.793769 94.395125 
L 297.793769 104.395125 
" style="fill:#ff7f0e;stroke:#ff7f0e;stroke-width:0.8;"/>
    <path clip-path="url(#p6a471c15d4)" d="M 273.395948 36.452394 
L 283.395948 26.452394 
M 273.395948 26.452394 
L 283.395948 36.452394 
" style="fill:#2ca02c;stroke:#2ca02c;stroke-width:0.8;"/>
    <path clip-path="url(#p6a471c15d4)" d="M 321.571989 118.330496 
L 331.571989 108.330496 
M 321.571989 108.330496 
L 331.571989 118.330496 
" style="fill:#d62728;stroke:#d62728;stroke-width:0.8;"/>
    <path clip-path="url(#p6a471c15d4)" d="M 280.767981 47.707379 
L 290.767981 37.707379 
M 280.767981 37.707379 
L 290.767981 47.707379 
" style="fill:#9467bd;stroke:#9467bd;stroke-width:0.8;"/>
    <path clip-path="url(#p6a471c15d4)" d="M 228.15761 64.488921 
L 238.15761 54.488921 
M 228.15761 54.488921 
L 238.15761 64.488921 
" style="fill:#8c564b;stroke:#8c564b;stroke-width:0.8;"/>
    <path clip-path="url(#p6a471c15d4)" d="M 226.870761 62.910993 
L 236.870761 52.910993 
M 226.870761 52.910993 
L 236.870761 62.910993 
" style="fill:#e377c2;stroke:#e377c2;stroke-width:0.8;"/>
   </g>
   <g id="PathCollection_26"/>
   <g id="PathCollection_27"/>
   <g id="PathCollection_28"/>
   <g id="PathCollection_29"/>
   <g id="PathCollection_30"/>
   <g id="PathCollection_31"/>
   <g id="PathCollection_32"/>
   <g id="patch_15">
    <path d="M 222.840682 120.779489 
L 222.840682 21.943125 
" style="fill:none;stroke:#ffffff;stroke-linecap:square;stroke-linejoin:miter;stroke-width:0.8;"/>
   </g>
   <g id="patch_16">
    <path d="M 375.0225 120.779489 
L 375.0225 21.943125 
" style="fill:none;stroke:#ffffff;stroke-linecap:square;stroke-linejoin:miter;stroke-width:0.8;"/>
   </g>
   <g id="patch_17">
    <path d="M 222.840682 120.779489 
L 375.0225 120.779489 
" style="fill:none;stroke:#ffffff;stroke-linecap:square;stroke-linejoin:miter;stroke-width:0.8;"/>
   </g>
   <g id="patch_18">
    <path d="M 222.840682 21.943125 
L 375.0225 21.943125 
" style="fill:none;stroke:#ffffff;stroke-linecap:square;stroke-linejoin:miter;stroke-width:0.8;"/>
   </g>
   <g id="patch_19">
    <path d="M 354.203268 86.978004 
Q 360.181822 88.441468 365.074404 89.639102 
" style="fill:none;stroke:#1f77b4;stroke-linecap:round;"/>
    <path d="M 358.254887 83.851685 
L 365.074404 89.639102 
L 356.35276 91.622265 
L 358.254887 83.851685 
z
" style="fill:#1f77b4;stroke:#1f77b4;stroke-linecap:round;"/>
   </g>
   <g id="patch_20">
    <path d="M 302.904894 105.918242 
Q 298.689868 103.198949 295.414331 101.085761 
" style="fill:none;stroke:#ff7f0e;stroke-linecap:round;"/>
    <path d="M 299.968298 108.783902 
L 295.414331 101.085761 
L 304.305224 102.061471 
L 299.968298 108.783902 
z
" style="fill:#ff7f0e;stroke:#ff7f0e;stroke-linecap:round;"/>
   </g>
   <g id="patch_21">
    <path d="M 310.544056 29.105026 
Q 295.468744 30.205785 281.508497 31.225124 
" style="fill:none;stroke:#2ca02c;stroke-linecap:round;"/>
    <path d="M 289.77855 34.631916 
L 281.508497 31.225124 
L 289.195962 26.653158 
L 289.77855 34.631916 
z
" style="fill:#2ca02c;stroke:#2ca02c;stroke-linecap:round;"/>
   </g>
   <g id="patch_22">
    <path d="M 361.049246 116.125608 
Q 344.805963 114.808746 329.677058 113.582228 
" style="fill:none;stroke:#d62728;stroke-linecap:round;"/>
    <path d="M 337.327673 118.215596 
L 329.677058 113.582228 
L 337.974121 110.241757 
L 337.327673 118.215596 
z
" style="fill:#d62728;stroke:#d62728;stroke-linecap:round;"/>
   </g>
   <g id="patch_23">
    <path d="M 337.397004 51.375289 
Q 312.567238 47.206661 288.840075 43.223148 
" style="fill:none;stroke:#9467bd;stroke-linecap:round;"/>
    <path d="M 296.067373 48.492508 
L 288.840075 43.223148 
L 297.391942 40.602925 
L 296.067373 48.492508 
z
" style="fill:#9467bd;stroke:#9467bd;stroke-linecap:round;"/>
   </g>
   <g id="patch_24">
    <path d="M 231.693536 59.103286 
Q 232.425573 59.296103 232.076451 59.204146 
" style="fill:none;stroke:#8c564b;stroke-linecap:round;"/>
    <path d="M 225.359154 53.298393 
L 232.076451 59.204146 
L 223.321471 61.034532 
L 225.359154 53.298393 
z
" style="fill:#8c564b;stroke:#8c564b;stroke-linecap:round;"/>
   </g>
   <g id="patch_25">
    <path d="M 236.247969 56.496994 
Q 235.010467 56.896753 234.836866 56.952832 
" style="fill:none;stroke:#e377c2;stroke-linecap:round;"/>
    <path d="M 243.679103 58.299993 
L 234.836866 56.952832 
L 241.219937 50.687339 
L 243.679103 58.299993 
z
" style="fill:#e377c2;stroke:#e377c2;stroke-linecap:round;"/>
   </g>
   <g id="text_7">
    <!-- Physical Availability/Quality of Water -->
    <g style="fill:#262626;" transform="translate(202.560341 15.943125)scale(0.12 -0.12)">
     <defs>
      <path d="M 494 0 
L 494 4581 
L 2222 4581 
Q 2678 4581 2919 4538 
Q 3256 4481 3484 4323 
Q 3713 4166 3852 3881 
Q 3991 3597 3991 3256 
Q 3991 2672 3619 2267 
Q 3247 1863 2275 1863 
L 1100 1863 
L 1100 0 
L 494 0 
z
M 1100 2403 
L 2284 2403 
Q 2872 2403 3119 2622 
Q 3366 2841 3366 3238 
Q 3366 3525 3220 3729 
Q 3075 3934 2838 4000 
Q 2684 4041 2272 4041 
L 1100 4041 
L 1100 2403 
z
" id="ArialMT-50" transform="scale(0.015625)"/>
      <path d="M 422 0 
L 422 4581 
L 984 4581 
L 984 2938 
Q 1378 3394 1978 3394 
Q 2347 3394 2619 3248 
Q 2891 3103 3008 2847 
Q 3125 2591 3125 2103 
L 3125 0 
L 2563 0 
L 2563 2103 
Q 2563 2525 2380 2717 
Q 2197 2909 1863 2909 
Q 1613 2909 1392 2779 
Q 1172 2650 1078 2428 
Q 984 2206 984 1816 
L 984 0 
L 422 0 
z
" id="ArialMT-68" transform="scale(0.015625)"/>
      <path d="M 197 991 
L 753 1078 
Q 800 744 1014 566 
Q 1228 388 1613 388 
Q 2000 388 2187 545 
Q 2375 703 2375 916 
Q 2375 1106 2209 1216 
Q 2094 1291 1634 1406 
Q 1016 1563 777 1677 
Q 538 1791 414 1992 
Q 291 2194 291 2438 
Q 291 2659 392 2848 
Q 494 3038 669 3163 
Q 800 3259 1026 3326 
Q 1253 3394 1513 3394 
Q 1903 3394 2198 3281 
Q 2494 3169 2634 2976 
Q 2775 2784 2828 2463 
L 2278 2388 
Q 2241 2644 2061 2787 
Q 1881 2931 1553 2931 
Q 1166 2931 1000 2803 
Q 834 2675 834 2503 
Q 834 2394 903 2306 
Q 972 2216 1119 2156 
Q 1203 2125 1616 2013 
Q 2213 1853 2448 1751 
Q 2684 1650 2818 1456 
Q 2953 1263 2953 975 
Q 2953 694 2789 445 
Q 2625 197 2315 61 
Q 2006 -75 1616 -75 
Q 969 -75 630 194 
Q 291 463 197 991 
z
" id="ArialMT-73" transform="scale(0.015625)"/>
      <path d="M 425 3934 
L 425 4581 
L 988 4581 
L 988 3934 
L 425 3934 
z
M 425 0 
L 425 3319 
L 988 3319 
L 988 0 
L 425 0 
z
" id="ArialMT-69" transform="scale(0.015625)"/>
      <path d="M -9 0 
L 1750 4581 
L 2403 4581 
L 4278 0 
L 3588 0 
L 3053 1388 
L 1138 1388 
L 634 0 
L -9 0 
z
M 1313 1881 
L 2866 1881 
L 2388 3150 
Q 2169 3728 2063 4100 
Q 1975 3659 1816 3225 
L 1313 1881 
z
" id="ArialMT-41" transform="scale(0.015625)"/>
      <path d="M 1344 0 
L 81 3319 
L 675 3319 
L 1388 1331 
Q 1503 1009 1600 663 
Q 1675 925 1809 1294 
L 2547 3319 
L 3125 3319 
L 1869 0 
L 1344 0 
z
" id="ArialMT-76" transform="scale(0.015625)"/>
      <path d="M 941 0 
L 419 0 
L 419 4581 
L 981 4581 
L 981 2947 
Q 1338 3394 1891 3394 
Q 2197 3394 2470 3270 
Q 2744 3147 2920 2923 
Q 3097 2700 3197 2384 
Q 3297 2069 3297 1709 
Q 3297 856 2875 390 
Q 2453 -75 1863 -75 
Q 1275 -75 941 416 
L 941 0 
z
M 934 1684 
Q 934 1088 1097 822 
Q 1363 388 1816 388 
Q 2184 388 2453 708 
Q 2722 1028 2722 1663 
Q 2722 2313 2464 2622 
Q 2206 2931 1841 2931 
Q 1472 2931 1203 2611 
Q 934 2291 934 1684 
z
" id="ArialMT-62" transform="scale(0.015625)"/>
      <path d="M 0 -78 
L 1328 4659 
L 1778 4659 
L 453 -78 
L 0 -78 
z
" id="ArialMT-2f" transform="scale(0.015625)"/>
      <path d="M 3966 491 
Q 4388 200 4744 66 
L 4566 -356 
Q 4072 -178 3581 206 
Q 3072 -78 2456 -78 
Q 1834 -78 1328 222 
Q 822 522 548 1065 
Q 275 1609 275 2291 
Q 275 2969 550 3525 
Q 825 4081 1333 4372 
Q 1841 4663 2469 4663 
Q 3103 4663 3612 4361 
Q 4122 4059 4389 3517 
Q 4656 2975 4656 2294 
Q 4656 1728 4484 1276 
Q 4313 825 3966 491 
z
M 2631 1266 
Q 3156 1119 3497 828 
Q 4031 1316 4031 2294 
Q 4031 2850 3842 3265 
Q 3653 3681 3289 3911 
Q 2925 4141 2472 4141 
Q 1794 4141 1347 3677 
Q 900 3213 900 2291 
Q 900 1397 1342 919 
Q 1784 441 2472 441 
Q 2797 441 3084 563 
Q 2800 747 2484 825 
L 2631 1266 
z
" id="ArialMT-51" transform="scale(0.015625)"/>
      <path d="M 1294 0 
L 78 4581 
L 700 4581 
L 1397 1578 
Q 1509 1106 1591 641 
Q 1766 1375 1797 1488 
L 2669 4581 
L 3400 4581 
L 4056 2263 
Q 4303 1400 4413 641 
Q 4500 1075 4641 1638 
L 5359 4581 
L 5969 4581 
L 4713 0 
L 4128 0 
L 3163 3491 
Q 3041 3928 3019 4028 
Q 2947 3713 2884 3491 
L 1913 0 
L 1294 0 
z
" id="ArialMT-57" transform="scale(0.015625)"/>
     </defs>
     <use xlink:href="#ArialMT-50"/>
     <use x="66.699219" xlink:href="#ArialMT-68"/>
     <use x="122.314453" xlink:href="#ArialMT-79"/>
     <use x="172.314453" xlink:href="#ArialMT-73"/>
     <use x="222.314453" xlink:href="#ArialMT-69"/>
     <use x="244.53125" xlink:href="#ArialMT-63"/>
     <use x="294.53125" xlink:href="#ArialMT-61"/>
     <use x="350.146484" xlink:href="#ArialMT-6c"/>
     <use x="372.363281" xlink:href="#ArialMT-20"/>
     <use x="394.646484" xlink:href="#ArialMT-41"/>
     <use x="459.595703" xlink:href="#ArialMT-76"/>
     <use x="509.595703" xlink:href="#ArialMT-61"/>
     <use x="565.210938" xlink:href="#ArialMT-69"/>
     <use x="587.427734" xlink:href="#ArialMT-6c"/>
     <use x="609.644531" xlink:href="#ArialMT-61"/>
     <use x="665.259766" xlink:href="#ArialMT-62"/>
     <use x="720.875" xlink:href="#ArialMT-69"/>
     <use x="743.091797" xlink:href="#ArialMT-6c"/>
     <use x="765.308594" xlink:href="#ArialMT-69"/>
     <use x="787.525391" xlink:href="#ArialMT-74"/>
     <use x="815.308594" xlink:href="#ArialMT-79"/>
     <use x="865.308594" xlink:href="#ArialMT-2f"/>
     <use x="893.091797" xlink:href="#ArialMT-51"/>
     <use x="970.875" xlink:href="#ArialMT-75"/>
     <use x="1026.490234" xlink:href="#ArialMT-61"/>
     <use x="1082.105469" xlink:href="#ArialMT-6c"/>
     <use x="1104.322266" xlink:href="#ArialMT-69"/>
     <use x="1126.539062" xlink:href="#ArialMT-74"/>
     <use x="1154.322266" xlink:href="#ArialMT-79"/>
     <use x="1204.322266" xlink:href="#ArialMT-20"/>
     <use x="1232.105469" xlink:href="#ArialMT-6f"/>
     <use x="1287.720703" xlink:href="#ArialMT-66"/>
     <use x="1315.503906" xlink:href="#ArialMT-20"/>
     <use x="1343.287109" xlink:href="#ArialMT-57"/>
     <use x="1433.921875" xlink:href="#ArialMT-61"/>
     <use x="1489.537109" xlink:href="#ArialMT-74"/>
     <use x="1517.320312" xlink:href="#ArialMT-65"/>
     <use x="1572.935547" xlink:href="#ArialMT-72"/>
    </g>
   </g>
   <g id="legend_2">
    <g id="patch_26">
     <path d="M 380.066136 124.79 
L 540.992699 124.79 
Q 542.992699 124.79 542.992699 122.79 
L 542.992699 23.943125 
Q 542.992699 21.943125 540.992699 21.943125 
L 380.066136 21.943125 
Q 378.066136 21.943125 378.066136 23.943125 
L 378.066136 122.79 
Q 378.066136 124.79 380.066136 124.79 
z
" style="fill:#eaeaf2;opacity:0.8;stroke:#cccccc;stroke-linejoin:miter;"/>
    </g>
    <g id="PathCollection_33">
     <defs>
      <path d="M 0 3 
C 0.795609 3 1.55874 2.683901 2.12132 2.12132 
C 2.683901 1.55874 3 0.795609 3 0 
C 3 -0.795609 2.683901 -1.55874 2.12132 -2.12132 
C 1.55874 -2.683901 0.795609 -3 0 -3 
C -0.795609 -3 -1.55874 -2.683901 -2.12132 -2.12132 
C -2.683901 -1.55874 -3 -0.795609 -3 0 
C -3 0.795609 -2.683901 1.55874 -2.12132 2.12132 
C -1.55874 2.683901 -0.795609 3 0 3 
z
" id="m3e69080a9f" style="stroke:#1f77b4;"/>
     </defs>
     <g>
      <use style="fill:#1f77b4;stroke:#1f77b4;" x="392.066136" xlink:href="#m3e69080a9f" y="30.475938"/>
     </g>
    </g>
    <g id="text_8">
     <!-- rural communities -->
     <g style="fill:#262626;" transform="translate(410.066136 33.100938)scale(0.1 -0.1)">
      <defs>
       <path d="M 422 0 
L 422 3319 
L 925 3319 
L 925 2853 
Q 1081 3097 1340 3245 
Q 1600 3394 1931 3394 
Q 2300 3394 2536 3241 
Q 2772 3088 2869 2813 
Q 3263 3394 3894 3394 
Q 4388 3394 4653 3120 
Q 4919 2847 4919 2278 
L 4919 0 
L 4359 0 
L 4359 2091 
Q 4359 2428 4304 2576 
Q 4250 2725 4106 2815 
Q 3963 2906 3769 2906 
Q 3419 2906 3187 2673 
Q 2956 2441 2956 1928 
L 2956 0 
L 2394 0 
L 2394 2156 
Q 2394 2531 2256 2718 
Q 2119 2906 1806 2906 
Q 1569 2906 1367 2781 
Q 1166 2656 1075 2415 
Q 984 2175 984 1722 
L 984 0 
L 422 0 
z
" id="ArialMT-6d" transform="scale(0.015625)"/>
      </defs>
      <use xlink:href="#ArialMT-72"/>
      <use x="33.300781" xlink:href="#ArialMT-75"/>
      <use x="88.916016" xlink:href="#ArialMT-72"/>
      <use x="122.216797" xlink:href="#ArialMT-61"/>
      <use x="177.832031" xlink:href="#ArialMT-6c"/>
      <use x="200.048828" xlink:href="#ArialMT-20"/>
      <use x="227.832031" xlink:href="#ArialMT-63"/>
      <use x="277.832031" xlink:href="#ArialMT-6f"/>
      <use x="333.447266" xlink:href="#ArialMT-6d"/>
      <use x="416.748047" xlink:href="#ArialMT-6d"/>
      <use x="500.048828" xlink:href="#ArialMT-75"/>
      <use x="555.664062" xlink:href="#ArialMT-6e"/>
      <use x="611.279297" xlink:href="#ArialMT-69"/>
      <use x="633.496094" xlink:href="#ArialMT-74"/>
      <use x="661.279297" xlink:href="#ArialMT-69"/>
      <use x="683.496094" xlink:href="#ArialMT-65"/>
      <use x="739.111328" xlink:href="#ArialMT-73"/>
     </g>
    </g>
    <g id="PathCollection_34">
     <defs>
      <path d="M 0 3 
C 0.795609 3 1.55874 2.683901 2.12132 2.12132 
C 2.683901 1.55874 3 0.795609 3 0 
C 3 -0.795609 2.683901 -1.55874 2.12132 -2.12132 
C 1.55874 -2.683901 0.795609 -3 0 -3 
C -0.795609 -3 -1.55874 -2.683901 -2.12132 -2.12132 
C -2.683901 -1.55874 -3 -0.795609 -3 0 
C -3 0.795609 -2.683901 1.55874 -2.12132 2.12132 
C -1.55874 2.683901 -0.795609 3 0 3 
z
" id="m2f8056547d" style="stroke:#ff7f0e;"/>
     </defs>
     <g>
      <use style="fill:#ff7f0e;stroke:#ff7f0e;" x="392.066136" xlink:href="#m2f8056547d" y="44.62125"/>
     </g>
    </g>
    <g id="text_9">
     <!-- small growers -->
     <g style="fill:#262626;" transform="translate(410.066136 47.24625)scale(0.1 -0.1)">
      <defs>
       <path d="M 1034 0 
L 19 3319 
L 600 3319 
L 1128 1403 
L 1325 691 
Q 1338 744 1497 1375 
L 2025 3319 
L 2603 3319 
L 3100 1394 
L 3266 759 
L 3456 1400 
L 4025 3319 
L 4572 3319 
L 3534 0 
L 2950 0 
L 2422 1988 
L 2294 2553 
L 1622 0 
L 1034 0 
z
" id="ArialMT-77" transform="scale(0.015625)"/>
      </defs>
      <use xlink:href="#ArialMT-73"/>
      <use x="50" xlink:href="#ArialMT-6d"/>
      <use x="133.300781" xlink:href="#ArialMT-61"/>
      <use x="188.916016" xlink:href="#ArialMT-6c"/>
      <use x="211.132812" xlink:href="#ArialMT-6c"/>
      <use x="233.349609" xlink:href="#ArialMT-20"/>
      <use x="261.132812" xlink:href="#ArialMT-67"/>
      <use x="316.748047" xlink:href="#ArialMT-72"/>
      <use x="350.048828" xlink:href="#ArialMT-6f"/>
      <use x="405.664062" xlink:href="#ArialMT-77"/>
      <use x="477.880859" xlink:href="#ArialMT-65"/>
      <use x="533.496094" xlink:href="#ArialMT-72"/>
      <use x="566.796875" xlink:href="#ArialMT-73"/>
     </g>
    </g>
    <g id="PathCollection_35">
     <defs>
      <path d="M 0 3 
C 0.795609 3 1.55874 2.683901 2.12132 2.12132 
C 2.683901 1.55874 3 0.795609 3 0 
C 3 -0.795609 2.683901 -1.55874 2.12132 -2.12132 
C 1.55874 -2.683901 0.795609 -3 0 -3 
C -0.795609 -3 -1.55874 -2.683901 -2.12132 -2.12132 
C -2.683901 -1.55874 -3 -0.795609 -3 0 
C -3 0.795609 -2.683901 1.55874 -2.12132 2.12132 
C -1.55874 2.683901 -0.795609 3 0 3 
z
" id="mda71c8dd19" style="stroke:#2ca02c;"/>
     </defs>
     <g>
      <use style="fill:#2ca02c;stroke:#2ca02c;" x="392.066136" xlink:href="#mda71c8dd19" y="58.88375"/>
     </g>
    </g>
    <g id="text_10">
     <!-- investor growers -->
     <g style="fill:#262626;" transform="translate(410.066136 61.50875)scale(0.1 -0.1)">
      <use xlink:href="#ArialMT-69"/>
      <use x="22.216797" xlink:href="#ArialMT-6e"/>
      <use x="77.832031" xlink:href="#ArialMT-76"/>
      <use x="127.832031" xlink:href="#ArialMT-65"/>
      <use x="183.447266" xlink:href="#ArialMT-73"/>
      <use x="233.447266" xlink:href="#ArialMT-74"/>
      <use x="261.230469" xlink:href="#ArialMT-6f"/>
      <use x="316.845703" xlink:href="#ArialMT-72"/>
      <use x="350.146484" xlink:href="#ArialMT-20"/>
      <use x="377.929688" xlink:href="#ArialMT-67"/>
      <use x="433.544922" xlink:href="#ArialMT-72"/>
      <use x="466.845703" xlink:href="#ArialMT-6f"/>
      <use x="522.460938" xlink:href="#ArialMT-77"/>
      <use x="594.677734" xlink:href="#ArialMT-65"/>
      <use x="650.292969" xlink:href="#ArialMT-72"/>
      <use x="683.59375" xlink:href="#ArialMT-73"/>
     </g>
    </g>
    <g id="PathCollection_36">
     <defs>
      <path d="M 0 3 
C 0.795609 3 1.55874 2.683901 2.12132 2.12132 
C 2.683901 1.55874 3 0.795609 3 0 
C 3 -0.795609 2.683901 -1.55874 2.12132 -2.12132 
C 1.55874 -2.683901 0.795609 -3 0 -3 
C -0.795609 -3 -1.55874 -2.683901 -2.12132 -2.12132 
C -2.683901 -1.55874 -3 -0.795609 -3 0 
C -3 0.795609 -2.683901 1.55874 -2.12132 2.12132 
C -1.55874 2.683901 -0.795609 3 0 3 
z
" id="m6e0a691588" style="stroke:#d62728;"/>
     </defs>
     <g>
      <use style="fill:#d62728;stroke:#d62728;" x="392.066136" xlink:href="#m6e0a691588" y="73.268125"/>
     </g>
    </g>
    <g id="text_11">
     <!-- small growers (white area) -->
     <g style="fill:#262626;" transform="translate(410.066136 75.893125)scale(0.1 -0.1)">
      <defs>
       <path d="M 1497 -1347 
Q 1031 -759 709 28 
Q 388 816 388 1659 
Q 388 2403 628 3084 
Q 909 3875 1497 4659 
L 1900 4659 
Q 1522 4009 1400 3731 
Q 1209 3300 1100 2831 
Q 966 2247 966 1656 
Q 966 153 1900 -1347 
L 1497 -1347 
z
" id="ArialMT-28" transform="scale(0.015625)"/>
       <path d="M 791 -1347 
L 388 -1347 
Q 1322 153 1322 1656 
Q 1322 2244 1188 2822 
Q 1081 3291 891 3722 
Q 769 4003 388 4659 
L 791 4659 
Q 1378 3875 1659 3084 
Q 1900 2403 1900 1659 
Q 1900 816 1576 28 
Q 1253 -759 791 -1347 
z
" id="ArialMT-29" transform="scale(0.015625)"/>
      </defs>
      <use xlink:href="#ArialMT-73"/>
      <use x="50" xlink:href="#ArialMT-6d"/>
      <use x="133.300781" xlink:href="#ArialMT-61"/>
      <use x="188.916016" xlink:href="#ArialMT-6c"/>
      <use x="211.132812" xlink:href="#ArialMT-6c"/>
      <use x="233.349609" xlink:href="#ArialMT-20"/>
      <use x="261.132812" xlink:href="#ArialMT-67"/>
      <use x="316.748047" xlink:href="#ArialMT-72"/>
      <use x="350.048828" xlink:href="#ArialMT-6f"/>
      <use x="405.664062" xlink:href="#ArialMT-77"/>
      <use x="477.880859" xlink:href="#ArialMT-65"/>
      <use x="533.496094" xlink:href="#ArialMT-72"/>
      <use x="566.796875" xlink:href="#ArialMT-73"/>
      <use x="616.796875" xlink:href="#ArialMT-20"/>
      <use x="644.580078" xlink:href="#ArialMT-28"/>
      <use x="677.880859" xlink:href="#ArialMT-77"/>
      <use x="750.097656" xlink:href="#ArialMT-68"/>
      <use x="805.712891" xlink:href="#ArialMT-69"/>
      <use x="827.929688" xlink:href="#ArialMT-74"/>
      <use x="855.712891" xlink:href="#ArialMT-65"/>
      <use x="911.328125" xlink:href="#ArialMT-20"/>
      <use x="939.111328" xlink:href="#ArialMT-61"/>
      <use x="994.726562" xlink:href="#ArialMT-72"/>
      <use x="1028.027344" xlink:href="#ArialMT-65"/>
      <use x="1083.642578" xlink:href="#ArialMT-61"/>
      <use x="1139.257812" xlink:href="#ArialMT-29"/>
     </g>
    </g>
    <g id="PathCollection_37">
     <defs>
      <path d="M 0 3 
C 0.795609 3 1.55874 2.683901 2.12132 2.12132 
C 2.683901 1.55874 3 0.795609 3 0 
C 3 -0.795609 2.683901 -1.55874 2.12132 -2.12132 
C 1.55874 -2.683901 0.795609 -3 0 -3 
C -0.795609 -3 -1.55874 -2.683901 -2.12132 -2.12132 
C -2.683901 -1.55874 -3 -0.795609 -3 0 
C -3 0.795609 -2.683901 1.55874 -2.12132 2.12132 
C -1.55874 2.683901 -0.795609 3 0 3 
z
" id="m1ca032587a" style="stroke:#9467bd;"/>
     </defs>
     <g>
      <use style="fill:#9467bd;stroke:#9467bd;" x="392.066136" xlink:href="#m1ca032587a" y="87.6525"/>
     </g>
    </g>
    <g id="text_12">
     <!-- investor growers (white area) -->
     <g style="fill:#262626;" transform="translate(410.066136 90.2775)scale(0.1 -0.1)">
      <use xlink:href="#ArialMT-69"/>
      <use x="22.216797" xlink:href="#ArialMT-6e"/>
      <use x="77.832031" xlink:href="#ArialMT-76"/>
      <use x="127.832031" xlink:href="#ArialMT-65"/>
      <use x="183.447266" xlink:href="#ArialMT-73"/>
      <use x="233.447266" xlink:href="#ArialMT-74"/>
      <use x="261.230469" xlink:href="#ArialMT-6f"/>
      <use x="316.845703" xlink:href="#ArialMT-72"/>
      <use x="350.146484" xlink:href="#ArialMT-20"/>
      <use x="377.929688" xlink:href="#ArialMT-67"/>
      <use x="433.544922" xlink:href="#ArialMT-72"/>
      <use x="466.845703" xlink:href="#ArialMT-6f"/>
      <use x="522.460938" xlink:href="#ArialMT-77"/>
      <use x="594.677734" xlink:href="#ArialMT-65"/>
      <use x="650.292969" xlink:href="#ArialMT-72"/>
      <use x="683.59375" xlink:href="#ArialMT-73"/>
      <use x="733.59375" xlink:href="#ArialMT-20"/>
      <use x="761.376953" xlink:href="#ArialMT-28"/>
      <use x="794.677734" xlink:href="#ArialMT-77"/>
      <use x="866.894531" xlink:href="#ArialMT-68"/>
      <use x="922.509766" xlink:href="#ArialMT-69"/>
      <use x="944.726562" xlink:href="#ArialMT-74"/>
      <use x="972.509766" xlink:href="#ArialMT-65"/>
      <use x="1028.125" xlink:href="#ArialMT-20"/>
      <use x="1055.908203" xlink:href="#ArialMT-61"/>
      <use x="1111.523438" xlink:href="#ArialMT-72"/>
      <use x="1144.824219" xlink:href="#ArialMT-65"/>
      <use x="1200.439453" xlink:href="#ArialMT-61"/>
      <use x="1256.054688" xlink:href="#ArialMT-29"/>
     </g>
    </g>
    <g id="PathCollection_38">
     <defs>
      <path d="M 0 3 
C 0.795609 3 1.55874 2.683901 2.12132 2.12132 
C 2.683901 1.55874 3 0.795609 3 0 
C 3 -0.795609 2.683901 -1.55874 2.12132 -2.12132 
C 1.55874 -2.683901 0.795609 -3 0 -3 
C -0.795609 -3 -1.55874 -2.683901 -2.12132 -2.12132 
C -2.683901 -1.55874 -3 -0.795609 -3 0 
C -3 0.795609 -2.683901 1.55874 -2.12132 2.12132 
C -1.55874 2.683901 -0.795609 3 0 3 
z
" id="m82709c424c" style="stroke:#8c564b;"/>
     </defs>
     <g>
      <use style="fill:#8c564b;stroke:#8c564b;" x="392.066136" xlink:href="#m82709c424c" y="101.915"/>
     </g>
    </g>
    <g id="text_13">
     <!-- municipalities -->
     <g style="fill:#262626;" transform="translate(410.066136 104.54)scale(0.1 -0.1)">
      <defs>
       <path d="M 422 -1272 
L 422 3319 
L 934 3319 
L 934 2888 
Q 1116 3141 1344 3267 
Q 1572 3394 1897 3394 
Q 2322 3394 2647 3175 
Q 2972 2956 3137 2557 
Q 3303 2159 3303 1684 
Q 3303 1175 3120 767 
Q 2938 359 2589 142 
Q 2241 -75 1856 -75 
Q 1575 -75 1351 44 
Q 1128 163 984 344 
L 984 -1272 
L 422 -1272 
z
M 931 1641 
Q 931 1000 1190 694 
Q 1450 388 1819 388 
Q 2194 388 2461 705 
Q 2728 1022 2728 1688 
Q 2728 2322 2467 2637 
Q 2206 2953 1844 2953 
Q 1484 2953 1207 2617 
Q 931 2281 931 1641 
z
" id="ArialMT-70" transform="scale(0.015625)"/>
      </defs>
      <use xlink:href="#ArialMT-6d"/>
      <use x="83.300781" xlink:href="#ArialMT-75"/>
      <use x="138.916016" xlink:href="#ArialMT-6e"/>
      <use x="194.53125" xlink:href="#ArialMT-69"/>
      <use x="216.748047" xlink:href="#ArialMT-63"/>
      <use x="266.748047" xlink:href="#ArialMT-69"/>
      <use x="288.964844" xlink:href="#ArialMT-70"/>
      <use x="344.580078" xlink:href="#ArialMT-61"/>
      <use x="400.195312" xlink:href="#ArialMT-6c"/>
      <use x="422.412109" xlink:href="#ArialMT-69"/>
      <use x="444.628906" xlink:href="#ArialMT-74"/>
      <use x="472.412109" xlink:href="#ArialMT-69"/>
      <use x="494.628906" xlink:href="#ArialMT-65"/>
      <use x="550.244141" xlink:href="#ArialMT-73"/>
     </g>
    </g>
    <g id="PathCollection_39">
     <defs>
      <path d="M 0 3 
C 0.795609 3 1.55874 2.683901 2.12132 2.12132 
C 2.683901 1.55874 3 0.795609 3 0 
C 3 -0.795609 2.683901 -1.55874 2.12132 -2.12132 
C 1.55874 -2.683901 0.795609 -3 0 -3 
C -0.795609 -3 -1.55874 -2.683901 -2.12132 -2.12132 
C -2.683901 -1.55874 -3 -0.795609 -3 0 
C -3 0.795609 -2.683901 1.55874 -2.12132 2.12132 
C -1.55874 2.683901 -0.795609 3 0 3 
z
" id="m8307a59a40" style="stroke:#e377c2;"/>
     </defs>
     <g>
      <use style="fill:#e377c2;stroke:#e377c2;" x="392.066136" xlink:href="#m8307a59a40" y="116.060313"/>
     </g>
    </g>
    <g id="text_14">
     <!-- other dischargers -->
     <g style="fill:#262626;" transform="translate(410.066136 118.685313)scale(0.1 -0.1)">
      <use xlink:href="#ArialMT-6f"/>
      <use x="55.615234" xlink:href="#ArialMT-74"/>
      <use x="83.398438" xlink:href="#ArialMT-68"/>
      <use x="139.013672" xlink:href="#ArialMT-65"/>
      <use x="194.628906" xlink:href="#ArialMT-72"/>
      <use x="227.929688" xlink:href="#ArialMT-20"/>
      <use x="255.712891" xlink:href="#ArialMT-64"/>
      <use x="311.328125" xlink:href="#ArialMT-69"/>
      <use x="333.544922" xlink:href="#ArialMT-73"/>
      <use x="383.544922" xlink:href="#ArialMT-63"/>
      <use x="433.544922" xlink:href="#ArialMT-68"/>
      <use x="489.160156" xlink:href="#ArialMT-61"/>
      <use x="544.775391" xlink:href="#ArialMT-72"/>
      <use x="578.076172" xlink:href="#ArialMT-67"/>
      <use x="633.691406" xlink:href="#ArialMT-65"/>
      <use x="689.306641" xlink:href="#ArialMT-72"/>
      <use x="722.607422" xlink:href="#ArialMT-73"/>
     </g>
    </g>
   </g>
  </g>
  <g id="axes_3">
   <g id="patch_27">
    <path d="M 40.2225 239.383125 
L 192.404318 239.383125 
L 192.404318 140.546761 
L 40.2225 140.546761 
z
" style="fill:#eaeaf2;"/>
   </g>
   <g id="matplotlib.axis_5">
    <g id="xtick_9">
     <g id="line2d_17">
      <path clip-path="url(#p1a97f151cf)" d="M 52.971837 239.383125 
L 52.971837 140.546761 
" style="fill:none;stroke:#ffffff;stroke-linecap:round;stroke-width:0.8;"/>
     </g>
     <g id="text_15">
      <!-- 3.0 -->
      <g style="fill:#262626;" transform="translate(46.021837 253.540937)scale(0.1 -0.1)">
       <defs>
        <path d="M 581 0 
L 581 641 
L 1222 641 
L 1222 0 
L 581 0 
z
" id="ArialMT-2e" transform="scale(0.015625)"/>
        <path d="M 266 2259 
Q 266 3072 433 3567 
Q 600 4063 929 4331 
Q 1259 4600 1759 4600 
Q 2128 4600 2406 4451 
Q 2684 4303 2865 4023 
Q 3047 3744 3150 3342 
Q 3253 2941 3253 2259 
Q 3253 1453 3087 958 
Q 2922 463 2592 192 
Q 2263 -78 1759 -78 
Q 1097 -78 719 397 
Q 266 969 266 2259 
z
M 844 2259 
Q 844 1131 1108 757 
Q 1372 384 1759 384 
Q 2147 384 2411 759 
Q 2675 1134 2675 2259 
Q 2675 3391 2411 3762 
Q 2147 4134 1753 4134 
Q 1366 4134 1134 3806 
Q 844 3388 844 2259 
z
" id="ArialMT-30" transform="scale(0.015625)"/>
       </defs>
       <use xlink:href="#ArialMT-33"/>
       <use x="55.615234" xlink:href="#ArialMT-2e"/>
       <use x="83.398438" xlink:href="#ArialMT-30"/>
      </g>
     </g>
    </g>
    <g id="xtick_10">
     <g id="line2d_18">
      <path clip-path="url(#p1a97f151cf)" d="M 96.719834 239.383125 
L 96.719834 140.546761 
" style="fill:none;stroke:#ffffff;stroke-linecap:round;stroke-width:0.8;"/>
     </g>
     <g id="text_16">
      <!-- 3.5 -->
      <g style="fill:#262626;" transform="translate(89.769834 253.540937)scale(0.1 -0.1)">
       <defs>
        <path d="M 266 1200 
L 856 1250 
Q 922 819 1161 601 
Q 1400 384 1738 384 
Q 2144 384 2425 690 
Q 2706 997 2706 1503 
Q 2706 1984 2436 2262 
Q 2166 2541 1728 2541 
Q 1456 2541 1237 2417 
Q 1019 2294 894 2097 
L 366 2166 
L 809 4519 
L 3088 4519 
L 3088 3981 
L 1259 3981 
L 1013 2750 
Q 1425 3038 1878 3038 
Q 2478 3038 2890 2622 
Q 3303 2206 3303 1553 
Q 3303 931 2941 478 
Q 2500 -78 1738 -78 
Q 1113 -78 717 272 
Q 322 622 266 1200 
z
" id="ArialMT-35" transform="scale(0.015625)"/>
       </defs>
       <use xlink:href="#ArialMT-33"/>
       <use x="55.615234" xlink:href="#ArialMT-2e"/>
       <use x="83.398438" xlink:href="#ArialMT-35"/>
      </g>
     </g>
    </g>
    <g id="xtick_11">
     <g id="line2d_19">
      <path clip-path="url(#p1a97f151cf)" d="M 140.467832 239.383125 
L 140.467832 140.546761 
" style="fill:none;stroke:#ffffff;stroke-linecap:round;stroke-width:0.8;"/>
     </g>
     <g id="text_17">
      <!-- 4.0 -->
      <g style="fill:#262626;" transform="translate(133.517832 253.540937)scale(0.1 -0.1)">
       <use xlink:href="#ArialMT-34"/>
       <use x="55.615234" xlink:href="#ArialMT-2e"/>
       <use x="83.398438" xlink:href="#ArialMT-30"/>
      </g>
     </g>
    </g>
    <g id="xtick_12">
     <g id="line2d_20">
      <path clip-path="url(#p1a97f151cf)" d="M 184.21583 239.383125 
L 184.21583 140.546761 
" style="fill:none;stroke:#ffffff;stroke-linecap:round;stroke-width:0.8;"/>
     </g>
     <g id="text_18">
      <!-- 4.5 -->
      <g style="fill:#262626;" transform="translate(177.26583 253.540937)scale(0.1 -0.1)">
       <use xlink:href="#ArialMT-34"/>
       <use x="55.615234" xlink:href="#ArialMT-2e"/>
       <use x="83.398438" xlink:href="#ArialMT-35"/>
      </g>
     </g>
    </g>
    <g id="text_19">
     <!-- Sensitivity -->
     <g style="fill:#262626;" transform="translate(75.800753 272.631875)scale(0.18 -0.18)">
      <defs>
       <path d="M 288 1472 
L 859 1522 
Q 900 1178 1048 958 
Q 1197 738 1509 602 
Q 1822 466 2213 466 
Q 2559 466 2825 569 
Q 3091 672 3220 851 
Q 3350 1031 3350 1244 
Q 3350 1459 3225 1620 
Q 3100 1781 2813 1891 
Q 2628 1963 1997 2114 
Q 1366 2266 1113 2400 
Q 784 2572 623 2826 
Q 463 3081 463 3397 
Q 463 3744 659 4045 
Q 856 4347 1234 4503 
Q 1613 4659 2075 4659 
Q 2584 4659 2973 4495 
Q 3363 4331 3572 4012 
Q 3781 3694 3797 3291 
L 3216 3247 
Q 3169 3681 2898 3903 
Q 2628 4125 2100 4125 
Q 1550 4125 1298 3923 
Q 1047 3722 1047 3438 
Q 1047 3191 1225 3031 
Q 1400 2872 2139 2705 
Q 2878 2538 3153 2413 
Q 3553 2228 3743 1945 
Q 3934 1663 3934 1294 
Q 3934 928 3725 604 
Q 3516 281 3123 101 
Q 2731 -78 2241 -78 
Q 1619 -78 1198 103 
Q 778 284 539 648 
Q 300 1013 288 1472 
z
" id="ArialMT-53" transform="scale(0.015625)"/>
      </defs>
      <use xlink:href="#ArialMT-53"/>
      <use x="66.699219" xlink:href="#ArialMT-65"/>
      <use x="122.314453" xlink:href="#ArialMT-6e"/>
      <use x="177.929688" xlink:href="#ArialMT-73"/>
      <use x="227.929688" xlink:href="#ArialMT-69"/>
      <use x="250.146484" xlink:href="#ArialMT-74"/>
      <use x="277.929688" xlink:href="#ArialMT-69"/>
      <use x="300.146484" xlink:href="#ArialMT-76"/>
      <use x="350.146484" xlink:href="#ArialMT-69"/>
      <use x="372.363281" xlink:href="#ArialMT-74"/>
      <use x="400.146484" xlink:href="#ArialMT-79"/>
     </g>
    </g>
   </g>
   <g id="matplotlib.axis_6">
    <g id="ytick_9">
     <g id="line2d_21">
      <path clip-path="url(#p1a97f151cf)" d="M 40.2225 231.841994 
L 192.404318 231.841994 
" style="fill:none;stroke:#ffffff;stroke-linecap:round;stroke-width:0.8;"/>
     </g>
     <g id="text_20">
      <!-- 1 -->
      <g style="fill:#262626;" transform="translate(27.661563 235.420901)scale(0.1 -0.1)">
       <use xlink:href="#ArialMT-31"/>
      </g>
     </g>
    </g>
    <g id="ytick_10">
     <g id="line2d_22">
      <path clip-path="url(#p1a97f151cf)" d="M 40.2225 203.577584 
L 192.404318 203.577584 
" style="fill:none;stroke:#ffffff;stroke-linecap:round;stroke-width:0.8;"/>
     </g>
     <g id="text_21">
      <!-- 2 -->
      <g style="fill:#262626;" transform="translate(27.661563 207.15649)scale(0.1 -0.1)">
       <use xlink:href="#ArialMT-32"/>
      </g>
     </g>
    </g>
    <g id="ytick_11">
     <g id="line2d_23">
      <path clip-path="url(#p1a97f151cf)" d="M 40.2225 175.313173 
L 192.404318 175.313173 
" style="fill:none;stroke:#ffffff;stroke-linecap:round;stroke-width:0.8;"/>
     </g>
     <g id="text_22">
      <!-- 3 -->
      <g style="fill:#262626;" transform="translate(27.661563 178.892079)scale(0.1 -0.1)">
       <use xlink:href="#ArialMT-33"/>
      </g>
     </g>
    </g>
    <g id="ytick_12">
     <g id="line2d_24">
      <path clip-path="url(#p1a97f151cf)" d="M 40.2225 147.048762 
L 192.404318 147.048762 
" style="fill:none;stroke:#ffffff;stroke-linecap:round;stroke-width:0.8;"/>
     </g>
     <g id="text_23">
      <!-- 4 -->
      <g style="fill:#262626;" transform="translate(27.661563 150.627668)scale(0.1 -0.1)">
       <use xlink:href="#ArialMT-34"/>
      </g>
     </g>
    </g>
    <g id="text_24">
     <!-- Influence -->
     <g style="fill:#262626;" transform="translate(20.084063 226.489474)rotate(-90)scale(0.18 -0.18)">
      <use xlink:href="#ArialMT-49"/>
      <use x="27.783203" xlink:href="#ArialMT-6e"/>
      <use x="83.398438" xlink:href="#ArialMT-66"/>
      <use x="111.181641" xlink:href="#ArialMT-6c"/>
      <use x="133.398438" xlink:href="#ArialMT-75"/>
      <use x="189.013672" xlink:href="#ArialMT-65"/>
      <use x="244.628906" xlink:href="#ArialMT-6e"/>
      <use x="300.244141" xlink:href="#ArialMT-63"/>
      <use x="350.244141" xlink:href="#ArialMT-65"/>
     </g>
    </g>
   </g>
   <g id="PathCollection_40">
    <defs>
     <path d="M 0 3.535534 
C 0.937635 3.535534 1.836992 3.163008 2.5 2.5 
C 3.163008 1.836992 3.535534 0.937635 3.535534 -0 
C 3.535534 -0.937635 3.163008 -1.836992 2.5 -2.5 
C 1.836992 -3.163008 0.937635 -3.535534 0 -3.535534 
C -0.937635 -3.535534 -1.836992 -3.163008 -2.5 -2.5 
C -3.163008 -1.836992 -3.535534 -0.937635 -3.535534 0 
C -3.535534 0.937635 -3.163008 1.836992 -2.5 2.5 
C -1.836992 3.163008 -0.937635 3.535534 0 3.535534 
z
" id="C2_0_b9c031122a"/>
    </defs>
    <g clip-path="url(#p1a97f151cf)">
     <use style="fill:#1f77b4;stroke:#ffffff;stroke-width:0.565685;" x="169.638901" xlink:href="#C2_0_b9c031122a" y="205.105242"/>
    </g>
    <g clip-path="url(#p1a97f151cf)">
     <use style="fill:#ff7f0e;stroke:#ffffff;stroke-width:0.565685;" x="121.964705" xlink:href="#C2_0_b9c031122a" y="225.604423"/>
    </g>
    <g clip-path="url(#p1a97f151cf)">
     <use style="fill:#2ca02c;stroke:#ffffff;stroke-width:0.565685;" x="129.922366" xlink:href="#C2_0_b9c031122a" y="147.562884"/>
    </g>
    <g clip-path="url(#p1a97f151cf)">
     <use style="fill:#d62728;stroke:#ffffff;stroke-width:0.565685;" x="180.420907" xlink:href="#C2_0_b9c031122a" y="234.890563"/>
    </g>
    <g clip-path="url(#p1a97f151cf)">
     <use style="fill:#9467bd;stroke:#ffffff;stroke-width:0.565685;" x="156.751593" xlink:href="#C2_0_b9c031122a" y="170.310131"/>
    </g>
    <g clip-path="url(#p1a97f151cf)">
     <use style="fill:#8c564b;stroke:#ffffff;stroke-width:0.565685;" x="47.139855" xlink:href="#C2_0_b9c031122a" y="177.197116"/>
    </g>
    <g clip-path="url(#p1a97f151cf)">
     <use style="fill:#e377c2;stroke:#ffffff;stroke-width:0.565685;" x="55.534654" xlink:href="#C2_0_b9c031122a" y="174.485289"/>
    </g>
   </g>
   <g id="PathCollection_41"/>
   <g id="PathCollection_42"/>
   <g id="PathCollection_43"/>
   <g id="PathCollection_44"/>
   <g id="PathCollection_45"/>
   <g id="PathCollection_46"/>
   <g id="PathCollection_47"/>
   <g id="PathCollection_48">
    <path clip-path="url(#p1a97f151cf)" d="M 158.699457 209.904712 
L 168.699457 199.904712 
M 158.699457 199.904712 
L 168.699457 209.904712 
" style="fill:#1f77b4;stroke:#1f77b4;stroke-width:0.8;"/>
    <path clip-path="url(#p1a97f151cf)" d="M 144.746408 220.39339 
L 154.746408 210.39339 
M 144.746408 210.39339 
L 154.746408 220.39339 
" style="fill:#ff7f0e;stroke:#ff7f0e;stroke-width:0.8;"/>
    <path clip-path="url(#p1a97f151cf)" d="M 100.193235 152.699671 
L 110.193235 142.699671 
M 100.193235 142.699671 
L 110.193235 152.699671 
" style="fill:#2ca02c;stroke:#2ca02c;stroke-width:0.8;"/>
    <path clip-path="url(#p1a97f151cf)" d="M 162.942468 231.071143 
L 172.942468 221.071143 
M 162.942468 221.071143 
L 172.942468 231.071143 
" style="fill:#d62728;stroke:#d62728;stroke-width:0.8;"/>
    <path clip-path="url(#p1a97f151cf)" d="M 107.142026 167.775449 
L 117.142026 157.775449 
M 107.142026 157.775449 
L 117.142026 167.775449 
" style="fill:#9467bd;stroke:#9467bd;stroke-width:0.8;"/>
    <path clip-path="url(#p1a97f151cf)" d="M 68.449093 187.509856 
L 78.449093 177.509856 
M 68.449093 177.509856 
L 78.449093 187.509856 
" style="fill:#8c564b;stroke:#8c564b;stroke-width:0.8;"/>
    <path clip-path="url(#p1a97f151cf)" d="M 73.648585 185.290023 
L 83.648585 175.290023 
M 73.648585 175.290023 
L 83.648585 185.290023 
" style="fill:#e377c2;stroke:#e377c2;stroke-width:0.8;"/>
   </g>
   <g id="PathCollection_49"/>
   <g id="PathCollection_50"/>
   <g id="PathCollection_51"/>
   <g id="PathCollection_52"/>
   <g id="PathCollection_53"/>
   <g id="PathCollection_54"/>
   <g id="PathCollection_55"/>
   <g id="patch_28">
    <path d="M 40.2225 239.383125 
L 40.2225 140.546761 
" style="fill:none;stroke:#ffffff;stroke-linecap:square;stroke-linejoin:miter;stroke-width:0.8;"/>
   </g>
   <g id="patch_29">
    <path d="M 192.404318 239.383125 
L 192.404318 140.546761 
" style="fill:none;stroke:#ffffff;stroke-linecap:square;stroke-linejoin:miter;stroke-width:0.8;"/>
   </g>
   <g id="patch_30">
    <path d="M 40.2225 239.383125 
L 192.404318 239.383125 
" style="fill:none;stroke:#ffffff;stroke-linecap:square;stroke-linejoin:miter;stroke-width:0.8;"/>
   </g>
   <g id="patch_31">
    <path d="M 40.2225 140.546761 
L 192.404318 140.546761 
" style="fill:none;stroke:#ffffff;stroke-linecap:square;stroke-linejoin:miter;stroke-width:0.8;"/>
   </g>
   <g id="patch_32">
    <path d="M 167.640719 205.037778 
Q 166.668874 205.004967 166.814427 205.009881 
" style="fill:none;stroke:#1f77b4;stroke-linecap:round;"/>
    <path d="M 174.674899 209.277548 
L 166.814427 205.009881 
L 174.944844 201.282104 
L 174.674899 209.277548 
z
" style="fill:#1f77b4;stroke:#1f77b4;stroke-linecap:round;"/>
   </g>
   <g id="patch_33">
    <path d="M 123.840105 224.915128 
Q 135.855608 220.498888 146.821713 216.468348 
" style="fill:none;stroke:#ff7f0e;stroke-linecap:round;"/>
    <path d="M 137.932911 215.473761 
L 146.821713 216.468348 
L 140.692763 222.982638 
L 137.932911 215.473761 
z
" style="fill:#ff7f0e;stroke:#ff7f0e;stroke-linecap:round;"/>
   </g>
   <g id="patch_34">
    <path d="M 127.920973 147.573955 
Q 117.557269 147.631281 108.311582 147.682422 
" style="fill:none;stroke:#2ca02c;stroke-linecap:round;"/>
    <path d="M 116.333585 151.638111 
L 108.311582 147.682422 
L 116.289334 143.638233 
L 116.333585 151.638111 
z
" style="fill:#2ca02c;stroke:#2ca02c;stroke-linecap:round;"/>
   </g>
   <g id="patch_35">
    <path d="M 178.78494 233.734306 
Q 174.180331 230.479894 170.488736 227.870775 
" style="fill:none;stroke:#d62728;stroke-linecap:round;"/>
    <path d="M 174.713064 235.754623 
L 170.488736 227.870775 
L 179.330411 229.221622 
L 174.713064 235.754623 
z
" style="fill:#d62728;stroke:#d62728;stroke-linecap:round;"/>
   </g>
   <g id="patch_36">
    <path d="M 154.777598 169.976717 
Q 134.444771 166.542446 115.214363 163.294376 
" style="fill:none;stroke:#9467bd;stroke-linecap:round;"/>
    <path d="M 122.43646 168.570863 
L 115.214363 163.294376 
L 123.768811 160.682591 
L 122.43646 168.570863 
z
" style="fill:#9467bd;stroke:#9467bd;stroke-linecap:round;"/>
   </g>
   <g id="patch_37">
    <path d="M 49.102129 177.593367 
Q 60.296323 179.853859 70.394605 181.893049 
" style="fill:none;stroke:#8c564b;stroke-linecap:round;"/>
    <path d="M 63.344646 176.38868 
L 70.394605 181.893049 
L 61.761134 184.230395 
L 63.344646 176.38868 
z
" style="fill:#8c564b;stroke:#8c564b;stroke-linecap:round;"/>
   </g>
   <g id="patch_38">
    <path d="M 57.473042 174.972087 
Q 67.090182 177.387295 75.622959 179.53018 
" style="fill:none;stroke:#e377c2;stroke-linecap:round;"/>
    <path d="M 68.838186 173.702071 
L 75.622959 179.53018 
L 66.889608 181.461133 
L 68.838186 173.702071 
z
" style="fill:#e377c2;stroke:#e377c2;stroke-linecap:round;"/>
   </g>
   <g id="text_25">
    <!-- Lack of State Oversight/Regulation -->
    <g style="fill:#262626;" transform="translate(23.600284 134.546761)scale(0.12 -0.12)">
     <defs>
      <path d="M 469 0 
L 469 4581 
L 1075 4581 
L 1075 541 
L 3331 541 
L 3331 0 
L 469 0 
z
" id="ArialMT-4c" transform="scale(0.015625)"/>
      <path d="M 425 0 
L 425 4581 
L 988 4581 
L 988 1969 
L 2319 3319 
L 3047 3319 
L 1778 2088 
L 3175 0 
L 2481 0 
L 1384 1697 
L 988 1316 
L 988 0 
L 425 0 
z
" id="ArialMT-6b" transform="scale(0.015625)"/>
      <path d="M 309 2231 
Q 309 3372 921 4017 
Q 1534 4663 2503 4663 
Q 3138 4663 3647 4359 
Q 4156 4056 4423 3514 
Q 4691 2972 4691 2284 
Q 4691 1588 4409 1038 
Q 4128 488 3612 205 
Q 3097 -78 2500 -78 
Q 1853 -78 1343 234 
Q 834 547 571 1087 
Q 309 1628 309 2231 
z
M 934 2222 
Q 934 1394 1379 917 
Q 1825 441 2497 441 
Q 3181 441 3623 922 
Q 4066 1403 4066 2288 
Q 4066 2847 3877 3264 
Q 3688 3681 3323 3911 
Q 2959 4141 2506 4141 
Q 1863 4141 1398 3698 
Q 934 3256 934 2222 
z
" id="ArialMT-4f" transform="scale(0.015625)"/>
     </defs>
     <use xlink:href="#ArialMT-4c"/>
     <use x="55.615234" xlink:href="#ArialMT-61"/>
     <use x="111.230469" xlink:href="#ArialMT-63"/>
     <use x="161.230469" xlink:href="#ArialMT-6b"/>
     <use x="211.230469" xlink:href="#ArialMT-20"/>
     <use x="239.013672" xlink:href="#ArialMT-6f"/>
     <use x="294.628906" xlink:href="#ArialMT-66"/>
     <use x="322.412109" xlink:href="#ArialMT-20"/>
     <use x="350.195312" xlink:href="#ArialMT-53"/>
     <use x="416.894531" xlink:href="#ArialMT-74"/>
     <use x="444.677734" xlink:href="#ArialMT-61"/>
     <use x="500.292969" xlink:href="#ArialMT-74"/>
     <use x="528.076172" xlink:href="#ArialMT-65"/>
     <use x="583.691406" xlink:href="#ArialMT-20"/>
     <use x="611.474609" xlink:href="#ArialMT-4f"/>
     <use x="689.257812" xlink:href="#ArialMT-76"/>
     <use x="739.257812" xlink:href="#ArialMT-65"/>
     <use x="794.873047" xlink:href="#ArialMT-72"/>
     <use x="828.173828" xlink:href="#ArialMT-73"/>
     <use x="878.173828" xlink:href="#ArialMT-69"/>
     <use x="900.390625" xlink:href="#ArialMT-67"/>
     <use x="956.005859" xlink:href="#ArialMT-68"/>
     <use x="1011.621094" xlink:href="#ArialMT-74"/>
     <use x="1039.404297" xlink:href="#ArialMT-2f"/>
     <use x="1067.1875" xlink:href="#ArialMT-52"/>
     <use x="1139.404297" xlink:href="#ArialMT-65"/>
     <use x="1195.019531" xlink:href="#ArialMT-67"/>
     <use x="1250.634766" xlink:href="#ArialMT-75"/>
     <use x="1306.25" xlink:href="#ArialMT-6c"/>
     <use x="1328.466797" xlink:href="#ArialMT-61"/>
     <use x="1384.082031" xlink:href="#ArialMT-74"/>
     <use x="1411.865234" xlink:href="#ArialMT-69"/>
     <use x="1434.082031" xlink:href="#ArialMT-6f"/>
     <use x="1489.697266" xlink:href="#ArialMT-6e"/>
    </g>
   </g>
   <g id="legend_3"/>
  </g>
  <g id="axes_4">
   <g id="patch_39">
    <path d="M 222.840682 239.383125 
L 375.0225 239.383125 
L 375.0225 140.546761 
L 222.840682 140.546761 
z
" style="fill:#eaeaf2;"/>
   </g>
   <g id="matplotlib.axis_7">
    <g id="xtick_13">
     <g id="line2d_25">
      <path clip-path="url(#pe22f55c627)" d="M 235.590019 239.383125 
L 235.590019 140.546761 
" style="fill:none;stroke:#ffffff;stroke-linecap:round;stroke-width:0.8;"/>
     </g>
     <g id="text_26">
      <!-- 3.0 -->
      <g style="fill:#262626;" transform="translate(228.640019 253.540937)scale(0.1 -0.1)">
       <use xlink:href="#ArialMT-33"/>
       <use x="55.615234" xlink:href="#ArialMT-2e"/>
       <use x="83.398438" xlink:href="#ArialMT-30"/>
      </g>
     </g>
    </g>
    <g id="xtick_14">
     <g id="line2d_26">
      <path clip-path="url(#pe22f55c627)" d="M 279.338016 239.383125 
L 279.338016 140.546761 
" style="fill:none;stroke:#ffffff;stroke-linecap:round;stroke-width:0.8;"/>
     </g>
     <g id="text_27">
      <!-- 3.5 -->
      <g style="fill:#262626;" transform="translate(272.388016 253.540937)scale(0.1 -0.1)">
       <use xlink:href="#ArialMT-33"/>
       <use x="55.615234" xlink:href="#ArialMT-2e"/>
       <use x="83.398438" xlink:href="#ArialMT-35"/>
      </g>
     </g>
    </g>
    <g id="xtick_15">
     <g id="line2d_27">
      <path clip-path="url(#pe22f55c627)" d="M 323.086014 239.383125 
L 323.086014 140.546761 
" style="fill:none;stroke:#ffffff;stroke-linecap:round;stroke-width:0.8;"/>
     </g>
     <g id="text_28">
      <!-- 4.0 -->
      <g style="fill:#262626;" transform="translate(316.136014 253.540937)scale(0.1 -0.1)">
       <use xlink:href="#ArialMT-34"/>
       <use x="55.615234" xlink:href="#ArialMT-2e"/>
       <use x="83.398438" xlink:href="#ArialMT-30"/>
      </g>
     </g>
    </g>
    <g id="xtick_16">
     <g id="line2d_28">
      <path clip-path="url(#pe22f55c627)" d="M 366.834012 239.383125 
L 366.834012 140.546761 
" style="fill:none;stroke:#ffffff;stroke-linecap:round;stroke-width:0.8;"/>
     </g>
     <g id="text_29">
      <!-- 4.5 -->
      <g style="fill:#262626;" transform="translate(359.884012 253.540937)scale(0.1 -0.1)">
       <use xlink:href="#ArialMT-34"/>
       <use x="55.615234" xlink:href="#ArialMT-2e"/>
       <use x="83.398438" xlink:href="#ArialMT-35"/>
      </g>
     </g>
    </g>
    <g id="text_30">
     <!-- Sensitivity -->
     <g style="fill:#262626;" transform="translate(258.418935 272.631875)scale(0.18 -0.18)">
      <use xlink:href="#ArialMT-53"/>
      <use x="66.699219" xlink:href="#ArialMT-65"/>
      <use x="122.314453" xlink:href="#ArialMT-6e"/>
      <use x="177.929688" xlink:href="#ArialMT-73"/>
      <use x="227.929688" xlink:href="#ArialMT-69"/>
      <use x="250.146484" xlink:href="#ArialMT-74"/>
      <use x="277.929688" xlink:href="#ArialMT-69"/>
      <use x="300.146484" xlink:href="#ArialMT-76"/>
      <use x="350.146484" xlink:href="#ArialMT-69"/>
      <use x="372.363281" xlink:href="#ArialMT-74"/>
      <use x="400.146484" xlink:href="#ArialMT-79"/>
     </g>
    </g>
   </g>
   <g id="matplotlib.axis_8">
    <g id="ytick_13">
     <g id="line2d_29">
      <path clip-path="url(#pe22f55c627)" d="M 222.840682 231.841994 
L 375.0225 231.841994 
" style="fill:none;stroke:#ffffff;stroke-linecap:round;stroke-width:0.8;"/>
     </g>
    </g>
    <g id="ytick_14">
     <g id="line2d_30">
      <path clip-path="url(#pe22f55c627)" d="M 222.840682 203.577584 
L 375.0225 203.577584 
" style="fill:none;stroke:#ffffff;stroke-linecap:round;stroke-width:0.8;"/>
     </g>
    </g>
    <g id="ytick_15">
     <g id="line2d_31">
      <path clip-path="url(#pe22f55c627)" d="M 222.840682 175.313173 
L 375.0225 175.313173 
" style="fill:none;stroke:#ffffff;stroke-linecap:round;stroke-width:0.8;"/>
     </g>
    </g>
    <g id="ytick_16">
     <g id="line2d_32">
      <path clip-path="url(#pe22f55c627)" d="M 222.840682 147.048762 
L 375.0225 147.048762 
" style="fill:none;stroke:#ffffff;stroke-linecap:round;stroke-width:0.8;"/>
     </g>
    </g>
   </g>
   <g id="PathCollection_56">
    <defs>
     <path d="M 0 3.535534 
C 0.937635 3.535534 1.836992 3.163008 2.5 2.5 
C 3.163008 1.836992 3.535534 0.937635 3.535534 -0 
C 3.535534 -0.937635 3.163008 -1.836992 2.5 -2.5 
C 1.836992 -3.163008 0.937635 -3.535534 0 -3.535534 
C -0.937635 -3.535534 -1.836992 -3.163008 -2.5 -2.5 
C -3.163008 -1.836992 -3.535534 -0.937635 -3.535534 0 
C -3.535534 0.937635 -3.163008 1.836992 -2.5 2.5 
C -1.836992 3.163008 -0.937635 3.535534 0 3.535534 
z
" id="C3_0_99f7efd615"/>
    </defs>
    <g clip-path="url(#pe22f55c627)">
     <use style="fill:#1f77b4;stroke:#ffffff;stroke-width:0.565685;" x="352.257083" xlink:href="#C3_0_99f7efd615" y="205.105242"/>
    </g>
    <g clip-path="url(#pe22f55c627)">
     <use style="fill:#ff7f0e;stroke:#ffffff;stroke-width:0.565685;" x="304.582886" xlink:href="#C3_0_99f7efd615" y="225.604423"/>
    </g>
    <g clip-path="url(#pe22f55c627)">
     <use style="fill:#2ca02c;stroke:#ffffff;stroke-width:0.565685;" x="312.540548" xlink:href="#C3_0_99f7efd615" y="147.562884"/>
    </g>
    <g clip-path="url(#pe22f55c627)">
     <use style="fill:#d62728;stroke:#ffffff;stroke-width:0.565685;" x="363.039089" xlink:href="#C3_0_99f7efd615" y="234.890563"/>
    </g>
    <g clip-path="url(#pe22f55c627)">
     <use style="fill:#9467bd;stroke:#ffffff;stroke-width:0.565685;" x="339.369775" xlink:href="#C3_0_99f7efd615" y="170.310131"/>
    </g>
    <g clip-path="url(#pe22f55c627)">
     <use style="fill:#8c564b;stroke:#ffffff;stroke-width:0.565685;" x="229.758037" xlink:href="#C3_0_99f7efd615" y="177.197116"/>
    </g>
    <g clip-path="url(#pe22f55c627)">
     <use style="fill:#e377c2;stroke:#ffffff;stroke-width:0.565685;" x="238.152836" xlink:href="#C3_0_99f7efd615" y="174.485289"/>
    </g>
   </g>
   <g id="PathCollection_57"/>
   <g id="PathCollection_58"/>
   <g id="PathCollection_59"/>
   <g id="PathCollection_60"/>
   <g id="PathCollection_61"/>
   <g id="PathCollection_62"/>
   <g id="PathCollection_63"/>
   <g id="PathCollection_64">
    <path clip-path="url(#pe22f55c627)" d="M 344.263533 209.983742 
L 354.263533 199.983742 
M 344.263533 199.983742 
L 354.263533 209.983742 
" style="fill:#1f77b4;stroke:#1f77b4;stroke-width:0.8;"/>
    <path clip-path="url(#pe22f55c627)" d="M 334.832872 220.554705 
L 344.832872 210.554705 
M 334.832872 210.554705 
L 344.832872 220.554705 
" style="fill:#ff7f0e;stroke:#ff7f0e;stroke-width:0.8;"/>
    <path clip-path="url(#pe22f55c627)" d="M 339.872215 174.978779 
L 349.872215 164.978779 
M 339.872215 164.978779 
L 349.872215 174.978779 
" style="fill:#2ca02c;stroke:#2ca02c;stroke-width:0.8;"/>
    <path clip-path="url(#pe22f55c627)" d="M 326.706071 236.080434 
L 336.706071 226.080434 
M 326.706071 226.080434 
L 336.706071 236.080434 
" style="fill:#d62728;stroke:#d62728;stroke-width:0.8;"/>
    <path clip-path="url(#pe22f55c627)" d="M 292.961789 177.922346 
L 302.961789 167.922346 
M 292.961789 167.922346 
L 302.961789 177.922346 
" style="fill:#9467bd;stroke:#9467bd;stroke-width:0.8;"/>
    <path clip-path="url(#pe22f55c627)" d="M 237.20087 180.026625 
L 247.20087 170.026625 
M 237.20087 170.026625 
L 247.20087 180.026625 
" style="fill:#8c564b;stroke:#8c564b;stroke-width:0.8;"/>
    <path clip-path="url(#pe22f55c627)" d="M 229.824661 182.830948 
L 239.824661 172.830948 
M 229.824661 172.830948 
L 239.824661 182.830948 
" style="fill:#e377c2;stroke:#e377c2;stroke-width:0.8;"/>
   </g>
   <g id="PathCollection_65"/>
   <g id="PathCollection_66"/>
   <g id="PathCollection_67"/>
   <g id="PathCollection_68"/>
   <g id="PathCollection_69"/>
   <g id="PathCollection_70"/>
   <g id="PathCollection_71"/>
   <g id="patch_40">
    <path d="M 222.840682 239.383125 
L 222.840682 140.546761 
" style="fill:none;stroke:#ffffff;stroke-linecap:square;stroke-linejoin:miter;stroke-width:0.8;"/>
   </g>
   <g id="patch_41">
    <path d="M 375.0225 239.383125 
L 375.0225 140.546761 
" style="fill:none;stroke:#ffffff;stroke-linecap:square;stroke-linejoin:miter;stroke-width:0.8;"/>
   </g>
   <g id="patch_42">
    <path d="M 222.840682 239.383125 
L 375.0225 239.383125 
" style="fill:none;stroke:#ffffff;stroke-linecap:square;stroke-linejoin:miter;stroke-width:0.8;"/>
   </g>
   <g id="patch_43">
    <path d="M 222.840682 140.546761 
L 375.0225 140.546761 
" style="fill:none;stroke:#ffffff;stroke-linecap:square;stroke-linejoin:miter;stroke-width:0.8;"/>
   </g>
   <g id="patch_44">
    <path d="M 350.260408 205.024202 
Q 349.76197 205.003972 350.380647 205.029083 
" style="fill:none;stroke:#1f77b4;stroke-linecap:round;"/>
    <path d="M 358.211851 209.350222 
L 350.380647 205.029083 
L 358.536281 201.356803 
L 358.211851 209.350222 
z
" style="fill:#1f77b4;stroke:#1f77b4;stroke-linecap:round;"/>
   </g>
   <g id="patch_45">
    <path d="M 306.506317 225.056055 
Q 322.207469 220.57968 336.833431 216.409841 
" style="fill:none;stroke:#ff7f0e;stroke-linecap:round;"/>
    <path d="M 328.043295 214.756509 
L 336.833431 216.409841 
L 330.236683 222.44995 
L 328.043295 214.756509 
z
" style="fill:#ff7f0e;stroke:#ff7f0e;stroke-linecap:round;"/>
   </g>
   <g id="patch_46">
    <path d="M 314.186337 148.703928 
Q 328.707065 158.771306 342.308986 168.201665 
" style="fill:none;stroke:#2ca02c;stroke-linecap:round;"/>
    <path d="M 338.013605 160.356303 
L 342.308986 168.201665 
L 333.455468 166.930752 
L 338.013605 160.356303 
z
" style="fill:#2ca02c;stroke:#2ca02c;stroke-linecap:round;"/>
   </g>
   <g id="patch_47">
    <path d="M 361.054002 234.649174 
Q 347.374183 232.985693 334.804223 231.457173 
" style="fill:none;stroke:#d62728;stroke-linecap:round;"/>
    <path d="M 342.262876 236.393618 
L 334.804223 231.457173 
L 343.228571 228.452117 
L 342.262876 236.393618 
z
" style="fill:#d62728;stroke:#d62728;stroke-linecap:round;"/>
   </g>
   <g id="patch_48">
    <path d="M 337.375701 170.435926 
Q 318.667084 171.616156 301.074282 172.725995 
" style="fill:none;stroke:#9467bd;stroke-linecap:round;"/>
    <path d="M 309.310249 176.214382 
L 301.074282 172.725995 
L 308.806572 168.230254 
L 309.310249 176.214382 
z
" style="fill:#9467bd;stroke:#9467bd;stroke-linecap:round;"/>
   </g>
   <g id="patch_49">
    <path d="M 231.72957 176.853208 
Q 235.979701 176.111828 239.128429 175.562573 
" style="fill:none;stroke:#8c564b;stroke-linecap:round;"/>
    <path d="M 230.560064 172.996813 
L 239.128429 175.562573 
L 231.934802 180.877808 
L 230.560064 172.996813 
z
" style="fill:#8c564b;stroke:#8c564b;stroke-linecap:round;"/>
   </g>
   <g id="patch_50">
    <path d="M 236.745512 175.900006 
Q 236.489461 176.157402 237.021906 175.62216 
" style="fill:none;stroke:#e377c2;stroke-linecap:round;"/>
    <path d="M 245.499748 172.771513 
L 237.021906 175.62216 
L 239.828093 167.129498 
L 245.499748 172.771513 
z
" style="fill:#e377c2;stroke:#e377c2;stroke-linecap:round;"/>
   </g>
   <g id="text_31">
    <!-- Exploitative Nature of Agriculture -->
    <g style="fill:#262626;" transform="translate(211.891278 134.546761)scale(0.12 -0.12)">
     <defs>
      <path d="M 506 0 
L 506 4581 
L 3819 4581 
L 3819 4041 
L 1113 4041 
L 1113 2638 
L 3647 2638 
L 3647 2100 
L 1113 2100 
L 1113 541 
L 3925 541 
L 3925 0 
L 506 0 
z
" id="ArialMT-45" transform="scale(0.015625)"/>
      <path d="M 47 0 
L 1259 1725 
L 138 3319 
L 841 3319 
L 1350 2541 
Q 1494 2319 1581 2169 
Q 1719 2375 1834 2534 
L 2394 3319 
L 3066 3319 
L 1919 1756 
L 3153 0 
L 2463 0 
L 1781 1031 
L 1600 1309 
L 728 0 
L 47 0 
z
" id="ArialMT-78" transform="scale(0.015625)"/>
      <path d="M 488 0 
L 488 4581 
L 1109 4581 
L 3516 984 
L 3516 4581 
L 4097 4581 
L 4097 0 
L 3475 0 
L 1069 3600 
L 1069 0 
L 488 0 
z
" id="ArialMT-4e" transform="scale(0.015625)"/>
     </defs>
     <use xlink:href="#ArialMT-45"/>
     <use x="66.699219" xlink:href="#ArialMT-78"/>
     <use x="116.699219" xlink:href="#ArialMT-70"/>
     <use x="172.314453" xlink:href="#ArialMT-6c"/>
     <use x="194.53125" xlink:href="#ArialMT-6f"/>
     <use x="250.146484" xlink:href="#ArialMT-69"/>
     <use x="272.363281" xlink:href="#ArialMT-74"/>
     <use x="300.146484" xlink:href="#ArialMT-61"/>
     <use x="355.761719" xlink:href="#ArialMT-74"/>
     <use x="383.544922" xlink:href="#ArialMT-69"/>
     <use x="405.761719" xlink:href="#ArialMT-76"/>
     <use x="455.761719" xlink:href="#ArialMT-65"/>
     <use x="511.376953" xlink:href="#ArialMT-20"/>
     <use x="539.160156" xlink:href="#ArialMT-4e"/>
     <use x="611.376953" xlink:href="#ArialMT-61"/>
     <use x="666.992188" xlink:href="#ArialMT-74"/>
     <use x="694.775391" xlink:href="#ArialMT-75"/>
     <use x="750.390625" xlink:href="#ArialMT-72"/>
     <use x="783.691406" xlink:href="#ArialMT-65"/>
     <use x="839.306641" xlink:href="#ArialMT-20"/>
     <use x="867.089844" xlink:href="#ArialMT-6f"/>
     <use x="922.705078" xlink:href="#ArialMT-66"/>
     <use x="950.488281" xlink:href="#ArialMT-20"/>
     <use x="972.771484" xlink:href="#ArialMT-41"/>
     <use x="1039.470703" xlink:href="#ArialMT-67"/>
     <use x="1095.085938" xlink:href="#ArialMT-72"/>
     <use x="1128.386719" xlink:href="#ArialMT-69"/>
     <use x="1150.603516" xlink:href="#ArialMT-63"/>
     <use x="1200.603516" xlink:href="#ArialMT-75"/>
     <use x="1256.21875" xlink:href="#ArialMT-6c"/>
     <use x="1278.435547" xlink:href="#ArialMT-74"/>
     <use x="1306.21875" xlink:href="#ArialMT-75"/>
     <use x="1361.833984" xlink:href="#ArialMT-72"/>
     <use x="1395.134766" xlink:href="#ArialMT-65"/>
    </g>
   </g>
   <g id="legend_4"/>
  </g>
 </g>
 <defs>
  <clipPath id="p1564f26672">
   <rect height="98.836364" width="152.181818" x="40.2225" y="21.943125"/>
  </clipPath>
  <clipPath id="p6a471c15d4">
   <rect height="98.836364" width="152.181818" x="222.840682" y="21.943125"/>
  </clipPath>
  <clipPath id="p1a97f151cf">
   <rect height="98.836364" width="152.181818" x="40.2225" y="140.546761"/>
  </clipPath>
  <clipPath id="pe22f55c627">
   <rect height="98.836364" width="152.181818" x="222.840682" y="140.546761"/>
  </clipPath>
 </defs>
</svg>
